<?xml version="1.0" encoding="UTF-8" standalone="no"?>
<!-- Created with Inkscape (http://www.inkscape.org/) -->

<svg
   xmlns:dc="http://purl.org/dc/elements/1.1/"
   xmlns:cc="http://creativecommons.org/ns#"
   xmlns:rdf="http://www.w3.org/1999/02/22-rdf-syntax-ns#"
   xmlns:svg="http://www.w3.org/2000/svg"
   xmlns="http://www.w3.org/2000/svg"
   xmlns:sodipodi="http://sodipodi.sourceforge.net/DTD/sodipodi-0.dtd"
   xmlns:inkscape="http://www.inkscape.org/namespaces/inkscape"
   width="12mm"
   height="6mm"
   viewBox="0 0 12 6"
   version="1.1"
   id="svg9425"
   inkscape:version="0.92.2 (5c3e80d, 2017-08-06)"
   sodipodi:docname="bmw.svg">
  <defs
     id="defs9419" />
  <sodipodi:namedview
     id="base"
     pagecolor="#ffffff"
     bordercolor="#666666"
     borderopacity="1.0"
     inkscape:pageopacity="0.0"
     inkscape:pageshadow="2"
     inkscape:zoom="12.087093"
     inkscape:cx="17.1848"
     inkscape:cy="4.8003514"
     inkscape:document-units="mm"
     inkscape:current-layer="g4833"
     showgrid="false"
     inkscape:window-width="1920"
     inkscape:window-height="1017"
     inkscape:window-x="-8"
     inkscape:window-y="-8"
     inkscape:window-maximized="1" />
  <metadata
     id="metadata9422">
    <rdf:RDF>
      <cc:Work
         rdf:about="">
        <dc:format>image/svg+xml</dc:format>
        <dc:type
           rdf:resource="http://purl.org/dc/dcmitype/StillImage" />
        <dc:title></dc:title>
      </cc:Work>
    </rdf:RDF>
  </metadata>
  <g
     inkscape:label="Layer 1"
     inkscape:groupmode="layer"
     id="layer1"
     transform="translate(0,-291)">
    <g
       transform="matrix(0.25691619,0,0,0.26801702,-60.975538,207.77202)"
       style="opacity:0.8"
       id="g2791">
      <g
         transform="translate(-428.30763,-0.14631344)"
         style="opacity:0.8"
         id="g4833">
        <g
           transform="matrix(0.91243884,0,0,0.87464708,414.90122,185.2522)"
           id="g1415">
          <path
             inkscape:connector-curvature="0"
             d="m 300.4,143.5 c -7,0 -12.7,5.7 -12.7,12.7 0,7 5.7,12.7 12.7,12.7 7,0 12.7,-5.7 12.7,-12.7 0,-7 -5.7,-12.7 -12.7,-12.7 z m 0,25.1 c -6.8,0 -12.4,-5.6 -12.4,-12.4 0,-6.8 5.6,-12.4 12.4,-12.4 6.8,0 12.4,5.6 12.4,12.4 0,6.8 -5.6,12.4 -12.4,12.4 z"
             id="path1403" />
          <path
             inkscape:connector-curvature="0"
             d="m 293.1,151.2 c 0.1,0 0.1,0 0,0 0.1,0 0.1,0 0,0 0.3,-0.3 0.5,-0.6 0.8,-0.9 0.1,-0.1 0.2,-0.2 0.3,-0.3 0.1,-0.1 0.1,-0.3 0.1,-0.4 -0.1,-0.1 -0.2,-0.2 -0.4,-0.2 -0.1,0 -0.2,0.1 -0.3,0.2 -0.1,0.1 -0.2,0.3 -0.3,0.4 -0.2,0.3 -0.5,0.6 -0.7,0.8 0.1,0.1 0.2,0.2 0.3,0.3 0.1,0 0.2,0 0.2,0.1 z"
             id="path1405" />
          <path
             inkscape:connector-curvature="0"
             d="m 300.4,144 c -6.7,0 -12.2,5.4 -12.2,12.2 0,6.7 5.4,12.2 12.2,12.2 6.7,0 12.2,-5.4 12.2,-12.2 0,-6.7 -5.5,-12.2 -12.2,-12.2 z m -2,0.8 1.1,-0.1 0.8,2.4 0.8,-2.4 1.1,0.1 0.1,3.4 -0.9,-0.1 -0.1,-2.3 -0.8,2.3 h -0.6 l -0.8,-2.3 -0.1,2.3 -0.9,0.1 z m -7.6,5.6 c -0.1,-0.1 -0.2,-0.1 -0.3,-0.2 0,0 0,0 0,0 0,0 0,0 0,-0.1 0.2,-0.3 0.5,-0.6 0.7,-0.9 0.3,-0.3 0.5,-0.7 0.8,-1 0.1,-0.1 0.1,-0.1 0.2,-0.2 0.1,-0.1 0.2,-0.2 0.4,-0.3 0.3,-0.1 0.6,0 0.9,0.2 0.1,0.1 0.2,0.2 0.2,0.4 0,0.2 0,0.3 0,0.5 0,0 0,0 0.1,-0.1 0.3,-0.2 0.6,-0.2 0.9,-0.1 0.3,0.1 0.5,0.4 0.5,0.7 0,0.1 0,0.2 0,0.4 -0.1,0.2 -0.2,0.4 -0.4,0.6 -0.3,0.4 -0.6,0.7 -0.8,1.1 -0.2,0.3 -0.5,0.6 -0.7,0.9 0,0 0,0 -0.1,0.1 0,0 0,0 0,0 -0.1,-0.1 -0.2,-0.1 -0.3,-0.2 -0.3,-0.3 -0.7,-0.6 -1,-0.8 -0.4,-0.4 -0.8,-0.7 -1.1,-1 z m 9.6,13.4 c -4.2,0 -7.6,-3.4 -7.6,-7.6 0,-4.2 3.4,-7.6 7.6,-7.6 4.2,0 7.6,3.4 7.6,7.6 0,4.2 -3.4,7.6 -7.6,7.6 z m 7.2,-11.5 -0.4,-0.7 1.5,-2 -2.3,1 -0.6,-0.6 2.1,-2.7 0.6,0.6 -1.2,1.6 1.9,-0.9 0.6,0.7 -1.3,1.7 1.8,-0.8 0.4,0.7 z"
             id="path1407" />
          <path
             inkscape:connector-curvature="0"
             d="m 293.1,149 c 0,-0.1 0,-0.3 -0.1,-0.4 -0.1,-0.1 -0.3,-0.2 -0.4,-0.1 -0.1,0 -0.2,0.1 -0.2,0.2 -0.3,0.3 -0.5,0.7 -0.8,1 0,0 -0.1,0.1 -0.1,0.1 0.1,0 0.1,0.1 0.2,0.1 0.1,0.1 0.3,0.2 0.4,0.3 0.1,-0.2 0.3,-0.4 0.4,-0.5 0.1,-0.2 0.3,-0.3 0.4,-0.5 0.1,0 0.2,-0.1 0.2,-0.2 z"
             id="path1409" />
          <path
             inkscape:connector-curvature="0"
             d="m 293.2,156.2 h 7.2 V 149 c -3.9,0.1 -7.1,3.2 -7.2,7.2 z"
             id="path1411" />
          <path
             inkscape:connector-curvature="0"
             d="m 300.4,163.4 c 3.9,-0.1 7.1,-3.3 7.2,-7.2 h -7.2 z"
             id="path1413" />
        </g>
      </g>
    </g>
  </g>
</svg>
