<?xml version="1.0" encoding="UTF-8" standalone="no"?>
<!-- Created with Inkscape (http://www.inkscape.org/) -->

<svg
   xmlns:dc="http://purl.org/dc/elements/1.1/"
   xmlns:cc="http://creativecommons.org/ns#"
   xmlns:rdf="http://www.w3.org/1999/02/22-rdf-syntax-ns#"
   xmlns:svg="http://www.w3.org/2000/svg"
   xmlns="http://www.w3.org/2000/svg"
   xmlns:sodipodi="http://sodipodi.sourceforge.net/DTD/sodipodi-0.dtd"
   xmlns:inkscape="http://www.inkscape.org/namespaces/inkscape"
   width="12mm"
   height="6mm"
   viewBox="0 0 12 6"
   version="1.1"
   id="svg9425"
   inkscape:version="0.92.2 (5c3e80d, 2017-08-06)"
   sodipodi:docname="ford.svg">
  <defs
     id="defs9419" />
  <sodipodi:namedview
     id="base"
     pagecolor="#ffffff"
     bordercolor="#666666"
     borderopacity="1.0"
     inkscape:pageopacity="0.0"
     inkscape:pageshadow="2"
     inkscape:zoom="12.087093"
     inkscape:cx="30.628893"
     inkscape:cy="4.8003514"
     inkscape:document-units="mm"
     inkscape:current-layer="g4833"
     showgrid="false"
     inkscape:window-width="1280"
     inkscape:window-height="961"
     inkscape:window-x="-8"
     inkscape:window-y="44"
     inkscape:window-maximized="1" />
  <metadata
     id="metadata9422">
    <rdf:RDF>
      <cc:Work
         rdf:about="">
        <dc:format>image/svg+xml</dc:format>
        <dc:type
           rdf:resource="http://purl.org/dc/dcmitype/StillImage" />
        <dc:title></dc:title>
      </cc:Work>
    </rdf:RDF>
  </metadata>
  <g
     inkscape:label="Layer 1"
     inkscape:groupmode="layer"
     id="layer1"
     transform="translate(0,-291)">
    <g
       transform="matrix(0.25691619,0,0,0.26801702,-60.975538,207.77202)"
       style="opacity:0.8"
       id="g2791">
      <g
         transform="translate(-428.30763,-0.14631344)"
         style="opacity:0.8"
         id="g4833">
        <g
           id="g11293"
           transform="matrix(0.93612094,0,0,0.8973483,666.53095,300.33572)">
          <path
             d="m 47.853,23.304 c 0.009,0.044 0.016,0.087 0.023,0.131 -0.006,-0.043 -0.015,-0.087 -0.023,-0.131 M 24,14 C 10.678,14 0,18.993 0,23.999 0,28.975 10.766,34 24,34 37.234,34 48,28.962 48,23.999 48,19.037 37.234,14 24,14"
             style="fill:#303f9f"
             id="path3532"
             inkscape:connector-curvature="0" />
          <g
             id="g11277">
            <path
               id="path11275"
               d="m 24,16 c 13.416,0 21.416,5.016 21.97,7.721 l 0.002,0.014 0.01,0.044 C 45.994,23.853 46,23.927 46,24 46,26.821 37.647,32 24,32 10.353,32 2,26.82 2,24 2,21.284 9.765,16 24,16 m 0,-1 c -13.758,0 -23,5.136 -23,9 0,3.783 9.445,9 23,9 13.555,0 23,-5.217 23,-9 0,-0.14 -0.013,-0.28 -0.038,-0.421 l -0.074,0.011 0.072,-0.018 c -10e-4,-0.004 -10e-4,-0.009 -0.002,-0.013 l -0.073,0.01 0.071,-0.017 C 46.25,19.89 37.021,15 24,15 Z"
               style="fill:#ffffff"
               inkscape:connector-curvature="0" />
          </g>
          <path
             d="m 36.815,21.324 c -0.09,0 -0.136,0.011 -0.178,0.094 v 0 c -0.139,0.267 -1.834,2.807 -2.149,3.3 v 0 c -0.053,0.075 -0.118,0.065 -0.126,-0.021 v 0 C 34.33,24.404 34.077,24.068 33.678,23.906 v 0 C 33.375,23.783 33.077,23.76 32.769,23.801 v 0 c -0.557,0.075 -1.054,0.369 -1.491,0.701 v 0 c -0.659,0.5 -1.226,1.149 -1.959,1.627 v 0 c -0.4,0.261 -0.948,0.489 -1.314,0.149 v 0 C 27.673,25.97 27.71,25.287 28.218,24.759 v 0 c 0.054,-0.056 0.118,-0.01 0.108,0.04 v 0 c -0.048,0.239 0.011,0.477 0.192,0.644 v 0 c 0.222,0.198 0.539,0.221 0.81,0.089 v 0 c 0.32,-0.158 0.509,-0.465 0.563,-0.813 v 0 c 0.085,-0.539 -0.33,-1.015 -0.85,-1.053 v 0 c -0.422,-0.03 -0.827,0.117 -1.221,0.443 v 0 c -0.197,0.164 -0.31,0.285 -0.481,0.528 v 0 c -0.042,0.059 -0.106,0.065 -0.104,-0.023 v 0 c 0.02,-0.691 -0.266,-1.079 -0.837,-1.092 v 0 c -0.443,-0.01 -0.917,0.231 -1.286,0.524 v 0 c -0.404,0.325 -0.758,0.755 -1.137,1.16 v 0 c -0.047,0.05 -0.089,0.048 -0.102,-0.048 v 0 C 23.862,24.7 23.747,24.257 23.535,23.942 v 0 c -0.075,-0.11 -0.232,-0.164 -0.365,-0.09 v 0 c -0.061,0.033 -0.274,0.131 -0.429,0.256 v 0 c -0.076,0.063 -0.107,0.155 -0.073,0.273 v 0 c 0.204,0.683 0.16,1.46 -0.118,2.116 v 0 c -0.255,0.601 -0.75,1.144 -1.331,1.327 v 0 c -0.383,0.122 -0.782,0.062 -1.028,-0.277 v 0 c -0.338,-0.469 -0.202,-1.284 0.303,-1.961 v 0 c 0.446,-0.596 1.089,-0.974 1.732,-1.219 v 0 c 0.076,-0.029 0.091,-0.078 0.07,-0.142 v 0 C 22.261,24.12 22.205,23.976 22.183,23.91 v 0 c -0.059,-0.157 -0.224,-0.182 -0.426,-0.16 v 0 c -0.467,0.054 -0.888,0.214 -1.304,0.437 v 0 c -1.089,0.583 -1.635,1.712 -1.874,2.316 v 0 c -0.115,0.291 -0.214,0.471 -0.341,0.632 v 0 c -0.171,0.216 -0.387,0.412 -0.782,0.759 v 0 c -0.035,0.031 -0.062,0.097 -0.032,0.159 v 0 c 0.041,0.083 0.246,0.373 0.303,0.398 v 0 c 0.064,0.031 0.139,-0.012 0.168,-0.034 v 0 c 0.276,-0.187 0.606,-0.483 0.768,-0.684 v 0 c 0.056,-0.069 0.114,-0.04 0.144,0.065 v 0 c 0.151,0.537 0.545,0.977 1.091,1.16 v 0 c 0.999,0.337 2.035,-0.151 2.817,-1 v 0 c 0.497,-0.539 0.676,-0.887 0.867,-1.122 v 0 c 0.322,-0.4 0.959,-1.295 1.718,-1.869 v 0 c 0.278,-0.213 0.608,-0.374 0.772,-0.267 v 0 c 0.133,0.086 0.176,0.287 -0.037,0.674 v 0 c -0.773,1.413 -1.911,3.071 -2.12,3.474 v 0 c -0.038,0.069 -0.006,0.125 0.068,0.125 v 0 c 0.405,-0.002 0.806,-10e-4 1.173,-10e-4 v 0 c 0.061,-0.003 0.089,-0.031 0.119,-0.075 v 0 c 0.593,-0.928 1.152,-1.813 1.75,-2.727 v 0 c 0.034,-0.053 0.064,-0.012 0.066,0.012 v 0 c 0.012,0.213 0.065,0.503 0.19,0.693 v 0 c 0.226,0.352 0.547,0.503 0.903,0.506 v 0 c 0.282,0.003 0.426,-0.04 0.73,-0.153 v 0 c 0.249,-0.093 0.449,-0.213 0.601,-0.323 v 0 c 0.089,-0.062 0.105,0.042 0.103,0.058 v 0 c -0.137,0.737 0.033,1.611 0.765,1.973 v 0 c 0.877,0.432 1.841,-0.176 2.396,-0.724 v 0 c 0.054,-0.053 0.112,-0.047 0.118,0.066 v 0 c 0.011,0.209 0.107,0.458 0.28,0.633 v 0 c 0.464,0.466 1.403,0.281 2.343,-0.447 v 0 c 0.604,-0.466 1.236,-1.125 1.807,-1.823 v 0 c 0.022,-0.027 0.037,-0.07 -0.006,-0.115 v 0 c -0.087,-0.09 -0.213,-0.195 -0.299,-0.275 v 0 c -0.039,-0.033 -0.097,-0.024 -0.13,0.002 v 0 c -0.585,0.556 -1.112,1.191 -1.874,1.716 v 0 c -0.256,0.179 -0.666,0.324 -0.85,0.075 v 0 c -0.072,-0.097 -0.063,-0.231 0.008,-0.406 v 0 c 0.222,-0.553 3.737,-5.905 3.919,-6.221 v 0 c 0.032,-0.055 0,-0.095 -0.07,-0.095 v 0 c -0.362,0 -0.836,0.001 -1.213,0.001 m -5.57,6.577 c -0.181,-0.094 -0.259,-0.347 -0.255,-0.55 v 0 c 0.009,-0.577 0.264,-1.168 0.737,-1.75 v 0 c 0.577,-0.709 1.214,-1.078 1.633,-0.876 v 0 c 0.433,0.206 0.294,0.708 0.101,1.101 v 0 c -0.014,0.031 -0.015,0.056 -0.008,0.082 v 0 c 0.007,0.041 0.06,0.08 0.112,0.099 v 0 c 0.019,0.007 0.029,0.02 0.008,0.063 v 0 c -0.149,0.32 -0.287,0.506 -0.474,0.783 v 0 c -0.172,0.257 -0.366,0.458 -0.602,0.651 v 0 c -0.274,0.226 -0.629,0.468 -0.964,0.468 v 0 c -0.097,0 -0.195,-0.021 -0.288,-0.071"
             style="fill:#ffffff"
             id="path4206"
             inkscape:connector-curvature="0" />
          <path
             d="m 18.132,18.078 c -0.336,0 -0.672,0.013 -1.012,0.04 v 0 c -2.16,0.182 -4.215,1.399 -4.22,3.244 v 0 c 0,0.937 0.664,1.695 1.695,1.662 v 0 c 1.212,-0.041 2.207,-1.012 2.728,-2.236 v 0 c 0.197,-0.464 -0.169,-0.657 -0.343,-0.39 v 0 c -0.311,0.482 -0.749,0.855 -1.223,1.087 v 0 c -0.57,0.28 -1.18,0.204 -1.364,-0.26 v 0 c -0.26,-0.653 0.28,-1.63 1.513,-2.091 v 0 c 1.78,-0.659 3.643,-0.223 5.435,0.114 v 0 c 0.026,0 0.121,0.053 0.036,0.097 v 0 c -0.32,0.175 -0.636,0.317 -1.128,0.741 v 0 c -0.354,0.302 -0.815,0.704 -1.173,1.143 v 0 c -0.354,0.432 -0.606,0.818 -0.938,1.244 v 0 c -0.047,0.062 -0.104,0.059 -0.103,0.059 v 0 c -0.811,0.137 -1.605,0.228 -2.332,0.734 v 0 c -0.15,0.104 -0.216,0.288 -0.124,0.429 v 0 c 0.082,0.125 0.269,0.138 0.398,0.044 v 0 c 0.452,-0.338 0.917,-0.497 1.45,-0.511 v 0 c 0.023,10e-4 0.034,0.006 0.041,0.019 v 0 c 0.006,0.008 0,0.025 -0.008,0.038 v 0 c -0.799,1.108 -0.999,1.358 -1.599,2.045 v 0 c -0.308,0.353 -0.61,0.651 -0.948,0.961 v 0 c -1.364,1.267 -2.831,1.246 -3.357,0.451 v 0 C 11.242,26.265 11.283,25.765 11.49,25.349 v 0 c 0.253,-0.509 0.766,-0.881 1.192,-1.099 v 0 c 0.158,-0.081 0.204,-0.283 0.045,-0.467 v 0 c -0.1,-0.121 -0.345,-0.142 -0.527,-0.109 v 0 c -0.559,0.104 -1.219,0.526 -1.609,1.034 v 0 c -0.439,0.571 -0.659,1.263 -0.585,2.04 v 0 c 0.132,1.403 1.287,2.213 2.597,2.204 v 0 c 1.043,-0.009 2.026,-0.324 3.208,-1.524 v 0 c 1.103,-1.12 2.106,-2.791 3.046,-4.341 v 0 c 0.029,-0.05 0.05,-0.077 0.193,-0.094 v 0 c 0.589,-0.073 1.46,-0.158 2.018,-0.19 v 0 c 0.125,-0.007 0.15,-0.005 0.199,0.057 v 0 c 0.146,0.183 0.364,0.339 0.539,0.433 v 0 c 0.085,0.047 0.126,0.069 0.193,0.071 v 0 c 0.083,0.002 0.147,-0.043 0.188,-0.09 v 0 c 0.059,-0.065 0.076,-0.149 0.044,-0.204 v 0 c -0.033,-0.057 -0.423,-0.273 -0.435,-0.36 v 0 c -0.009,-0.055 0.051,-0.068 0.051,-0.068 v 0 c 0.286,-0.09 0.584,-0.274 0.764,-0.62 v 0 c 0.177,-0.34 0.206,-0.795 -0.119,-1.047 v 0 c -0.284,-0.221 -0.714,-0.186 -1.057,0.121 v 0 c -0.335,0.299 -0.447,0.734 -0.401,1.115 v 0 c 0.008,0.066 0.006,0.089 -0.086,0.096 v 0 c -0.516,0.041 -1.013,0.055 -1.566,0.084 v 0 c -0.037,0.003 -0.048,-0.022 -0.027,-0.048 v 0 c 0.636,-1.106 1.587,-1.893 2.637,-2.668 v 0 c 0.069,-0.052 0.048,-0.151 0.045,-0.234 v 0 c 1.898,0.412 3.731,1.18 5.701,1.163 v 0 c 0.814,-0.007 1.593,-0.13 2.337,-0.539 v 0 c 0.655,-0.358 0.922,-0.688 0.941,-1.031 v 0 c 0.016,-0.238 -0.149,-0.387 -0.384,-0.337 v 0 c -1.989,0.457 -3.886,0.452 -5.866,0.213 v 0 c -2.245,-0.272 -4.399,-0.832 -6.633,-0.832 v 0 c 0,0 0,0 -0.006,0 m 3.432,3.986 c -0.029,-0.21 0.04,-0.492 0.264,-0.691 v 0 c 0.112,-0.1 0.265,-0.123 0.359,-0.043 v 0 c 0.105,0.09 0.055,0.313 -0.051,0.468 v 0 c -0.115,0.171 -0.312,0.318 -0.491,0.354 v 0 c -0.006,10e-4 -0.01,0.002 -0.015,0.002 v 0 c -0.028,-0.001 -0.053,-0.022 -0.066,-0.09"
             style="fill:#ffffff"
             id="path4232"
             inkscape:connector-curvature="0" />
        </g>
        <path
           style="fill:#4d4d4d;fill-opacity:1;stroke-width:0.08273288"
           d="M 19.584054,18.476709 C 13.224354,18.055144 7.3296055,16.208942 4.2744966,13.681843 3.2389859,12.825298 2.7479134,12.062379 2.7479134,11.310178 c 0,-1.4920284 2.4906397,-3.4945762 6.122233,-4.9224557 6.7847256,-2.6676365 17.1180476,-3.038615 24.7267896,-0.8877209 3.554315,1.0047593 6.406971,2.4387694 7.979379,4.0111786 1.370297,1.370296 1.378863,2.270151 0.03483,3.659164 -2.333309,2.411404 -7.73203,4.422728 -13.71244,5.108649 -2.500259,0.286767 -5.790823,0.365014 -8.314654,0.197716 z m 12.593189,-2.521307 c 0.21773,-0.07391 0.563407,-0.248617 0.768171,-0.388238 0.440152,-0.300123 1.321366,-1.126953 1.673101,-1.569844 0.240174,-0.30242 0.243863,-0.319539 0.102525,-0.475715 -0.08064,-0.0891 -0.182355,-0.162006 -0.226039,-0.162006 -0.04368,0 -0.397963,0.301524 -0.787289,0.670053 -0.849077,0.803721 -1.262341,1.089908 -1.520968,1.053274 -0.279432,-0.03958 -0.287228,-0.334835 -0.021,-0.795521 0.12397,-0.214523 0.910581,-1.462627 1.748026,-2.773563 0.837445,-1.310936 1.543202,-2.4371376 1.568349,-2.5026696 0.03748,-0.097663 -0.07504,-0.119149 -0.623955,-0.119149 H 34.188488 L 33.992126,9.2022717 C 33.884127,9.3729083 33.435331,10.064833 32.9948,10.739882 l -0.800963,1.227362 -0.184305,-0.275934 c -0.281254,-0.42108 -0.661593,-0.582966 -1.267813,-0.539625 -0.669704,0.04788 -1.086749,0.284599 -2.222509,1.261524 -1.284261,1.104659 -1.815734,1.328663 -2.196329,0.925707 -0.212902,-0.225412 -0.189055,-0.726968 0.05206,-1.094959 l 0.154643,-0.236015 0.05351,0.261654 c 0.02943,0.14391 0.09702,0.314076 0.150194,0.378146 0.269895,0.325204 0.975437,0.166444 1.201292,-0.270312 0.357956,-0.692211 -0.04844,-1.366622 -0.816528,-1.355011 -0.426378,0.0064 -0.772227,0.1726 -1.154066,0.554439 l -0.282688,0.282687 -0.05504,-0.293377 c -0.07902,-0.421195 -0.377015,-0.688979 -0.764225,-0.686739 -0.488347,0.0028 -0.981494,0.277356 -1.632977,0.909064 l -0.598476,0.58031 -0.101487,-0.45349 c -0.05582,-0.24942 -0.171279,-0.5384 -0.25658,-0.642179 l -0.155094,-0.188689 -0.315255,0.166262 -0.315256,0.166263 0.02836,0.785165 c 0.03564,0.986855 -0.159462,1.58249 -0.693168,2.116196 -1.117651,1.11765 -2.242374,0.197003 -1.477088,-1.209079 0.285115,-0.52385 0.709759,-0.912654 1.349478,-1.235584 0.487055,-0.245865 0.493486,-0.253651 0.409197,-0.495443 -0.112733,-0.323384 -0.268401,-0.360914 -0.860968,-0.207571 -1.090166,0.282112 -1.835608,0.970695 -2.444025,2.257606 -0.242389,0.512695 -0.459461,0.831061 -0.761009,1.116119 -0.418723,0.395826 -0.420882,0.400481 -0.287828,0.620497 0.194126,0.321003 0.317284,0.309697 0.74703,-0.06858 l 0.383874,-0.337899 0.168337,0.329969 c 0.335077,0.656805 1.115551,1.004108 1.874337,0.83406 0.822502,-0.184326 1.353658,-0.59818 2.19355,-1.709116 1.093817,-1.446808 2.112065,-2.390377 2.392515,-2.217049 0.238285,0.147268 -3.31e-4,0.648183 -1.256392,2.637638 -0.399409,0.63261 -0.706699,1.18175 -0.682867,1.22031 0.02383,0.03856 0.295971,0.07011 0.604755,0.07011 0.43287,0 0.589475,-0.03315 0.683922,-0.144783 0.06737,-0.07963 0.453794,-0.663199 0.858715,-1.296819 0.689203,-1.078465 0.7394,-1.136584 0.786022,-0.910062 0.169342,0.822794 0.881471,1.084059 1.795242,0.658638 l 0.434348,-0.202218 v 0.433695 c 0,0.926833 0.667158,1.612621 1.468773,1.509784 0.399628,-0.05127 0.875404,-0.273891 1.238761,-0.579635 l 0.247643,-0.208378 0.129609,0.329955 c 0.09169,0.233413 0.210065,0.364898 0.404584,0.449383 0.356192,0.154703 0.477085,0.15363 0.95463,-0.0085 z m -18.728479,-0.27479 c 1.275495,-0.438834 2.511772,-1.75366 4.097982,-4.35835 0.575808,-0.945524 0.452767,-0.87966 1.848233,-0.989374 l 0.720986,-0.05669 0.29537,0.259339 c 0.310019,0.2722 0.360228,0.290543 0.572411,0.209121 0.193968,-0.07443 0.158882,-0.258543 -0.07897,-0.41439 l -0.209837,-0.13749 0.237859,-0.144651 c 0.393616,-0.2393714 0.59548,-0.5606061 0.59548,-0.9476101 0,-0.3798845 -0.146538,-0.57456 -0.496398,-0.659465 -0.472042,-0.1145566 -1.075527,0.4975296 -1.075527,1.0908565 v 0.2701727 h -0.705354 -0.705354 l 0.119663,-0.2275155 c 0.194564,-0.3699254 0.921158,-1.1344963 1.519484,-1.5989018 0.306638,-0.2380051 0.618414,-0.5003503 0.692835,-0.5829893 0.130074,-0.1444356 0.193274,-0.1346349 1.6324,0.253141 1.879988,0.5065673 2.500324,0.6159243 3.485826,0.614505 0.939092,-0.00135 1.529373,-0.1282134 2.17599,-0.4676549 0.612039,-0.3212899 0.902451,-0.655951 0.868823,-1.0012046 -0.02297,-0.2358062 -0.04928,-0.2567211 -0.314628,-0.2500654 -0.159261,0.00399 -0.728922,0.069147 -1.265914,0.1447825 C 25.7367,6.9289274 24.472591,6.8632048 21.362811,6.3691751 18.97501,5.9898414 17.850034,5.8845837 16.812503,5.9434283 c -1.488467,0.08442 -2.697364,0.5345046 -3.470813,1.29222 -0.511688,0.5012804 -0.69418,0.906346 -0.727601,1.6150087 -0.02291,0.4858792 0.0034,0.6321448 0.163697,0.9083754 0.583003,1.0049246 2.156706,0.9096406 3.133364,-0.1897181 0.458268,-0.5158403 0.839943,-1.3101889 0.729071,-1.517354 -0.04496,-0.084002 -0.106205,-0.1527314 -0.136108,-0.1527314 -0.0299,0 -0.245859,0.2008889 -0.479903,0.4464198 -0.75128,0.7881537 -1.576203,1.0338485 -1.935888,0.5765839 -0.288195,-0.3663802 -0.207801,-0.7874133 0.249888,-1.3086912 0.603774,-0.687661 1.668306,-0.9949683 3.218889,-0.9292233 0.878342,0.037242 2.153861,0.2122255 2.552492,0.3501669 0.06679,0.023111 -0.08324,0.1700086 -0.372298,0.3645156 -0.658715,0.4432566 -1.388644,1.1584301 -1.964915,1.9251949 -0.409238,0.5445171 -0.524887,0.6464618 -0.782113,0.6894385 -1.200803,0.200628 -1.997886,0.56127 -1.997886,0.90395 0,0.317038 0.144459,0.326379 0.698495,0.04517 0.314042,-0.1594 0.610227,-0.252997 0.748438,-0.236514 0.228608,0.02726 0.228412,0.02769 -0.374521,0.81324 -0.88292,1.150343 -1.914574,2.146178 -2.554134,2.465455 -0.960151,0.479321 -1.868254,0.331421 -2.195177,-0.357518 -0.295052,-0.621774 0.02354,-1.373518 0.790748,-1.865833 0.741796,-0.47601 0.443222,-0.946759 -0.435057,-0.685938 -0.580144,0.172284 -1.386096,0.961767 -1.587219,1.554783 -0.1611869,0.475267 -0.1797807,1.254684 -0.04098,1.71795 0.172741,0.576558 0.831601,1.200473 1.474094,1.395911 0.417944,0.127133 1.448763,0.08248 1.931701,-0.08367 z"
           id="path11297"
           inkscape:connector-curvature="0"
           transform="matrix(1.029843,0,0,0.98718855,665.64393,310.67876)" />
        <path
           style="fill:#4d4d4d;fill-opacity:1;stroke-width:0.08273288"
           d="M 19.708153,20.301006 C 12.752066,19.849536 6.4879741,17.876423 3.0900456,15.066504 2.2996564,14.412891 1.671843,13.649853 1.2818006,12.868783 0.97672238,12.257856 0.96915654,12.220578 0.96915654,11.328353 c 0,-0.887529 0.008958,-0.93243 0.30536236,-1.5305587 C 2.0204359,8.2925716 3.6075612,6.92164 6.0166715,5.7016042 12.153738,2.5936346 21.689811,1.4878392 30.173862,2.9003554 c 5.651567,0.9409337 10.247166,2.8568876 12.664602,5.2800071 0.70004,0.701686 0.892487,0.9541965 1.199627,1.5740401 0.360081,0.7266864 0.365826,0.7514644 0.365826,1.5778734 0,0.824235 -0.0066,0.853104 -0.362599,1.57824 -0.312313,0.63621 -0.484418,0.859413 -1.240993,1.609442 -0.521173,0.516664 -1.196808,1.081222 -1.661362,1.388227 -4.804795,3.175292 -13.314526,4.919591 -21.43081,4.392821 z m 5.46037,-0.821293 c 7.46165,-0.413196 14.100721,-2.600488 17.138977,-5.646565 0.872411,-0.874656 1.269089,-1.65544 1.269089,-2.497953 0,-0.865953 -0.341972,-1.5124946 -1.318374,-2.4925606 C 40.286276,6.8632977 36.567386,5.144048 32.076719,4.135708 22.516308,1.9890021 10.863881,3.3821009 4.7335025,7.4047093 c -1.0657669,0.699331 -2.28389,1.9235432 -2.6392381,2.6524317 -0.5068351,1.039617 -0.4317668,1.909929 0.2530553,2.933823 0.5047237,0.754624 1.2613654,1.455456 2.3787038,2.203251 4.5459159,3.042418 12.5582425,4.722096 20.4424995,4.285498 z"
           id="path11299"
           inkscape:connector-curvature="0"
           transform="matrix(1.029843,0,0,0.98718855,665.64393,310.67876)" />
        <path
           style="fill:#4d4d4d;fill-opacity:1;stroke-width:0.08273288"
           d="m 29.222434,14.766058 c -0.211563,-0.211563 -0.209513,-0.53793 0.007,-1.116652 0.208696,-0.557788 0.914869,-1.353654 1.392015,-1.568817 0.31594,-0.142469 0.343899,-0.142851 0.550443,-0.0075 0.193958,0.127086 0.212323,0.179996 0.16905,0.487035 -0.0267,0.189454 -0.06013,0.45615 -0.07428,0.59266 -0.03492,0.336773 -0.177856,0.57813 -0.626297,1.05755 -0.373878,0.399706 -0.875418,0.721206 -1.125081,0.721206 -0.07007,0 -0.201854,-0.07446 -0.292861,-0.165465 z"
           id="path11301"
           inkscape:connector-curvature="0"
           transform="matrix(1.029843,0,0,0.98718855,665.64393,310.67876)" />
        <path
           style="fill:#4d4d4d;fill-opacity:1;stroke-width:0.08273288"
           d="m 20.497324,9.5590783 c -0.06993,-0.1131551 0.121987,-0.502687 0.303072,-0.6151309 0.194401,-0.1207124 0.277416,-0.00823 0.184837,0.2504534 -0.09271,0.2590485 -0.40769,0.4944737 -0.487909,0.3646775 z"
           id="path11303"
           inkscape:connector-curvature="0"
           transform="matrix(1.029843,0,0,0.98718855,665.64393,310.67876)" />
      </g>
    </g>
  </g>
</svg>
