<?xml version="1.0" encoding="UTF-8" standalone="no"?>
<!-- Created with Inkscape (http://www.inkscape.org/) -->

<svg
   xmlns:dc="http://purl.org/dc/elements/1.1/"
   xmlns:cc="http://creativecommons.org/ns#"
   xmlns:rdf="http://www.w3.org/1999/02/22-rdf-syntax-ns#"
   xmlns:svg="http://www.w3.org/2000/svg"
   xmlns="http://www.w3.org/2000/svg"
   xmlns:sodipodi="http://sodipodi.sourceforge.net/DTD/sodipodi-0.dtd"
   xmlns:inkscape="http://www.inkscape.org/namespaces/inkscape"
   width="12mm"
   height="6mm"
   viewBox="0 0 12 6"
   version="1.1"
   id="svg9425"
   inkscape:version="0.92.2 (5c3e80d, 2017-08-06)"
   sodipodi:docname="great.svg">
  <defs
     id="defs9419" />
  <sodipodi:namedview
     id="base"
     pagecolor="#ffffff"
     bordercolor="#666666"
     borderopacity="1.0"
     inkscape:pageopacity="0.0"
     inkscape:pageshadow="2"
     inkscape:zoom="12.087093"
     inkscape:cx="30.628893"
     inkscape:cy="11.418982"
     inkscape:document-units="mm"
     inkscape:current-layer="g3031"
     showgrid="false"
     inkscape:window-width="1280"
     inkscape:window-height="961"
     inkscape:window-x="-8"
     inkscape:window-y="44"
     inkscape:window-maximized="1" />
  <metadata
     id="metadata9422">
    <rdf:RDF>
      <cc:Work
         rdf:about="">
        <dc:format>image/svg+xml</dc:format>
        <dc:type
           rdf:resource="http://purl.org/dc/dcmitype/StillImage" />
        <dc:title></dc:title>
      </cc:Work>
    </rdf:RDF>
  </metadata>
  <g
     inkscape:label="Layer 1"
     inkscape:groupmode="layer"
     id="layer1"
     transform="translate(0,-291)">
    <g
       transform="matrix(0.25691619,0,0,0.26801702,-60.975538,207.77202)"
       style="opacity:0.8"
       id="g2791">
      <g
         transform="translate(-428.30763,-0.14631344)"
         style="opacity:0.8"
         id="g4833">
        <g
           transform="matrix(1.1939555,0,0,1.1939555,437.49933,-142.72369)"
           style="opacity:0.8"
           id="g3031">
          <g
             transform="matrix(0.6870693,0,0,0.65861201,-64.425068,110.13514)"
             id="g4181">
            <path
               inkscape:connector-curvature="0"
               id="path4161"
               d="m 400.4,429.4 c 6.4,0 11.9,-4 11.9,-9 0,-5 -5.3,-9 -11.9,-9 0,0 0,0 0,0 -6.6,0 -11.9,4 -11.9,9 0,5 5.2,9 11.9,9 0,0 0,0 0,0 z m 0,-16.9 c 0,0 0.1,0 0.1,0 4.4,-0.1 10.4,3 10.2,8.2 -2,-1.1 -4.2,-1.9 -6.9,-2.2 v -2.7 h -3.3 -3.2 v 2.7 c -2.7,0.4 -5,1 -7,2.2 -0.1,-5.8 5.8,-8.2 10.1,-8.2 z m -10,10 c 2.3,-1.5 5.4,-2 8.7,-2.2 v -2.4 h 1.2 1.2 v 2.4 c 3.5,0.2 6.3,1 8.7,2.3 -0.1,0.4 -0.4,0.9 -0.6,1.2 -2.5,-1.5 -6,-2.3 -9.4,-2.3 -3.6,-0.1 -7.2,0.7 -9.4,2.2 -0.1,-0.4 -0.2,-0.8 -0.4,-1.2 z m 1.7,2.7 c 2.1,-1.1 5.2,-1.6 8.2,-1.6 3.2,0 6.3,0.7 8.2,1.8 -2.3,2.1 -5.3,3.2 -8.2,3.2 -3,0 -6,-1.1 -8.2,-3.4 z" />
            <path
               inkscape:connector-curvature="0"
               id="path4163"
               d="m 375.6,433.6 c 0,0.5 0.1,1.1 0.5,1.5 1,0.9 2.9,0.6 4.2,0.5 v -2.1 h -2.9 c 0,0.2 0.1,0.4 0.3,0.6 h 1.3 v 1.1 c -0.5,0 -0.9,-0.1 -1.3,-0.3 -1.2,-0.4 -1.3,-2 0.1,-2.5 0.8,-0.3 1.7,-0.1 2.6,0.1 v -0.9 c -2.5,0.2 -4.7,0 -4.8,2 z" />
            <path
               inkscape:connector-curvature="0"
               id="path4165"
               d="m 385,431.8 h -0.2 -1.3 -2.3 v 4 h 1.4 v -1.6 h 0.9 l 0.9,1.6 h 1.4 l -1,-1.7 c 0.6,-0.2 1,-0.8 1,-1.3 v -0.1 c 0,-0.3 -0.3,-0.7 -0.8,-0.9 z m -1,1.9 c -0.2,0 -0.3,0 -0.5,0 -0.3,0 -0.6,0 -0.9,0 v -1.1 h 0.9 0.5 c 0.6,0.1 0.5,0.9 0,1.1 z" />
            <path
               inkscape:connector-curvature="0"
               id="path4167"
               d="m 387.8,434 h 2.1 c 0.3,0 0.3,-0.4 0.4,-0.6 h -2.5 v -1 h 2.1 c 0.3,0 0.4,-0.4 0.5,-0.6 h -3.9 v 3.6 c 0,0.2 0.1,0.4 0.3,0.4 h 3.8 v -0.6 h -2.8 z" />
            <path
               inkscape:connector-curvature="0"
               id="path4169"
               d="m 393.9,431.8 h -1 l -1.7,4 h 1.4 l 0.3,-0.8 h 1 1 l 0.3,0.8 h 1.4 l -1.8,-4 z m 0,2.5 h -0.7 l 0.6,-1.4 h 0.1 0.2 l 0.6,1.4 z" />
            <path
               inkscape:connector-curvature="0"
               id="path4171"
               d="m 413.4,431.8 h -1 l -1.7,4 h 1.4 l 0.3,-0.8 h 1 1 l 0.3,0.8 h 1.4 l -1.8,-4 z m 0,2.5 h -0.7 l 0.6,-1.4 h 0.1 0.2 l 0.6,1.4 z" />
            <path
               inkscape:connector-curvature="0"
               id="path4173"
               d="m 396.2,432.5 h 1.6 v 3.2 h 1.4 v -3.2 h 1.3 c 0.3,0 0.5,-0.4 0.6,-0.7 h -5 v 0.7 z" />
            <polygon
               id="polygon4175"
               points="408.8,434.6 407.8,431.8 407.3,431.8 406.2,434.6 405.9,434.6 405.3,431.8 404.1,431.8 405.2,435.8 406.8,435.8 407.5,433.9 408.3,435.8 409.8,435.8 410.9,431.8 409.8,431.8 409.2,434.6 " />
            <path
               inkscape:connector-curvature="0"
               id="path4177"
               d="m 418.1,431.8 h -1.4 v 3.5 c 0,0.2 0.1,0.5 0.4,0.5 h 3.6 V 435 h -2.6 z" />
            <path
               inkscape:connector-curvature="0"
               id="path4179"
               d="m 422.5,431.8 h -1.4 v 3.5 c 0,0.3 0.1,0.5 0.4,0.5 h 3.6 V 435 h -2.6 z" />
          </g>
        </g>
      </g>
    </g>
  </g>
</svg>
