<?xml version="1.0" encoding="UTF-8" standalone="no"?>
<!-- Created with Inkscape (http://www.inkscape.org/) -->

<svg
   xmlns:dc="http://purl.org/dc/elements/1.1/"
   xmlns:cc="http://creativecommons.org/ns#"
   xmlns:rdf="http://www.w3.org/1999/02/22-rdf-syntax-ns#"
   xmlns:svg="http://www.w3.org/2000/svg"
   xmlns="http://www.w3.org/2000/svg"
   xmlns:sodipodi="http://sodipodi.sourceforge.net/DTD/sodipodi-0.dtd"
   xmlns:inkscape="http://www.inkscape.org/namespaces/inkscape"
   width="12mm"
   height="6mm"
   viewBox="0 0 12 6"
   version="1.1"
   id="svg9425"
   inkscape:version="0.92.2 (5c3e80d, 2017-08-06)"
   sodipodi:docname="honda.svg">
  <defs
     id="defs9419" />
  <sodipodi:namedview
     id="base"
     pagecolor="#ffffff"
     bordercolor="#666666"
     borderopacity="1.0"
     inkscape:pageopacity="0.0"
     inkscape:pageshadow="2"
     inkscape:zoom="6.0435465"
     inkscape:cx="31.151393"
     inkscape:cy="-1.0684241"
     inkscape:document-units="mm"
     inkscape:current-layer="g4833"
     showgrid="false"
     inkscape:window-width="1280"
     inkscape:window-height="961"
     inkscape:window-x="-8"
     inkscape:window-y="-8"
     inkscape:window-maximized="1" />
  <metadata
     id="metadata9422">
    <rdf:RDF>
      <cc:Work
         rdf:about="">
        <dc:format>image/svg+xml</dc:format>
        <dc:type
           rdf:resource="http://purl.org/dc/dcmitype/StillImage" />
        <dc:title></dc:title>
      </cc:Work>
    </rdf:RDF>
  </metadata>
  <g
     inkscape:label="Layer 1"
     inkscape:groupmode="layer"
     id="layer1"
     transform="translate(0,-291)">
    <g
       transform="matrix(0.25691619,0,0,0.26801702,-60.975538,207.77202)"
       style="opacity:0.8"
       id="g2791">
      <g
         transform="translate(-428.30763,-0.14631344)"
         style="opacity:0.8"
         id="g4833">
        <g
           transform="matrix(0.8176421,0,0,0.78377667,127.19596,200.11237)"
           id="g2271">
          <path
             inkscape:connector-curvature="0"
             d="m 676.4,155.7 c 0.1,0.6 0.3,1.2 0.5,1.7 0.1,0.3 0.3,0.6 0.5,0.9 0.4,0.5 0.9,0.9 1.5,1.2 0.3,0.1 0.5,0.2 0.8,0.3 0.7,0.2 1.5,0.3 2.2,0.4 0.7,0.1 1.4,0.1 2.2,0.1 1,0 2.1,0.1 2.9,0.1 0.9,0 1.5,0 2.2,0 0.9,0 1.8,-0.1 2.7,-0.1 0.7,0 1.3,-0.1 2,-0.2 0.5,-0.1 1.1,-0.2 1.6,-0.5 0.8,-0.4 1.5,-1 1.9,-1.8 0.2,-0.4 0.3,-0.7 0.4,-1.1 0.2,-0.7 0.3,-1.5 0.4,-2.2 0.1,-0.7 0.2,-1.5 0.3,-2.2 0.1,-0.7 0.1,-1.5 0.1,-2.2 0,-1.2 0,-2.4 -0.1,-3.5 0,-0.5 -0.1,-0.9 -0.3,-1.3 -0.2,-0.7 -0.6,-1.4 -1.3,-1.8 -0.4,-0.3 -0.8,-0.5 -1.3,-0.7 -0.6,-0.2 -1.3,-0.3 -1.9,-0.4 -0.8,-0.1 -1.6,-0.2 -2.4,-0.2 -0.8,0 -1.7,-0.1 -2.5,-0.1 -1.1,0 -2.2,0 -3.4,0 -1.3,0 -2.5,0.1 -3.8,0.2 -0.6,0.1 -1.3,0.1 -1.9,0.2 -0.5,0.1 -1,0.2 -1.5,0.4 -0.8,0.4 -1.5,0.9 -1.9,1.8 -0.2,0.5 -0.4,1 -0.4,1.5 -0.1,0.5 -0.1,1.1 -0.1,1.6 0,0.7 0,1.4 0,2.1 0,1.3 0.1,2.5 0.3,3.8 0,0.7 0.1,1.3 0.3,2 z m 0.5,-6.8 c 0,-0.6 0,-1.2 0.1,-1.8 0,-0.5 0.1,-1.1 0.2,-1.6 0.2,-0.7 0.5,-1.2 1.1,-1.6 0.3,-0.2 0.7,-0.4 1,-0.5 0.4,-0.1 0.8,-0.2 1.3,-0.3 0.6,-0.1 1.2,-0.1 1.8,-0.2 0.4,0 0.8,-0.1 1.3,-0.1 0.7,0 1.4,-0.1 2.1,-0.1 1,0 2,0 3.1,0 0.8,0 1.5,0.1 2.3,0.1 0.8,0 1.7,0.1 2.5,0.3 0.5,0.1 1.1,0.2 1.6,0.4 0.6,0.2 1.1,0.6 1.5,1.2 0.2,0.3 0.3,0.7 0.4,1.1 0.1,0.4 0.1,0.8 0.2,1.1 0.1,1.1 0.1,2.3 0.1,3.4 0,0.7 -0.1,1.4 -0.1,2 -0.1,0.6 -0.1,1.1 -0.2,1.7 -0.1,0.9 -0.3,1.8 -0.5,2.6 -0.1,0.3 -0.2,0.6 -0.4,0.9 -0.4,0.7 -0.9,1.2 -1.6,1.5 -0.4,0.2 -0.9,0.3 -1.4,0.4 -0.8,0.1 -1.6,0.2 -2.4,0.2 -1.1,0.1 -2.2,0.1 -3.3,0.1 -0.1,0 -0.2,0 -0.3,0 0,0 0,0 0,0 -1,0 -1.9,0 -2.9,-0.1 -0.7,0 -1.4,-0.1 -2.1,-0.1 -0.6,0 -1.2,-0.1 -1.7,-0.3 -0.3,-0.1 -0.6,-0.2 -0.8,-0.3 -0.7,-0.3 -1.2,-0.8 -1.5,-1.5 -0.2,-0.5 -0.4,-0.9 -0.5,-1.4 -0.2,-0.7 -0.3,-1.4 -0.4,-2 -0.1,-0.8 -0.2,-1.5 -0.2,-2.3 -0.3,-1 -0.3,-1.9 -0.3,-2.8 z"
             id="path2257" />
          <path
             inkscape:connector-curvature="0"
             d="m 671,164.2 c 0.1,0 0.1,0 0.2,0 0.2,0 0.3,0 0.5,0.1 0.2,0 0.3,0.1 0.3,0.3 0,0 0,0 0,0.1 0,0.3 0,0.5 0,0.8 0,0 0,0 0,0 -0.1,0 -2.8,0 -2.9,0 0,-0.1 0,-0.3 0,-0.4 0,-0.1 0,-0.3 0,-0.4 0,-0.2 0.1,-0.3 0.3,-0.3 0.1,0 0.2,0 0.3,0 0.1,0 0.3,0 0.4,0 0,-0.1 0,-0.2 0,-0.3 0,-0.1 0,-0.2 0,-0.3 -1.3,0 -2.5,0 -3.8,0 0,0.2 0,0.4 0,0.6 0.1,0 0.1,0 0.2,0 0.2,0 0.3,0 0.5,0.1 0.2,0 0.3,0.1 0.3,0.3 0,0.1 0,0.1 0,0.2 0,0.8 0,1.6 0,2.4 0,0.1 0,0.1 0,0.2 0,0.2 -0.1,0.3 -0.3,0.3 -0.2,0 -0.3,0 -0.5,0.1 -0.1,0 -0.1,0 -0.2,0 0,0.2 0,0.4 0,0.6 0.1,0 3.7,0 3.8,0 0,-0.2 0,-0.4 0,-0.6 -0.2,0 -0.4,0 -0.6,-0.1 -0.2,0 -0.3,-0.1 -0.4,-0.4 0,-0.3 0,-0.5 0,-0.8 0,0 0,0 0,0 0.2,0 2.8,0 2.9,0 0,0.2 0,0.5 0,0.8 0,0 0,0.1 0,0.1 0,0.2 -0.1,0.3 -0.3,0.3 -0.1,0 -0.2,0 -0.3,0 -0.1,0 -0.2,0 -0.4,0 0,0.2 0,0.4 0,0.6 1.3,0 2.5,0 3.8,0 0,-0.2 0,-0.4 0,-0.6 -0.1,0 -0.1,0 -0.2,0 -0.1,0 -0.3,0 -0.5,-0.1 -0.2,0 -0.3,-0.1 -0.3,-0.3 0,-0.1 0,-0.1 0,-0.2 0,-0.8 0,-1.6 0,-2.3 0,-0.1 0,-0.1 0,-0.2 0,-0.2 0.1,-0.3 0.3,-0.3 0.1,0 0.2,0 0.3,0 0.1,0 0.2,0 0.3,0 0,-0.2 0,-0.4 0,-0.6 -1.3,0 -2.5,0 -3.8,0 0.1,-0.1 0.1,0.1 0.1,0.3 z"
             id="path2259" />
          <path
             inkscape:connector-curvature="0"
             d="m 688.3,163.6 c 0,0.2 0,0.4 0,0.6 0,0 0,0 0.1,0 0.2,0 0.4,0 0.5,0.1 0.2,0 0.3,0.1 0.3,0.3 0,0 0,0.1 0,0.1 0,0.8 0,1.5 0,2.3 0,0 0,0 0,0.1 0,-0.1 -0.1,-0.1 -0.1,-0.1 -0.8,-1 -1.6,-2.1 -2.4,-3.1 -0.1,-0.2 -0.3,-0.2 -0.4,-0.2 0,0 -0.1,0 -0.1,0 -1,0 -2.1,0 -3.1,0 0,0 -0.1,0 -0.1,0 0,0.2 0,0.4 0,0.6 0,0 0.1,0 0.1,0 0.2,0 0.3,0 0.5,0.1 0.2,0 0.3,0.1 0.3,0.3 0,0.1 0,0.1 0,0.2 0,0.8 0,1.6 0,2.3 0,0 0,0.1 0,0.1 0,0.2 -0.1,0.3 -0.3,0.4 -0.1,0 -0.2,0 -0.3,0 -0.1,0 -0.2,0 -0.3,0 0,0.2 0,0.4 0,0.6 0.1,0 2.9,0 3,0 0,-0.1 0,-0.5 0,-0.6 -0.1,0 -0.1,0 -0.2,0 -0.1,0 -0.3,0 -0.4,-0.1 -0.2,0 -0.3,-0.1 -0.3,-0.3 0,0 0,-0.1 0,-0.1 0,-0.7 0,-1.4 0,-2.2 0,0 0,-0.1 0,-0.1 0,0 0,0 0,0 0,0 0.1,0.1 0.1,0.1 0.8,1 1.6,2.1 2.4,3.1 0.1,0.2 0.3,0.2 0.5,0.2 0.7,0 1.5,0 2.2,0 0,0 0.1,0 0.1,0 0,-0.1 0,-0.1 0,-0.2 0,-1.1 0,-2.2 0,-3.3 0,-0.1 0,-0.1 0,-0.2 0,-0.2 0.1,-0.3 0.3,-0.3 0.1,0 0.2,0 0.3,0 0.1,0 0.2,0 0.3,0 0,-0.2 0,-0.4 0,-0.6 -0.2,-0.2 -2.9,-0.2 -3,-0.1 z"
             id="path2261" />
          <path
             inkscape:connector-curvature="0"
             d="m 699.4,165.6 c -0.1,-0.6 -0.3,-1.1 -0.8,-1.5 -0.2,-0.2 -0.5,-0.3 -0.7,-0.4 -0.5,-0.2 -1,-0.2 -1.6,-0.3 -1.5,0 -3.1,0 -4.6,0 0,0 -0.1,0 -0.1,0 0,0.2 0,0.4 0,0.6 0.2,0 0.3,0 0.5,0.1 0.3,0 0.4,0.1 0.4,0.4 0,0.8 0,1.6 0,2.4 0,0.1 0,0.1 0,0.2 0,0.2 -0.1,0.3 -0.3,0.3 -0.1,0 -0.2,0 -0.3,0 -0.1,0 -0.2,0 -0.3,0 0,0.2 0,0.4 0,0.6 0.1,0 0.1,0 0.2,0 1.5,0 3,0 4.4,0 0.3,0 0.5,0 0.8,0 0.4,0 0.8,-0.1 1.2,-0.3 0.5,-0.3 0.9,-0.7 1.1,-1.2 0.1,-0.2 0.2,-0.5 0.1,-0.9 z m -2.2,1 c 0,0.1 -0.1,0.2 -0.1,0.4 -0.1,0.2 -0.4,0.4 -0.6,0.4 -0.1,0 -0.3,0 -0.4,0 -0.5,0 -1,0 -1.5,0 0,0 -0.1,0 -0.1,0 0,-1 0,-1.9 0,-2.9 0,0 0.1,0 0.1,0 0.5,0 1,0 1.5,0 0.2,0 0.4,0 0.5,0.1 0.3,0.1 0.4,0.3 0.6,0.5 0.1,0.2 0.1,0.5 0.1,0.8 0,0.1 0,0.4 -0.1,0.7 z"
             id="path2263" />
          <path
             inkscape:connector-curvature="0"
             d="m 681.8,164.1 c -0.3,-0.3 -0.7,-0.4 -1.2,-0.5 -0.6,-0.2 -1.2,-0.2 -1.8,-0.2 -0.6,0 -1.1,0 -1.6,0.2 -0.4,0.1 -0.8,0.2 -1.2,0.4 -0.7,0.4 -1.1,1.1 -1.1,1.9 0,0.8 0.3,1.5 1,1.9 0.2,0.1 0.4,0.2 0.6,0.3 0.5,0.2 1,0.3 1.5,0.3 0.8,0.1 1.5,0 2.3,-0.1 0.4,-0.1 0.8,-0.2 1.2,-0.4 0.7,-0.4 1.1,-1 1.1,-1.8 0.2,-0.8 -0.1,-1.5 -0.8,-2 z m -1.3,2.4 c -0.1,0.5 -0.4,0.8 -0.9,1 -0.5,0.1 -1,0.1 -1.4,0 -0.5,-0.1 -0.8,-0.5 -0.9,-1 0,-0.2 0,-0.4 -0.1,-0.6 0,-0.2 0,-0.4 0.1,-0.7 0.1,-0.5 0.4,-0.8 0.9,-0.9 0.5,-0.1 1,-0.1 1.4,0 0.5,0.1 0.8,0.4 0.9,1 0.1,0.4 0.1,0.8 0,1.2 z"
             id="path2265" />
          <path
             inkscape:connector-curvature="0"
             d="m 707,167.3 c -0.4,-0.5 -0.7,-1.1 -1.1,-1.6 -0.4,-0.6 -0.8,-1.2 -1.2,-1.8 -0.1,-0.2 -0.3,-0.3 -0.5,-0.3 -1.2,0 -2.3,0 -3.5,0 0,0 -0.1,0 -0.1,0 0,0.2 0,0.4 0,0.6 0,0 0.1,0 0.1,0 0.2,0 0.4,0.1 0.7,0.1 0.2,0 0.3,0.2 0.2,0.4 0,0 0,0.1 0,0.1 -0.5,0.9 -1.1,1.7 -1.6,2.6 0,0 0,0.1 -0.1,0.1 -0.1,0.1 -0.2,0.2 -0.3,0.2 -0.1,0 -0.2,0 -0.3,0 -0.1,0 -0.2,0 -0.4,0 0,0.2 0,0.4 0,0.6 0.2,0 2.9,0 3,0 0,-0.2 0,-0.4 0,-0.6 -0.1,0 -0.1,0 -0.2,0 -0.1,0 -0.2,0 -0.4,0 -0.2,0 -0.3,-0.2 -0.2,-0.4 0.1,-0.1 0.1,-0.2 0.2,-0.3 0,-0.1 0.1,-0.1 0.2,-0.1 0.9,0 1.8,0 2.7,0 0,0 0,0 0.1,0 0,0 0.1,0 0.1,0 0.1,0.1 0.2,0.2 0.2,0.4 0.1,0.1 0,0.3 -0.1,0.3 -0.1,0 -0.2,0 -0.3,0.1 -0.1,0 -0.3,0 -0.4,0 0,0.2 0,0.4 0,0.6 0,0 0,0 0,0 1.3,0 2.7,0 4,0 0,0 0,0 0.1,0 0,0 0,0 0,0 0,0 0,0 0,0 0,-0.2 0,-0.4 0,-0.6 -0.2,0 -0.4,-0.1 -0.5,-0.1 -0.1,-0.1 -0.3,-0.2 -0.4,-0.3 z m -4.9,-1.3 c 0.3,-0.5 0.6,-0.9 0.9,-1.4 0.1,0.1 0.9,1.2 0.9,1.4 -0.1,0 -1.6,0 -1.8,0 z"
             id="path2267" />
          <path
             inkscape:connector-curvature="0"
             d="m 680.4,144.8 c 0,0.4 0.1,0.8 0.1,1.2 0,0.7 0.1,1.3 0.1,2 0,0.5 0.1,1.1 0.1,1.6 0,0.6 0.1,1.3 0.1,1.9 0,0.5 0.1,1 0.1,1.5 0,0.7 0.1,1.4 0.1,2.1 0,0.6 0.1,1.1 0.1,1.7 0.1,0.7 0.1,1.3 0.2,2 0,0.1 0,0.1 0,0.2 0.4,0.1 1.9,0.2 2.3,0.2 0,0 0,-0.1 0,-0.2 0.2,-0.7 0.4,-1.4 0.6,-2.1 0.1,-0.4 0.3,-0.8 0.4,-1.1 0.2,-0.5 0.6,-0.7 1.1,-0.8 0.4,-0.1 0.9,-0.1 1.3,-0.1 0.4,0 0.9,0 1.3,0.1 0.5,0.1 0.8,0.3 1.1,0.8 0,0.1 0.1,0.2 0.1,0.3 0.2,0.4 0.3,0.7 0.4,1.1 0.2,0.6 0.3,1.3 0.5,1.9 0,0 0,0.1 0,0.1 0.4,0 2.1,-0.1 2.3,-0.2 0.4,-5.1 0.7,-10.1 1.1,-15.2 -0.5,-0.1 -1,-0.1 -1.6,-0.1 0,0 0,0.1 0,0.1 -0.2,1 -0.4,1.9 -0.6,2.9 -0.3,1.4 -0.7,2.8 -1,4.2 -0.1,0.4 -0.3,0.9 -0.5,1.3 -0.4,0.8 -1,1.3 -1.9,1.4 -0.3,0 -0.7,0.1 -1,0.1 -0.5,0 -1,0 -1.5,-0.1 -0.6,-0.1 -1.1,-0.4 -1.5,-0.9 -0.2,-0.2 -0.3,-0.5 -0.4,-0.8 -0.2,-0.5 -0.3,-1 -0.5,-1.5 -0.5,-2 -1,-4.1 -1.4,-6.1 0,-0.2 -0.1,-0.4 -0.1,-0.5 -0.5,0 -1,0 -1.6,0.1 0,0 0,0.1 0,0.1 0.2,0.1 0.2,0.5 0.2,0.8 z"
             id="path2269" />
        </g>
      </g>
    </g>
  </g>
</svg>
