<?xml version="1.0" encoding="UTF-8" standalone="no"?>
<!-- Created with Inkscape (http://www.inkscape.org/) -->

<svg
   xmlns:dc="http://purl.org/dc/elements/1.1/"
   xmlns:cc="http://creativecommons.org/ns#"
   xmlns:rdf="http://www.w3.org/1999/02/22-rdf-syntax-ns#"
   xmlns:svg="http://www.w3.org/2000/svg"
   xmlns="http://www.w3.org/2000/svg"
   xmlns:sodipodi="http://sodipodi.sourceforge.net/DTD/sodipodi-0.dtd"
   xmlns:inkscape="http://www.inkscape.org/namespaces/inkscape"
   width="12mm"
   height="6mm"
   viewBox="0 0 12 6"
   version="1.1"
   id="svg9425"
   inkscape:version="0.92.2 (5c3e80d, 2017-08-06)"
   sodipodi:docname="hynday.svg">
  <defs
     id="defs9419" />
  <sodipodi:namedview
     id="base"
     pagecolor="#ffffff"
     bordercolor="#666666"
     borderopacity="1.0"
     inkscape:pageopacity="0.0"
     inkscape:pageshadow="2"
     inkscape:zoom="12.087093"
     inkscape:cx="17.1848"
     inkscape:cy="4.8003514"
     inkscape:document-units="mm"
     inkscape:current-layer="g4833"
     showgrid="false"
     inkscape:window-width="1280"
     inkscape:window-height="961"
     inkscape:window-x="-8"
     inkscape:window-y="44"
     inkscape:window-maximized="1" />
  <metadata
     id="metadata9422">
    <rdf:RDF>
      <cc:Work
         rdf:about="">
        <dc:format>image/svg+xml</dc:format>
        <dc:type
           rdf:resource="http://purl.org/dc/dcmitype/StillImage" />
        <dc:title></dc:title>
      </cc:Work>
    </rdf:RDF>
  </metadata>
  <g
     inkscape:label="Layer 1"
     inkscape:groupmode="layer"
     id="layer1"
     transform="translate(0,-291)">
    <g
       transform="matrix(0.25691619,0,0,0.26801702,-60.975538,207.77202)"
       style="opacity:0.8"
       id="g2791">
      <g
         transform="translate(-428.30763,-0.14631344)"
         style="opacity:0.8"
         id="g4833">
        <path
           style="opacity:0.8;stroke-width:1.2913183"
           d="m 676.07243,316.30917 c -0.65946,1.01143 -0.92325,2.14929 -0.52758,3.28716 0.26379,1.01143 0.92325,1.64358 1.71461,2.27573 1.05513,0.885 2.24216,1.51715 3.42919,1.89643 2.50595,0.88502 5.01189,1.2643 7.64974,1.39073 1.31892,0 2.50595,0 3.82486,-0.12641 1.31893,-0.1264 2.63785,-0.37928 3.82488,-0.75857 1.58271,-0.37929 3.16541,-1.01143 4.61622,-2.02287 0.92325,-0.63215 1.71461,-1.26429 2.24217,-2.14929 0.52757,-0.88502 0.79135,-1.77002 0.52757,-2.78146 -0.13189,-0.75857 -0.65946,-1.51714 -1.18703,-2.14929 -0.92325,-0.88501 -1.97838,-1.51716 -3.16541,-2.1493 -1.45081,-0.63214 -2.90163,-1.01143 -4.35243,-1.39073 -1.05515,-0.25285 -2.11028,-0.37928 -3.16542,-0.37928 -0.26379,0 -0.52756,0 -0.65946,0 -0.79135,0 -1.58271,0 -2.37406,0 0,0 -0.13189,0 -0.13189,0 -0.39567,0 -0.79136,0 -1.18703,0.12641 -1.31892,0.1264 -2.50595,0.25285 -3.69298,0.63214 -1.71459,0.37929 -3.2973,1.01143 -4.74811,1.89644 -1.18703,0.75858 -1.97838,1.39072 -2.63784,2.40216 z m 16.35461,4.67788 c -0.13189,1.13787 -0.79134,2.02287 -1.5827,2.78144 -0.26379,0.25286 -0.79135,0.37929 -1.18703,0.37929 -0.26379,0 -0.65946,0 -0.79135,0 -1.05514,0 -1.97839,-0.1264 -3.03352,-0.25286 -0.92324,-0.1264 -1.97839,-0.25286 -2.90163,-0.50571 -0.39567,-0.1264 -0.65946,-0.25286 -0.92324,-0.25286 -0.26378,-0.1264 -0.26378,-0.25286 0,-0.37929 2.11027,-1.64358 4.48433,-2.65501 6.99028,-3.16073 0.65946,-0.12641 1.31892,-0.25286 1.97839,-0.25286 0.52756,0 1.05513,0.1264 1.31891,0.63215 0.13189,0.25286 0.13189,0.63214 0.13189,1.01143 z m 6.46271,-5.18359 c 0.1319,-0.25287 0.26379,-0.3793 0.39569,-0.63216 0.13188,-0.25286 0.26378,-0.37929 0.52756,-0.25286 1.31893,0.63215 2.11027,1.64359 2.37406,3.03431 0,0.12641 0,0.25285 0,0.25285 0,0.75859 -0.26379,1.39073 -0.65946,1.89645 -0.65946,0.75857 -1.45082,1.26428 -2.24216,1.77001 -1.45082,0.75857 -3.03352,1.26429 -4.74812,1.64358 -0.13189,0 -0.26379,0 -0.26379,0 0,-0.1264 0,-0.1264 0,-0.25286 0.26379,-0.25286 0.39569,-0.63215 0.65947,-0.885 0.79135,-1.01145 1.4508,-2.1493 2.11026,-3.28716 0.65947,-1.01145 1.31893,-2.14931 1.84649,-3.28716 z m -11.21082,-2.5286 c 0.52757,-0.50572 1.18703,-0.75857 1.84649,-0.75857 1.84649,0 3.69298,0.12641 5.40758,0.63214 0.52756,0.12641 0.92325,0.25287 1.4508,0.3793 0.1319,0 0.26379,0.1264 0.39569,0.25285 0.13189,0.1264 0.13189,0.25286 0,0.37929 -0.1319,0.1264 -0.1319,0.1264 -0.26379,0.25286 -1.84648,1.13786 -3.82487,2.02287 -5.93515,2.65501 -0.79134,0.25286 -1.5827,0.50572 -2.50595,0.50572 -0.39567,0 -0.65945,0 -1.05513,-0.1264 -0.52757,-0.25287 -0.65945,-0.63215 -0.65945,-1.2643 0.26377,-1.13786 0.52755,-2.1493 1.31891,-2.90787 z m -3.95676,-0.1264 c 0.26378,-0.12641 0.52757,-0.12641 0.92324,-0.12641 0.26379,0 0.26379,0.12641 0.13189,0.25287 -0.39567,0.50571 -0.79135,1.01143 -1.18702,1.51714 -1.45081,1.89645 -2.63785,3.91932 -3.56109,6.06861 -0.13189,0.25287 -0.13189,0.3793 -0.26379,0.63214 -0.13188,0.25287 -0.39567,0.25287 -0.65945,0.25287 -0.39568,-0.12641 -0.65946,-0.3793 -0.92325,-0.63214 -0.52757,-0.50573 -1.18703,-1.13787 -1.45081,-1.89645 -0.13189,-0.25285 -0.13189,-0.63214 -0.26379,-0.88501 0,0 0,0 0,0 0,-0.75857 0.39568,-1.39072 0.92324,-2.02286 0.52758,-0.63214 1.31893,-1.13787 2.11028,-1.64358 1.31893,-0.63215 2.76973,-1.13786 4.22055,-1.51715 z"
           id="path4293"
           inkscape:connector-curvature="0" />
        <path
           style="opacity:0.8;stroke-width:1.2913183"
           d="m 698.49408,327.18209 c -0.13189,0 -0.26379,0 -0.26379,0 -1.31891,0 -2.63783,0 -3.95676,0 0,0 -0.13189,0 -0.13189,0 0,0.1264 0,0.1264 0,0.25286 0,1.64358 0,3.16073 0,4.80432 0,0 0,0.1264 0,0.25284 1.45082,0 2.90162,0 4.48434,0 0,0 0.13189,0 0.13189,0 0.39567,-0.1264 0.52757,-0.37928 0.65945,-0.63214 0,-0.1264 0,-0.25286 0,-0.37929 0,-0.63214 0,-1.26429 0,-1.89644 0,-0.37929 0,-0.75857 0,-1.13786 0,-0.885 -0.26378,-1.13786 -0.92324,-1.26429 z m -0.65946,3.41359 c 0,0.37929 -0.13189,0.50572 -0.52757,0.50572 -0.52756,0 -1.05513,0 -1.5827,0 0,-0.88501 0,-1.77002 0,-2.65502 0.52757,0 1.05514,0 1.7146,0 0.26378,0 0.26378,0.12641 0.39567,0.37929 0,0.12641 0,0.12641 0,0.25286 0,0.37928 0,1.01144 0,1.51715 0,0 0,0 0,0 z"
           id="path4295"
           inkscape:connector-curvature="0" />
        <path
           style="opacity:0.8;stroke-width:1.2913183"
           d="m 705.22058,327.43495 c 0,0 0,-0.12641 0,-0.12641 -0.13189,0 -0.13189,0 -0.13189,0 -1.18703,0 -2.50596,0 -3.69298,0 0,0 -0.1319,0 -0.1319,0 -0.65946,0 -1.05513,0.50572 -1.05513,1.13787 0,1.39072 0,2.65502 0,4.04573 0.52756,0 1.05513,0 1.5827,0 0,-0.37928 0,-0.75857 0,-1.13786 0.65946,0 1.31892,0 2.11028,0 0,0.37929 0,0.75858 0,1.13786 0.52756,0 1.05513,0 1.5827,0 0,0 0,-0.12641 0,-0.12641 -0.26378,-1.77001 -0.26378,-3.41359 -0.26378,-4.93074 z m -1.45082,2.52859 c -0.65946,0 -1.31892,0 -2.11027,0 0,-0.3793 0,-0.75859 0,-1.13787 0,-0.25286 0.13189,-0.37929 0.39568,-0.37929 0.39567,0 0.79135,0 1.18703,0 0.13189,0 0.26377,0 0.52756,0 0,0.50572 0,1.01143 0,1.51716 z"
           id="path4297"
           inkscape:connector-curvature="0" />
        <path
           style="opacity:0.8;stroke-width:1.2913183"
           d="m 687.28326,327.18209 c -0.39569,0 -0.79136,0 -1.31893,0 -0.13189,0 -0.13189,0 -0.13189,0.1264 0,1.13786 0,2.27573 0,3.41359 0,0.25286 -0.1319,0.3793 -0.39567,0.3793 -0.52757,0 -1.05514,0 -1.45082,0 0,0 -0.1319,0 -0.1319,0 0,-1.2643 0,-2.65503 0,-3.91932 -0.52755,0 -1.05513,0 -1.5827,0 0,0.1264 0,0.1264 0,0.25286 0,1.01143 0,2.02287 0,3.0343 0,0.63216 0,1.2643 0,2.02287 1.45082,0 3.03352,0 4.48434,0 0,0 0,0 0,0 0.39567,-0.12641 0.65946,-0.37928 0.65946,-0.75857 0,-0.12641 0,-0.25286 0,-0.3793 0,-1.26428 0,-2.52857 0,-3.79287 0,0 0,-0.1264 0,-0.1264 0,-0.25286 0,-0.25286 -0.13189,-0.25286 z"
           id="path4299"
           inkscape:connector-curvature="0" />
        <path
           style="opacity:0.8;stroke-width:1.2913183"
           d="m 693.48218,329.33138 c 0,-0.37928 0,-0.75857 0,-1.13786 0,-0.37928 -0.26378,-0.75857 -0.65945,-0.75857 -0.26379,0 -0.39569,-0.12641 -0.65948,-0.12641 -1.31891,0 -2.50594,0 -3.82486,0 0,0 -0.13189,0 -0.13189,0 0,0 0,0.12641 0,0.12641 0,0.37929 0,0.885 0,1.26429 0,1.2643 0,2.40216 0,3.66646 0.52756,0 1.05513,0 1.58271,0 0,-1.2643 0,-2.52859 0,-3.91932 0,0 0,0 0,0 0,0 0,0 0.13188,0 0.52758,0 1.05515,0 1.58271,0 0.26378,0 0.39568,0.12641 0.39568,0.37929 0,1.13787 0,2.40216 0,3.54003 0,0 0,0 0,0.1264 0.52756,0 1.05513,0 1.71459,0 0,0 0,0 0,-0.1264 -0.13189,-1.13787 -0.13189,-2.02288 -0.13189,-3.03432 z"
           id="path4301"
           inkscape:connector-curvature="0" />
        <path
           style="opacity:0.8;stroke-width:1.2913183"
           d="m 674.22594,327.18209 c -0.13189,0 -0.13189,0.1264 -0.13189,0.1264 0,0.50572 0,0.885 0,1.39073 0,0.1264 0,0.25286 0,0.25286 -0.65947,0 -1.31893,0 -2.11027,0 0,-0.63216 0,-1.2643 0,-1.89645 -0.1319,0 -0.1319,0 -0.1319,0 -0.39568,0 -0.92325,0 -1.31892,0 0,1.77002 0,3.41359 0,5.18361 0.52757,0 1.05513,0 1.5827,0 0,-0.63215 0,-1.39073 0,-2.02288 0.65946,0 1.31892,0 2.11028,0 0,0.63215 0,1.39073 0,2.02288 0.52757,0 1.05513,0 1.5827,0 0,0 0,0 0,0 0,-1.64359 0,-3.28716 0,-5.05718 0,0 0,-0.12641 0,-0.12641 -0.52757,0.12641 -1.05513,0.12641 -1.5827,0.12641 z"
           id="path4303"
           inkscape:connector-curvature="0" />
        <path
           style="opacity:0.8;stroke-width:1.2913183"
           d="m 680.55676,327.18209 c 0,0 -0.1319,0 -0.1319,0.1264 -0.39567,0.50572 -0.79134,1.01143 -1.18703,1.64359 0,0 0,0.1264 -0.13188,0.1264 0,0 -0.13189,-0.1264 -0.13189,-0.1264 -0.39569,-0.50573 -0.65947,-1.01144 -1.05514,-1.51716 0,-0.1264 -0.13189,-0.1264 -0.13189,-0.1264 -0.52757,0 -0.92325,0 -1.45082,0 0,0 -0.13188,0 -0.26378,0 0,0.1264 0.1319,0.1264 0.1319,0.1264 0.52756,0.885 1.18701,1.64359 1.71459,2.52859 0.26378,0.37928 0.39567,0.63214 0.39567,1.13787 0,0.50571 0,0.885 0,1.39071 0.52757,0 1.05514,0 1.58271,0 0,-0.63214 0,-1.26428 0,-1.89644 0,-0.1264 0,-0.1264 0.13189,-0.25286 0.65946,-1.01143 1.45082,-1.89644 2.11028,-2.90787 0,0 0,-0.1264 0.13188,-0.1264 0,0 0,0 0,0 -0.79134,-0.12641 -1.31892,-0.12641 -1.71459,-0.12641 z"
           id="path4305"
           inkscape:connector-curvature="0" />
        <path
           style="opacity:0.8;stroke-width:1.2913183"
           d="m 706.01193,327.43495 c 0,1.64358 0,3.16073 0,4.80432 0,0 0,0.1264 0,0.25284 0.52756,0 1.05514,0 1.45081,0 0,-1.77 0,-3.41358 0,-5.18359 -0.39567,0 -0.92325,0 -1.31892,0 -0.13189,-0.12641 -0.13189,-0.12641 -0.13189,0.1264 z"
           id="path4307"
           inkscape:connector-curvature="0" />
      </g>
    </g>
  </g>
</svg>
