<?xml version="1.0" encoding="UTF-8" standalone="no"?>
<!-- Created with Inkscape (http://www.inkscape.org/) -->

<svg
   xmlns:dc="http://purl.org/dc/elements/1.1/"
   xmlns:cc="http://creativecommons.org/ns#"
   xmlns:rdf="http://www.w3.org/1999/02/22-rdf-syntax-ns#"
   xmlns:svg="http://www.w3.org/2000/svg"
   xmlns="http://www.w3.org/2000/svg"
   xmlns:sodipodi="http://sodipodi.sourceforge.net/DTD/sodipodi-0.dtd"
   xmlns:inkscape="http://www.inkscape.org/namespaces/inkscape"
   width="12mm"
   height="6mm"
   viewBox="0 0 12 6"
   version="1.1"
   id="svg9425"
   inkscape:version="0.92.2 (5c3e80d, 2017-08-06)"
   sodipodi:docname="infinity.svg">
  <defs
     id="defs9419" />
  <sodipodi:namedview
     id="base"
     pagecolor="#ffffff"
     bordercolor="#666666"
     borderopacity="1.0"
     inkscape:pageopacity="0.0"
     inkscape:pageshadow="2"
     inkscape:zoom="12.087093"
     inkscape:cx="30.628893"
     inkscape:cy="4.8003514"
     inkscape:document-units="mm"
     inkscape:current-layer="layer1"
     showgrid="false"
     inkscape:window-width="1280"
     inkscape:window-height="961"
     inkscape:window-x="-8"
     inkscape:window-y="44"
     inkscape:window-maximized="1" />
  <metadata
     id="metadata9422">
    <rdf:RDF>
      <cc:Work
         rdf:about="">
        <dc:format>image/svg+xml</dc:format>
        <dc:type
           rdf:resource="http://purl.org/dc/dcmitype/StillImage" />
        <dc:title></dc:title>
      </cc:Work>
    </rdf:RDF>
  </metadata>
  <g
     inkscape:label="Layer 1"
     inkscape:groupmode="layer"
     id="layer1"
     transform="translate(0,-291)">
    <g
       transform="matrix(0.31513357,0,0,0.31483999,-194.51949,245.08961)"
       style="opacity:0.8"
       id="g2255">
      <polygon
         points="629.2,163.8 629.2,163.5 628.6,163.5 628.6,163 629.2,163 629.2,162.7 628.2,162.7 628.2,164.7 628.6,164.7 628.6,163.8 "
         id="polygon2237" />
      <rect
         x="644.40002"
         y="162.7"
         width="0.40000001"
         height="2"
         id="rect2239" />
      <polygon
         points="650.4,163 650.4,162.7 649.1,162.7 649.1,163 649.6,163 649.6,164.7 649.9,164.7 649.9,163 "
         id="polygon2241" />
      <rect
         x="617.5"
         y="162.7"
         width="0.40000001"
         height="2"
         id="rect2243" />
      <polygon
         points="639.5,164.2 639,162.7 638.6,162.7 638.6,164.7 638.9,164.7 638.9,163.2 639.4,164.7 639.8,164.7 639.8,162.7 639.5,162.7 "
         id="polygon2245" />
      <rect
         x="654.70001"
         y="162.7"
         width="0.40000001"
         height="2"
         id="rect2247" />
      <rect
         x="633.59998"
         y="162.7"
         width="0.40000001"
         height="2"
         id="rect2249" />
      <polygon
         points="623.3,164.2 622.8,162.7 622.4,162.7 622.4,164.7 622.7,164.7 622.7,163.2 623.2,164.7 623.7,164.7 623.7,162.7 623.3,162.7 "
         id="polygon2251" />
      <path
         d="m 636.3,146 c -7.9,0 -14.3,3.2 -14.3,7.2 0,3.2 4.2,5.9 10,6.9 l 4.3,-10.3 4.3,10.3 c 5.8,-0.9 10,-3.6 10,-6.9 0,-4 -6.4,-7.2 -14.3,-7.2 z m 6.6,10.8 -6.6,-7.6 -6.6,7.6 c -3.2,-0.9 -5.4,-2.5 -5.4,-4.4 0,-3.1 5.3,-5.9 11.9,-5.9 6.6,0 12,2.9 12,5.9 0.1,1.9 -2.1,3.5 -5.3,4.4 z"
         id="path2253"
         inkscape:connector-curvature="0" />
    </g>
  </g>
</svg>
