<?xml version="1.0" encoding="UTF-8" standalone="no"?>
<!-- Created with Inkscape (http://www.inkscape.org/) -->

<svg
   xmlns:dc="http://purl.org/dc/elements/1.1/"
   xmlns:cc="http://creativecommons.org/ns#"
   xmlns:rdf="http://www.w3.org/1999/02/22-rdf-syntax-ns#"
   xmlns:svg="http://www.w3.org/2000/svg"
   xmlns="http://www.w3.org/2000/svg"
   xmlns:sodipodi="http://sodipodi.sourceforge.net/DTD/sodipodi-0.dtd"
   xmlns:inkscape="http://www.inkscape.org/namespaces/inkscape"
   width="12mm"
   height="6mm"
   viewBox="0 0 12 6"
   version="1.1"
   id="svg9425"
   inkscape:version="0.92.2 (5c3e80d, 2017-08-06)"
   sodipodi:docname="kia.svg">
  <defs
     id="defs9419" />
  <sodipodi:namedview
     id="base"
     pagecolor="#ffffff"
     bordercolor="#666666"
     borderopacity="1.0"
     inkscape:pageopacity="0.0"
     inkscape:pageshadow="2"
     inkscape:zoom="12.087093"
     inkscape:cx="30.628893"
     inkscape:cy="4.8003514"
     inkscape:document-units="mm"
     inkscape:current-layer="layer1"
     showgrid="false"
     inkscape:window-width="1280"
     inkscape:window-height="961"
     inkscape:window-x="-8"
     inkscape:window-y="44"
     inkscape:window-maximized="1" />
  <metadata
     id="metadata9422">
    <rdf:RDF>
      <cc:Work
         rdf:about="">
        <dc:format>image/svg+xml</dc:format>
        <dc:type
           rdf:resource="http://purl.org/dc/dcmitype/StillImage" />
        <dc:title></dc:title>
      </cc:Work>
    </rdf:RDF>
  </metadata>
  <g
     inkscape:label="Layer 1"
     inkscape:groupmode="layer"
     id="layer1"
     transform="translate(0,-291)">
    <g
       transform="matrix(0.32543019,0,0,0.33846676,-30.415482,184.60754)"
       style="opacity:0.8"
       id="g2715">
      <path
         d="m 111.9,331.9 c 9.3,0 16.9,-3.9 16.9,-8.7 0,-4.8 -7.6,-8.7 -16.9,-8.7 -9.3,0 -16.9,3.9 -16.9,8.7 -0.1,4.8 7.6,8.7 16.9,8.7 z m 0,-15.3 c 8.6,0 15.6,3 15.6,6.6 0,3.6 -7,6.6 -15.6,6.6 -8.6,0 -15.6,-3 -15.6,-6.6 0,-3.6 7,-6.6 15.6,-6.6 z"
         id="path2707"
         inkscape:connector-curvature="0" />
      <polygon
         points="117.6,319.4 117.9,319.4 115.6,327.3 117.9,327.3 119.5,321.6 121.2,327.3 123.5,327.3 121.1,319.1 120.2,319.1 118.8,319.1 117.6,319.1 "
         id="polygon2709" />
      <path
         d="m 101.6,327.3 h 2.3 v -3.6 l 2.6,3.4 h 2.6 l -3.1,-4.1 2.6,-3.8 H 106 l -2.1,3.1 v -3.1 h -2.3 v 0 h -0.4 v 0.3 c 0.1,0 0.3,0 0.4,0.1 z"
         id="path2711"
         inkscape:connector-curvature="0" />
      <path
         d="m 111,327.3 h 2.3 v -8.1 H 111 v 0 h -0.4 v 0.3 c 0.1,0 0.3,0 0.4,0.1 z"
         id="path2713"
         inkscape:connector-curvature="0" />
    </g>
  </g>
</svg>
