<?xml version="1.0" encoding="UTF-8" standalone="no"?>
<!-- Created with Inkscape (http://www.inkscape.org/) -->

<svg
   xmlns:dc="http://purl.org/dc/elements/1.1/"
   xmlns:cc="http://creativecommons.org/ns#"
   xmlns:rdf="http://www.w3.org/1999/02/22-rdf-syntax-ns#"
   xmlns:svg="http://www.w3.org/2000/svg"
   xmlns="http://www.w3.org/2000/svg"
   xmlns:sodipodi="http://sodipodi.sourceforge.net/DTD/sodipodi-0.dtd"
   xmlns:inkscape="http://www.inkscape.org/namespaces/inkscape"
   width="12mm"
   height="6mm"
   viewBox="0 0 12 6"
   version="1.1"
   id="svg9425"
   inkscape:version="0.92.2 (5c3e80d, 2017-08-06)"
   sodipodi:docname="lexus.svg">
  <defs
     id="defs9419" />
  <sodipodi:namedview
     id="base"
     pagecolor="#ffffff"
     bordercolor="#666666"
     borderopacity="1.0"
     inkscape:pageopacity="0.0"
     inkscape:pageshadow="2"
     inkscape:zoom="12.087093"
     inkscape:cx="30.628893"
     inkscape:cy="4.8003514"
     inkscape:document-units="mm"
     inkscape:current-layer="layer1"
     showgrid="false"
     inkscape:window-width="1280"
     inkscape:window-height="961"
     inkscape:window-x="-8"
     inkscape:window-y="44"
     inkscape:window-maximized="1" />
  <metadata
     id="metadata9422">
    <rdf:RDF>
      <cc:Work
         rdf:about="">
        <dc:format>image/svg+xml</dc:format>
        <dc:type
           rdf:resource="http://purl.org/dc/dcmitype/StillImage" />
        <dc:title></dc:title>
      </cc:Work>
    </rdf:RDF>
  </metadata>
  <g
     inkscape:label="Layer 1"
     inkscape:groupmode="layer"
     id="layer1"
     transform="translate(0,-291)">
    <g
       transform="matrix(0.34752496,0,0,0.38848405,-182.66066,219.1197)"
       style="opacity:0.8"
       id="g2289">
      <path
         d="m 540.5,190 c -0.4,0.7 -0.5,1 -0.5,1.2 0,0.2 0,0.6 0.3,0.9 0.6,0.5 1.4,0.4 2.1,0.4 h 5.9 c 0.3,0 0.3,-0.1 0.5,-0.3 0.5,-0.7 0.7,-1.5 0.7,-2.2 0,-1.5 -1,-3.4 -3.5,-4.2 l -0.3,0.4 c 2,0.9 2.8,2.1 2.8,3.8 0,0.5 -0.1,0.9 -0.4,1.4 h -5.8 c -0.3,0 -0.4,-0.4 -0.3,-0.6 0.5,-0.9 1,-1.7 1.7,-2.5 0.6,-0.8 1.2,-1.5 1.8,-2.3 0.2,-0.2 0.1,-0.4 -0.3,-0.5 -0.7,-0.1 -1.4,-0.2 -2.2,-0.2 -4.7,0 -6.5,2.7 -6.5,4.7 0,2.2 1.7,4.7 6.5,4.7 2.6,0 4.3,-0.8 5.3,-1.9 h -1 c -0.9,0.8 -2.4,1.4 -4.3,1.4 -4,0 -5.5,-2.2 -5.5,-4.2 0,-1.7 1.6,-4.1 5.6,-4.2 0.2,0 0.3,0.1 0.2,0.3 -0.7,0.9 -2.6,3.6 -2.8,3.9 z"
         id="path2285"
         inkscape:connector-curvature="0" />
      <path
         d="m 558.3,197.8 h -3.8 c 0.1,-0.5 0.4,-0.8 0.9,-0.8 h 3.8 v -0.8 h -4.1 c -1.3,0 -2.3,1.1 -2.4,2.3 0,0.1 0.1,0.1 0.2,0.1 h 4.6 c 0.2,0 0.4,0.2 0.4,0.4 0,0.2 -0.2,0.4 -0.5,0.4 h -5.1 v -3.3 h -1.5 v 3.3 H 548 c -0.7,0 -0.9,-0.5 -0.9,-0.9 V 196 h -2.5 c -0.2,0.2 -0.5,0.3 -0.7,0.5 l -1.5,0.9 -1.9,-1.4 h -3 -2.8 c -0.8,0 -1.3,0.2 -1.8,0.5 -0.8,0.6 -1,1.3 -1,1.6 h 1 c -0.4,0.3 -0.7,0.7 -0.9,1.2 h -3.3 c -0.6,0 -1,-0.4 -1,-0.8 V 196 h -1.5 v 2.6 c 0,0.9 0.9,1.6 2.3,1.6 h 9 2.2 c 0.2,-0.2 0.5,-0.3 0.7,-0.5 l 1.5,-0.9 1.9,1.4 h 2.2 l -2.9,-2.2 1.5,-1 c 0.3,-0.2 0.6,-0.4 1,-0.6 v 2.2 c 0,0.9 0.2,1.6 2.1,1.6 h 10.5 c 0.8,0 1.3,-0.5 1.3,-1.2 0.2,-0.7 -0.4,-1.2 -1.2,-1.2 z m -18.8,1.6 h -1.9 -3.6 c 0,-0.4 0.5,-0.9 0.9,-0.9 h 2.7 0.7 v -0.9 h -0.7 -3.6 c 0,-0.2 0.4,-0.7 0.8,-0.7 h 2.8 1.1 v -0.5 l 2.5,1.8 z"
         id="path2287"
         inkscape:connector-curvature="0" />
    </g>
  </g>
</svg>
