<?xml version="1.0" encoding="UTF-8" standalone="no"?>
<!-- Created with Inkscape (http://www.inkscape.org/) -->

<svg
   xmlns:dc="http://purl.org/dc/elements/1.1/"
   xmlns:cc="http://creativecommons.org/ns#"
   xmlns:rdf="http://www.w3.org/1999/02/22-rdf-syntax-ns#"
   xmlns:svg="http://www.w3.org/2000/svg"
   xmlns="http://www.w3.org/2000/svg"
   xmlns:sodipodi="http://sodipodi.sourceforge.net/DTD/sodipodi-0.dtd"
   xmlns:inkscape="http://www.inkscape.org/namespaces/inkscape"
   width="12mm"
   height="6mm"
   viewBox="0 0 12 6"
   version="1.1"
   id="svg9425"
   inkscape:version="0.92.2 (5c3e80d, 2017-08-06)"
   sodipodi:docname="mazda.svg">
  <defs
     id="defs9419" />
  <sodipodi:namedview
     id="base"
     pagecolor="#ffffff"
     bordercolor="#666666"
     borderopacity="1.0"
     inkscape:pageopacity="0.0"
     inkscape:pageshadow="2"
     inkscape:zoom="12.087093"
     inkscape:cx="30.628893"
     inkscape:cy="4.8003514"
     inkscape:document-units="mm"
     inkscape:current-layer="layer1"
     showgrid="false"
     inkscape:window-width="1280"
     inkscape:window-height="961"
     inkscape:window-x="-8"
     inkscape:window-y="44"
     inkscape:window-maximized="1" />
  <metadata
     id="metadata9422">
    <rdf:RDF>
      <cc:Work
         rdf:about="">
        <dc:format>image/svg+xml</dc:format>
        <dc:type
           rdf:resource="http://purl.org/dc/dcmitype/StillImage" />
        <dc:title></dc:title>
      </cc:Work>
    </rdf:RDF>
  </metadata>
  <g
     inkscape:label="Layer 1"
     inkscape:groupmode="layer"
     id="layer1"
     transform="translate(0,-291)">
    <g
       style="opacity:0.8"
       id="g2325"
       transform="matrix(0.22772987,0,0,0.2439012,-147.34191,248.12218)">
      <path
         d="m 673.4,177.7 c 5.4,0 7,2.3 7.3,2.8 0.3,-0.1 1.1,-0.6 1.6,-1.1 l -0.8,0.3 c 0,0 -0.1,0 -0.1,0 -2.2,-2.8 -7.8,-2.5 -7.9,-2.5 0,0 0,0 0,0 0,0 0,0 0,0 -0.1,0 -5.7,-0.2 -7.9,2.5 0,0 -0.1,0 -0.1,0 l -0.6,-0.2 c 0.5,0.5 1.2,0.9 1.4,1 0.1,-0.6 1.7,-2.8 7.1,-2.8 z"
         id="path2301"
         inkscape:connector-curvature="0" />
      <path
         d="m 682.7,179.2 c 0,0 0,0 0,0 0,0 0,0 0,0 v 0 0 c 0,0 0,0 0,0 v 0 c 0,-0.1 0,-0.1 -0.1,-0.1 v 0 c 0,0 0,0 0,0 v 0 c -0.1,-0.1 -2,-2.8 -9.3,-2.8 -7.3,0 -9.1,2.8 -9.2,2.9 0,0 -0.1,0.1 0,0.2 0,0 0,0 -0.1,0 -0.1,0 -0.1,0.1 -0.1,0.1 -0.7,0.9 -1.8,3 -1.8,6.2 0,2.7 1.3,6 4.2,7.3 1.8,0.8 3.9,1.2 6.4,1.2 0.2,0 0.3,0 0.4,0 0.1,0 0.2,0 0.4,0 0.1,0 0.2,0 0.4,0 2.5,0 4.6,-0.4 6.4,-1.2 2.9,-1.3 4.2,-4.6 4.2,-7.3 0,-3.2 -1.1,-5.2 -1.8,-6.2 0.2,-0.2 0.1,-0.3 0,-0.3 z m -8.7,14.6 c -0.2,0 -0.3,0 -0.4,0 -0.1,0 -0.1,0 -0.2,0 0,0 -0.1,0 -0.2,0 -0.1,0 -0.2,0 -0.4,0 -2.5,0 -4.6,-0.4 -6.4,-1.2 -2.9,-1.2 -4.1,-4.5 -4.1,-7.2 0,-3.1 1.1,-5.1 1.7,-6.1 0,0 0,0 0,0 0.1,0.1 1.3,1.3 3.3,2.1 l 0.5,0.2 c 2,0.8 4.2,1.8 5.3,4.2 l 0.1,0.2 0.1,-0.2 c 0.5,-1 1.2,-1.9 2.1,-2.6 1,-0.7 2.1,-1.2 3.2,-1.7 l 0.5,-0.2 c 1.5,-0.7 2.6,-1.5 3.1,-1.9 v 0 c 0.1,-0.1 0.2,-0.2 0.2,-0.2 v 0 0 c 0.6,0.9 1.7,2.9 1.7,6.1 0,2.7 -1.3,5.9 -4.1,7.2 -1.4,0.9 -3.5,1.3 -6,1.3 z m -0.6,-17.4 c 7.2,0 9.1,2.7 9.2,2.8 v 0 0 h 0.1 -0.1 c -0.5,0.7 -1.9,1.4 -1.9,1.5 0,0 0,0 0,0 v 0 c 0,0 -1.4,-2.8 -7.2,-2.8 -5.8,0 -7.2,2.8 -7.2,2.8 v 0 0 c 0,0 -1.2,-0.6 -1.8,-1.4 0,0 0,0 0,0 -0.1,-0.3 1.6,-2.9 8.9,-2.9 z m 7.2,4.4 c -0.4,0.2 -0.8,0.4 -1.3,0.6 l -0.5,0.2 c -1.1,0.5 -2.2,0.9 -3.3,1.7 -0.9,0.7 -1.6,1.5 -2.1,2.5 -1.2,-2.4 -3.4,-3.3 -5.4,-4.2 l -0.5,-0.2 c -0.5,-0.2 -0.9,-0.4 -1.3,-0.6 0,0 0.1,-0.1 0.1,-0.1 0,0 1.3,-2.7 7,-2.7 5.7,0 7,2.7 7.1,2.7 0,0 0,0 0,0.1 0.1,0 0.1,0 0.2,0 z"
         id="path2303"
         inkscape:connector-curvature="0" />
      <path
         d="m 667.2,182.9 c 0.2,0.1 0.5,0.2 0.8,0.3 1.7,0.5 4,1.2 5.4,4.2 1.4,-3 3.7,-3.7 5.4,-4.2 0.3,-0.1 0.6,-0.2 0.8,-0.3 1.1,-0.4 2.5,-1.3 2.7,-1.4 0.2,-0.6 0.3,-1.2 0.3,-1.9 0,0 0,0 0,0 l -0.6,1.9 c 0,0 0,0 0,0.1 -1.6,0.9 -2.8,1.4 -3.3,1.5 -2.2,0.6 -3.1,1.5 -3.1,1.5 0,0 -0.1,0 -0.1,0 0,0 -0.1,-0.1 0,-0.1 0.4,-0.7 1.1,-1.3 1.7,-1.8 -0.5,0.2 -0.9,0.5 -1.3,0.8 -0.1,0.1 -0.6,0.9 -0.6,1.4 0,0 0,0 0,0.1 -0.1,0.1 -0.2,0.2 -0.3,0.3 0,0 -0.1,0.1 -0.1,0.1 0,0 -0.1,-0.1 -0.1,-0.1 0,0 0,-0.4 0.2,-0.9 -0.5,0.5 -0.9,1.1 -1.2,1.9 v 0 c 0,0 0,0 0,0 0,0 0,0 0,0 0,0 0,0 0,0 0,0 0,0 0,0 v 0 c 0,0 0,0 0,0 0,0 0,0 0,0 0,0 0,0 0,0 0,0 0,0 0,0 v 0 c 0,0 0,0 0,0 0,0 0,0 0,0 0,0 0,0 0,0 0,0 0,0 0,0 v 0 c -0.7,-1.8 -2.1,-2.8 -3.5,-3.6 0.4,0.3 0.8,0.8 1.1,1.3 0,0 0,0.1 0,0.1 0,0 -0.1,0 -0.1,0 0,0 -1,-0.5 -2.6,-1.1 -1.1,-0.4 -3.4,-1.1 -4,-3.3 0,0.5 0.1,1.2 0.4,1.7 -0.4,0.2 1,1.1 2.1,1.5 z"
         id="path2305"
         inkscape:connector-curvature="0" />
      <path
         d="m 667.5,184.2 c 1.1,0.3 2.3,0.6 3.4,1.4 1.4,1 2.3,2.6 2.5,3.2 0.3,-0.6 1.1,-2.2 2.5,-3.2 1.1,-0.7 2.3,-1.1 3.4,-1.4 0.9,-0.3 1.8,-0.5 2.3,-0.9 0.1,-0.1 0.3,-0.7 0.6,-1.4 -0.5,0.3 -1.6,0.9 -2.5,1.3 -0.2,0.1 -0.5,0.2 -0.8,0.3 -1.7,0.5 -4,1.2 -5.4,4.3 0,0 0,0 0,0 0,0 0,0 0,0 0,0 0,0 0,0 0,0 0,0 0,0 v 0 c 0,0 0,0 0,0 0,0 0,0 0,0 0,0 0,0 0,0 0,0 0,0 0,0 v 0 c 0,0 0,0 0,0 0,0 0,0 0,0 0,0 0,0 0,0 0,0 0,0 0,0 -1.4,-3.1 -3.7,-3.8 -5.4,-4.3 -0.3,-0.1 -0.6,-0.2 -0.8,-0.3 -1,-0.4 -2.1,-1 -2.5,-1.3 0.2,0.8 0.5,1.3 0.6,1.4 0.3,0.4 1.1,0.6 2.1,0.9 z"
         id="path2307"
         inkscape:connector-curvature="0" />
      <path
         d="m 673.2,192.4 c 0.1,0 0.2,0 0.3,0 0.1,0 0.2,0 0.3,0 1.3,0 4.6,-0.2 6.5,-2.1 2.1,-2 1.7,-6 1.6,-6.8 v -0.1 l -0.1,0.1 c -0.6,0.4 -1.4,0.6 -2.3,0.9 -1.1,0.3 -2.2,0.6 -3.4,1.4 -1.7,1.1 -2.6,3.3 -2.6,3.3 0,0 0,0 0,0 0,0 0,0 0,0 0,0 -0.9,-2.2 -2.6,-3.3 -1.1,-0.7 -2.3,-1.1 -3.4,-1.4 -0.9,-0.2 -1.7,-0.5 -2.2,-0.9 l -0.1,-0.1 v 0.1 c -0.1,0.8 -0.5,4.7 1.6,6.8 1.8,1.8 5.1,2.1 6.4,2.1 z m -8,-8.8 c 0.6,0.4 1.3,0.6 2.2,0.8 1,0.3 2.2,0.6 3.3,1.3 1.7,1.1 2.5,3.3 2.5,3.3 0,0 0.1,0.2 0.2,0.2 v 0 c 0.1,0 0.2,-0.1 0.2,-0.2 0,0 0.9,-2.2 2.5,-3.3 1.1,-0.7 2.3,-1.1 3.3,-1.3 0.9,-0.2 1.6,-0.5 2.2,-0.8 0.1,1 0.4,4.6 -1.6,6.5 -1.9,1.8 -5.1,2 -6.4,2 -0.1,0 -0.1,0 -0.2,0 h -0.2 v 0 c -0.1,0 -0.1,0 -0.2,0 -1.3,0 -4.5,-0.2 -6.4,-2 -1.7,-1.8 -1.5,-5.5 -1.4,-6.5 z"
         id="path2309"
         inkscape:connector-curvature="0" />
      <path
         d="m 666.2,189.9 c -1.8,-2.3 -1.3,-6.1 -1.2,-6.5 -0.1,-0.1 -0.4,-0.8 -0.7,-1.8 -1.7,3.8 0.1,6.8 0.1,6.9 0.6,0.8 1.4,1.2 1.8,1.4 z"
         id="path2311"
         inkscape:connector-curvature="0" />
      <path
         d="m 682.4,187.8 c 0,0 0,0 0,0 0,0 1,-2.7 -0.1,-5.8 -0.2,0.6 -0.4,1.1 -0.5,1.2 0,0 0,0 0,0 0,0.2 0.6,4 -1.1,6.4 0.5,-0.1 1.3,-0.6 1.7,-1.8 z"
         id="path2313"
         inkscape:connector-curvature="0" />
      <path
         d="m 682.8,179.7 c 0,0.6 -0.1,1.2 -0.3,1.7 0,0 0,0 0,0 1.3,3.5 0.2,7 0.2,7.1 -0.7,2.1 -2.5,3.6 -5.3,4.3 -1.1,0.3 -2.7,0.4 -3.6,0.4 0.1,0 -0.1,0 -0.3,0 -0.3,0 -0.4,0 -0.3,0 -0.9,0 -2.5,-0.1 -3.6,-0.4 -2.7,-0.7 -4.6,-2.1 -5.3,-4.3 -0.2,-0.1 -1.1,-0.9 -1.7,-2.7 0.1,2.5 1.4,5.5 4.1,6.7 2.8,1.2 6.3,1.2 6.9,1.2 0.5,0 4.4,0 6.9,-1.2 2.8,-1.3 4.1,-4.4 4.1,-7.1 -0.2,-2.8 -1.1,-4.7 -1.8,-5.7 z"
         id="path2315"
         inkscape:connector-curvature="0" />
      <path
         d="m 681.8,196.1 c 0,0 0,0 0,0 h -2.2 -0.2 v 0.2 0.7 c -0.3,-0.6 -0.8,-0.8 -1.2,-0.8 v 0 h -2.8 -0.1 -0.1 -0.3 -2.5 -0.2 v 0.2 0.3 c -0.2,-0.3 -0.5,-0.5 -1,-0.5 0,0 0,0 0,0 h -2.2 -0.2 v 0.2 0.5 c -0.2,-0.4 -0.5,-0.7 -1.2,-0.7 0,0 0,0 0,0 h -3.7 -0.2 v 0.2 3.3 0.2 h 0.2 1.1 0.2 v -0.2 -2.2 h 0.5 v 2.2 0.2 h 0.2 1.1 0.2 v -0.2 -2.2 h 0.2 c 0.1,0 0.2,0 0.2,0.1 0.1,0.1 0,0.2 0,0.2 v 0 0 1.9 0.2 h 0.2 1.1 0.2 v -0.2 0 c 0.3,0.2 0.6,0.2 0.6,0.2 h 3 0.1 0.1 0.3 2.5 0.2 v 0 0 h 2.4 c 0.5,0 0.8,-0.2 1.1,-0.6 0.2,0.4 0.7,0.6 1,0.6 h 2.6 0.2 v -0.2 -2.4 c -0.3,-0.7 -0.6,-1.2 -1.4,-1.2 z m 1,3.4 h -2.6 c 0,0 -0.8,0 -1,-0.9 -0.2,0.6 -0.6,0.8 -1.1,0.8 -0.6,0 -2.4,0 -2.4,0 V 197 l -3,2.4 h -3.1 c 0,0 -0.5,0 -0.8,-0.4 0,0.3 0,0.4 0,0.4 h -1.1 v -1.9 c 0,0 0.1,-0.4 -0.5,-0.4 h -0.4 v 2.3 h -1.1 v -2.3 c -0.4,0 -0.8,0 -0.8,0 v 2.3 h -1.1 v -3.3 h 3.7 c 0,0 0,0 0,0 0.2,0 1.2,0.1 1.2,1.2 v 0.4 c 0.2,-0.4 0.7,-0.4 0.9,-0.4 0,0 0,0 0.1,0 0.2,0 1.4,0 1.4,0 0,0 0.1,-0.3 -0.4,-0.3 -0.5,0 -1.8,0 -1.8,0 v -0.9 h 2.2 c 0,0 0,0 0,0 0.1,0 1,0 1,0.9 0,1 0,1.5 0,1.5 l 3,-2.4 h 3 c 0,0 0,0 0,0 0.1,0 1.1,0 1.1,1.5 0,0.1 0,0.1 0,0.2 0.2,-0.4 0.7,-0.4 0.9,-0.4 0,0 0,0 0.1,0 0.2,0 1.4,0 1.4,0 0,0 0.1,-0.3 -0.4,-0.3 -0.5,0 -1.8,0 -1.8,0 v -0.9 h 2.2 c 0,0 0,0 0,0 0.1,0 1,0 1,0.9 0.2,1 0.2,2.4 0.2,2.4 z m -8.6,-0.9 h 1.3 v 1 H 673 Z m 1.4,-0.2 h -1.2 l 1.2,-0.9 z m -6.6,-1.1 h 0.7 c -0.2,0 -0.4,0 -0.7,0.2 0,-0.1 0,-0.2 0,-0.2 z m 4.7,-0.1 h -1.3 v -1 h 2.5 z m -1.3,0.2 h 1.1 l -1.1,0.9 z m 7.1,-0.1 h 0.7 c -0.3,0 -0.5,0.1 -0.7,0.2 0,-0.1 0,-0.2 0,-0.2 z"
         id="path2317"
         inkscape:connector-curvature="0" />
      <path
         d="m 680.3,198.4 c 0,0.2 0.2,0.2 0.2,0.2 h 1.2 v -0.4 h -1.2 c 0,0 -0.2,0 -0.2,0.2 z"
         id="path2319"
         inkscape:connector-curvature="0" />
      <path
         d="m 669.8,198.4 c 0,0.2 0.2,0.2 0.2,0.2 h 1.2 v -0.4 H 670 c 0,0 -0.2,0 -0.2,0.2 z"
         id="path2321"
         inkscape:connector-curvature="0" />
      <path
         d="m 677.8,197.2 h -1 v 1.4 h 1 c 0.3,0 0.5,-0.1 0.5,-0.7 0,-0.7 -0.5,-0.7 -0.5,-0.7 z"
         id="path2323"
         inkscape:connector-curvature="0" />
    </g>
  </g>
</svg>
