<?xml version="1.0" encoding="UTF-8" standalone="no"?>
<!-- Created with Inkscape (http://www.inkscape.org/) -->

<svg
   xmlns:dc="http://purl.org/dc/elements/1.1/"
   xmlns:cc="http://creativecommons.org/ns#"
   xmlns:rdf="http://www.w3.org/1999/02/22-rdf-syntax-ns#"
   xmlns:svg="http://www.w3.org/2000/svg"
   xmlns="http://www.w3.org/2000/svg"
   xmlns:sodipodi="http://sodipodi.sourceforge.net/DTD/sodipodi-0.dtd"
   xmlns:inkscape="http://www.inkscape.org/namespaces/inkscape"
   width="12mm"
   height="6mm"
   viewBox="0 0 12 6"
   version="1.1"
   id="svg9425"
   inkscape:version="0.92.2 (5c3e80d, 2017-08-06)"
   sodipodi:docname="mers.svg">
  <defs
     id="defs9419" />
  <sodipodi:namedview
     id="base"
     pagecolor="#ffffff"
     bordercolor="#666666"
     borderopacity="1.0"
     inkscape:pageopacity="0.0"
     inkscape:pageshadow="2"
     inkscape:zoom="12.087093"
     inkscape:cx="17.1848"
     inkscape:cy="4.8003514"
     inkscape:document-units="mm"
     inkscape:current-layer="g4833"
     showgrid="false"
     inkscape:window-width="1280"
     inkscape:window-height="961"
     inkscape:window-x="-8"
     inkscape:window-y="-8"
     inkscape:window-maximized="1" />
  <metadata
     id="metadata9422">
    <rdf:RDF>
      <cc:Work
         rdf:about="">
        <dc:format>image/svg+xml</dc:format>
        <dc:type
           rdf:resource="http://purl.org/dc/dcmitype/StillImage" />
        <dc:title></dc:title>
      </cc:Work>
    </rdf:RDF>
  </metadata>
  <g
     inkscape:label="Layer 1"
     inkscape:groupmode="layer"
     id="layer1"
     transform="translate(0,-291)">
    <g
       transform="matrix(0.25691619,0,0,0.26801702,-60.975538,207.77202)"
       style="opacity:0.8"
       id="g2791">
      <g
         transform="translate(-428.30763,-0.14631344)"
         style="opacity:0.8"
         id="g4833">
        <path
           inkscape:connector-curvature="0"
           d="m 688.99786,311.02613 c -6.28588,0 -11.40439,4.82041 -11.40439,10.84594 0,6.02553 5.11851,10.84596 11.40439,10.84596 6.28588,0 11.40437,-4.82043 11.40437,-10.84596 0,-6.02553 -5.11849,-10.84594 -11.40437,-10.84594 z m 0,21.2615 c -4.31032,0 -7.63286,-2.15197 -9.24923,-5.07866 l 0.2694,-0.0861 c 0.44899,0.68863 0.98777,1.20511 1.70616,1.97982 0.89798,0.94686 3.77153,2.75453 7.36346,2.75453 3.77153,0 7.18386,-1.89375 8.97983,-4.82043 0.1796,0 0.1796,-0.0861 0.1796,-0.25823 0.89798,-1.46334 1.43677,-3.27101 1.43677,-5.07867 0,-1.11902 -0.1796,-2.06589 -0.44899,-2.8406 -0.1796,-0.60256 -0.449,-1.20511 -0.62859,-1.46335 0,-0.0861 0,-0.0861 0,-0.17216 0.0898,0 0.0898,0.0861 0.0898,0.0861 0.1796,0.25824 0.53879,1.03295 0.71838,1.46334 0.2694,0.60256 0.62859,1.46334 0.62859,2.84061 -0.0898,5.93945 -4.9389,10.67379 -11.04518,10.67379 z m -9.15943,-5.3369 7.99205,-5.50905 -0.71839,-0.34432 -7.18387,5.68122 c -0.80818,-1.37726 -1.34697,-3.18492 -1.34697,-4.90651 0,-5.42298 4.48991,-9.72692 10.14721,-9.813 l -1.43678,8.69398 0.71839,0.34431 0.89798,-9.12437 c 0,-0.0861 0.0898,-0.0861 0.0898,0 l 0.0898,9.55477 1.61637,-0.94687 -1.52657,-8.69397 c 5.56749,0.17215 10.14721,4.4761 10.14721,9.81299 0,1.72159 -0.5388,3.52925 -1.34697,4.90651 l -7.09407,-5.68122 -0.71839,0.34432 7.63286,5.3369 c 0.1796,0.0861 0.0898,0.17216 -0.0898,0.0861 l -8.62064,-4.73434 v 1.80766 l 8.62064,3.18491 c -1.79597,2.84062 -5.02871,4.64827 -8.80024,4.64827 -3.77152,0 -6.91446,-1.80765 -8.80023,-4.64827 l 8.62064,-3.18491 v -1.80766 l -8.89003,4.99257 c -0.1796,0.25824 -0.1796,0.17216 0,0 z m -0.2694,0.0861 c -0.35919,-0.77471 -0.80818,-1.80765 -0.98778,-2.66844 0,-0.0861 0,-0.0861 0,-0.17216 0,0 0,0.0861 0.0898,0.0861 0.26939,0.77471 0.44899,1.46334 1.07758,2.4963 z m 20.38421,-6.97239 c 0,0 0,-0.0861 -0.0898,-0.0861 -0.80819,-2.49629 -1.52658,-3.44317 -2.96335,-4.90651 -1.79596,-1.89373 -4.7593,-3.35707 -7.90224,-3.35707 -6.01649,0 -10.8656,4.64826 -10.8656,10.41555 0,1.72159 0.35919,3.18493 0.71839,3.95964 0.35919,0.86078 0.98778,1.97981 1.07757,2.06589 0,0.0861 0,0.0861 0,0.17216 -0.0898,0 -0.0898,-0.0861 -0.0898,-0.0861 -0.1796,-0.25824 -0.89799,-1.54942 -1.16738,-2.0659 -0.53879,-1.2051 -0.89798,-2.58237 -0.89798,-3.95963 0,-5.93945 5.0287,-10.75988 11.22479,-10.75988 5.56749,0 9.9676,3.7014 10.95538,8.60791 0,-0.0861 0,-0.0861 0,0 z"
           id="path1575"
           style="stroke-width:0.87918985" />
      </g>
    </g>
  </g>
</svg>
