<?xml version="1.0" encoding="UTF-8" standalone="no"?>
<!-- Created with Inkscape (http://www.inkscape.org/) -->

<svg
   xmlns:dc="http://purl.org/dc/elements/1.1/"
   xmlns:cc="http://creativecommons.org/ns#"
   xmlns:rdf="http://www.w3.org/1999/02/22-rdf-syntax-ns#"
   xmlns:svg="http://www.w3.org/2000/svg"
   xmlns="http://www.w3.org/2000/svg"
   xmlns:sodipodi="http://sodipodi.sourceforge.net/DTD/sodipodi-0.dtd"
   xmlns:inkscape="http://www.inkscape.org/namespaces/inkscape"
   width="12mm"
   height="6mm"
   viewBox="0 0 12 6"
   version="1.1"
   id="svg9425"
   inkscape:version="0.92.2 (5c3e80d, 2017-08-06)"
   sodipodi:docname="misu.svg">
  <defs
     id="defs9419" />
  <sodipodi:namedview
     id="base"
     pagecolor="#ffffff"
     bordercolor="#666666"
     borderopacity="1.0"
     inkscape:pageopacity="0.0"
     inkscape:pageshadow="2"
     inkscape:zoom="12.087093"
     inkscape:cx="30.628893"
     inkscape:cy="4.8003514"
     inkscape:document-units="mm"
     inkscape:current-layer="g2791"
     showgrid="false"
     inkscape:window-width="1280"
     inkscape:window-height="961"
     inkscape:window-x="-8"
     inkscape:window-y="44"
     inkscape:window-maximized="1" />
  <metadata
     id="metadata9422">
    <rdf:RDF>
      <cc:Work
         rdf:about="">
        <dc:format>image/svg+xml</dc:format>
        <dc:type
           rdf:resource="http://purl.org/dc/dcmitype/StillImage" />
        <dc:title></dc:title>
      </cc:Work>
    </rdf:RDF>
  </metadata>
  <g
     inkscape:label="Layer 1"
     inkscape:groupmode="layer"
     id="layer1"
     transform="translate(0,-291)">
    <g
       transform="matrix(0.25691619,0,0,0.26801702,-60.975538,207.77202)"
       style="opacity:0.8"
       id="g2791">
      <polygon
         points="260,321.9 253.6,321.9 250.4,327.5 256.8,327.4 "
         id="polygon2753"
         transform="translate(-12.086472,2.575762)" />
      <polygon
         points="260,310.8 256.8,316.4 260,321.9 263.2,316.4 "
         id="polygon2755"
         transform="translate(-12.086472,2.575762)" />
      <polygon
         points="269.6,327.5 266.4,321.9 260,321.9 263.2,327.4 "
         id="polygon2757"
         transform="translate(-12.086472,2.575762)" />
      <rect
         x="282.22964"
         y="316.81375"
         width="0.8372575"
         height="4.971993"
         id="rect2759"
         style="stroke-width:1.75601375" />
      <path
         d="m 273.18728,320.31257 c 0,0 0,-0.73659 -0.83725,-1.28904 0,0 0.6698,0 0.6698,-0.92074 0,0 0,-1.28903 -1.17216,-1.28903 h -0.83725 -0.50236 -0.3349 v 4.97199 h 0.50235 0.33491 1.0047 c -0.16745,0 1.17216,0 1.17216,-1.47318 z m -1.50706,0.73659 h -0.6698 v -3.49881 h 0.6698 c 0,0 0.50236,0 0.50236,0.55244 0,0 0,0.73659 -1.00471,0.73659 v 0.7366 c 0,0 0.3349,0 0.50235,0 0.3349,0 0.50236,0.36829 0.50236,0.55244 0.16745,0 0.16745,0.73659 -0.50236,0.92074 z"
         id="path2761"
         inkscape:connector-curvature="0"
         style="stroke-width:1.75601375" />
      <polygon
         points="266.9,330.6 266.9,331.8 267.4,331.8 267.4,329.1 266.9,329.1 266.9,330.2 265.9,330.2 265.9,329.1 265.4,329.1 265.4,331.8 265.9,331.8 265.9,330.6 "
         id="polygon2763"
         transform="matrix(1.6745151,0,0,1.8414789,-166.37292,-289.21693)" />
      <rect
         x="273.52219"
         y="316.81375"
         width="0.8372575"
         height="4.971993"
         id="rect2765"
         style="stroke-width:1.75601375" />
      <path
         d="m 266.48922,316.81376 v 3.49881 0 0 0 c 0,0.18414 0.16746,1.47318 1.50707,1.47318 1.33961,0 1.50706,-1.10489 1.50706,-1.47318 v 0 0 -3.49881 h -0.83726 v 3.49881 c 0,0.73659 -0.6698,0.55244 -0.6698,0.55244 0,0 -0.66981,0 -0.66981,-0.55244 v -3.49881 z"
         id="path2767"
         inkscape:connector-curvature="0"
         style="stroke-width:1.75601375" />
      <polygon
         points="252.2,329.1 252.1,329.1 251.8,329.1 251.6,329.1 251.6,331.8 252.1,331.8 252.1,329.9 252.7,331.3 253.2,329.9 253.2,331.8 253.7,331.8 253.7,329.1 253.6,329.1 253.2,329.1 253.1,329.1 252.7,330.3 "
         id="polygon2769"
         transform="matrix(1.6745151,0,0,1.8414789,-166.37292,-289.21693)" />
      <rect
         x="259.28876"
         y="316.81375"
         width="0.8372575"
         height="4.971993"
         id="rect2771"
         style="stroke-width:1.75601375" />
      <polygon
         points="255.5,329.1 254.9,329.1 254.9,329.5 255.5,329.5 255.5,331.8 256,331.8 256,329.5 256.5,329.5 256.5,329.1 256,329.1 "
         id="polygon2773"
         transform="matrix(1.6745151,0,0,1.8414789,-166.37292,-289.21693)" />
      <path
         d="m 264.31236,321.78575 c 0,0 0.16745,0 0.3349,0 0,0 0.16745,0 0.3349,0 0.3349,0 1.00471,-0.3683 1.17216,-1.28904 0,0 0,-0.18414 -0.16745,-0.55244 -0.16745,-0.36829 -0.3349,-0.55244 -0.83726,-0.92074 0,0 0,0 -0.16745,0 -0.3349,-0.18415 -0.83726,-0.55244 -0.83726,-0.92074 0,0 0,-0.36829 0.33491,-0.55244 0,0 0,0 0,0 v 0 c 0,0 0,0 0,0 0.16745,0 0.50235,0 0.50235,0.73659 h 0.83726 c 0,0 0.16745,-1.28904 -1.17216,-1.65733 0,0 0,0 -0.16745,0 0,0 0,0 0,0 0,0 0,0 -0.16745,0 0,0 0,0 0,0 -0.33491,0 -1.00471,0.18415 -1.17217,1.10489 0,0 0,0.18414 0,0.18414 0,0 0,0 0,0.18415 0,0 0,0 0,0 v 0 c 0,0 0,0 0,0.18415 0,0.18415 0.33491,0.73659 0.83726,0.92074 0,0 0.16745,0 0.16745,0.18415 0,0 0,0 0.16746,0 0.16745,0 0.3349,0.18415 0.50235,0.36829 0,0 0.16745,0.18415 0.16745,0.18415 0,0 0,0 0,0.18415 0,0 0,0 0,0 0,0 0,0.55244 -0.6698,0.55244 0,0 -0.66981,0 -0.66981,-0.92074 h -0.83726 c 0.3349,0.3683 0.16745,1.84148 1.50707,2.02563 z"
         id="path2775"
         inkscape:connector-curvature="0"
         style="stroke-width:1.75601375" />
      <path
         d="m 276.36886,321.04916 c 0,0 -0.6698,0 -0.6698,-0.92074 h -0.83726 c 0,0 0,1.47318 1.17216,1.65733 0,0 0.16745,0 0.3349,0 0,0 0.16745,0 0.33491,0 0.3349,0 1.00471,-0.3683 1.17216,-1.28904 0,0 0,-0.18414 -0.16745,-0.55244 -0.16746,-0.36829 -0.33491,-0.55244 -0.83726,-0.92074 0,0 0,0 -0.16745,0 -0.33491,-0.18415 -0.83726,-0.55244 -0.83726,-0.92074 0,0 0,-0.36829 0.3349,-0.55244 0,0 0,0 0,0 0,0 0,0 0,0 0,0 0,0 0,0 0.16745,0 0.50236,0 0.50236,0.73659 h 0.83725 c 0,0 0.16746,-1.28904 -1.17216,-1.65733 0,0 0,0 -0.16745,0 0,0 0,0 0,0 0,0 0,0 -0.16745,0 0,0 0,0 0,0 -0.3349,0 -1.00471,0.18415 -1.17216,1.10489 0,0 0,0.18414 0,0.18414 0,0 0,0 0,0.18415 0,0 0,0 0,0 v 0 c 0,0 0,0 0,0.18415 0,0.18415 0.3349,0.73659 0.83726,0.92074 0,0 0.16745,0 0.16745,0.18415 0,0 0,0 0.16745,0 0.16745,0 0.3349,0.18415 0.50235,0.36829 0,0 0.16746,0.18415 0.16746,0.18415 0,0 0,0 0,0.18415 0,0 0,0 0,0 0.16745,0.36829 0.16745,0.92074 -0.33491,0.92074 z"
         id="path2777"
         inkscape:connector-curvature="0"
         style="stroke-width:1.75601375" />
      <path
         d="m 277.20612,328.78337 c 0,0 0.16745,0 0.3349,0 0,0 0.16746,0 0.33491,0 0.3349,0 1.00471,-0.3683 1.17216,-1.28904 0,0 0,-0.18414 -0.16745,-0.55244 -0.16746,-0.18415 -0.33491,-0.55244 -0.83726,-0.92074 0,0 0,0 -0.16745,0 -0.33491,-0.18415 -0.83726,-0.55244 -0.83726,-0.92074 0,0 0,-0.36829 0.3349,-0.36829 0,0 0,0 0,0 v 0 c 0,0 0,0 0,0 0.16745,0 0.50236,0 0.50236,0.73659 h 0.83725 c 0,0 0.16746,-1.28904 -1.17216,-1.47319 0,0 0,0 -0.16745,0 0,0 0,0 0,0 0,0 0,0 -0.16745,0 0,0 0,0 0,0 -0.3349,0 -1.00471,0.18415 -1.17216,1.10489 0,0 0,0.18415 0,0.18415 0,0 0,0 0,0 0,0 0,0 0,0 0,0 0,0 0,0 0,0 0,0 0,0 0,0 0,0 0,0 0,0.18415 0.3349,0.73659 0.83726,1.10489 0,0 0.16745,0 0.16745,0 0,0 0,0 0.16745,0 0.16745,0 0.3349,0.18414 0.50236,0.36829 0,0 0.16745,0.18415 0.16745,0.18415 0,0 0,0 0,0 0,0 0,0 0,0 0,0 0,0.55244 -0.66981,0.55244 0,0 -0.66981,0 -0.66981,-0.92074 h -0.83725 c 0.3349,0.3683 0.16745,1.84148 1.50706,2.20978 z"
         id="path2779"
         inkscape:connector-curvature="0"
         style="stroke-width:1.75601375" />
      <path
         d="m 274.02454,326.02115 1.17216,2.57807 h 1.00471 l -1.17216,-2.20977 c 0,0 0,0 0,0 0,0 0.83726,-0.18415 0.83726,-1.28904 0,0 0,-1.28903 -1.33961,-1.47318 h -0.66981 v 0 h -0.83726 v 4.97199 h 0.83726 v -4.2354 h 0.66981 c 0,0 0.6698,0 0.6698,0.73659 -0.16745,0 -0.16745,0.92074 -1.17216,0.92074 z"
         id="path2781"
         inkscape:connector-curvature="0"
         style="stroke-width:1.75601375" />
      <path
         d="m 264.98216,328.59922 c 1.84197,0 1.84197,-2.39392 1.84197,-2.39392 0,-2.57807 -1.84197,-2.57807 -1.84197,-2.57807 0,0 -1.67451,0 -1.84197,2.57807 0,0 -0.16745,2.39392 1.84197,2.39392 z m 0,-4.2354 c 1.00471,0 1.00471,1.84148 1.00471,1.84148 0,1.65733 -1.00471,1.65733 -1.00471,1.65733 0,0 -1.00471,0 -1.00471,-1.65733 0,0 0,-1.65733 1.00471,-1.84148 z"
         id="path2783"
         inkscape:connector-curvature="0"
         style="stroke-width:1.75601375" />
      <polygon
         points="260.1,333.2 260.1,332.8 259.6,332.8 259.1,332.8 258.5,332.8 258.5,333.2 259.1,333.2 259.1,335.5 259.6,335.5 259.6,333.2 "
         id="polygon2785"
         transform="matrix(1.6745151,0,0,1.8414789,-166.37292,-289.21693)" />
      <polygon
         points="254.8,332.8 254.7,332.8 254.3,332.8 254.2,332.8 254.2,335.5 254.7,335.5 254.7,333.7 255.3,335.1 255.8,333.7 255.8,335.5 256.3,335.5 256.3,332.8 256.2,332.8 255.8,332.8 255.7,332.8 255.3,334 "
         id="polygon2787"
         transform="matrix(1.6745151,0,0,1.8414789,-166.37292,-289.21693)" />
      <path
         d="m 270.67551,328.59922 c 1.84197,0 1.84197,-2.39392 1.84197,-2.39392 0,-2.57807 -1.84197,-2.57807 -1.84197,-2.57807 0,0 -1.67451,0 -1.84196,2.57807 0.16745,0 0,2.39392 1.84196,2.39392 z m 0,-4.2354 c 1.00471,0 1.00471,1.84148 1.00471,1.84148 0,1.65733 -1.00471,1.65733 -1.00471,1.65733 0,0 -1.00471,0 -1.00471,-1.65733 0.16745,0 0.16745,-1.65733 1.00471,-1.84148 z"
         id="path2789"
         inkscape:connector-curvature="0"
         style="stroke-width:1.75601375" />
    </g>
  </g>
</svg>
