<?xml version="1.0" encoding="UTF-8" standalone="no"?>
<!-- Created with Inkscape (http://www.inkscape.org/) -->

<svg
   xmlns:dc="http://purl.org/dc/elements/1.1/"
   xmlns:cc="http://creativecommons.org/ns#"
   xmlns:rdf="http://www.w3.org/1999/02/22-rdf-syntax-ns#"
   xmlns:svg="http://www.w3.org/2000/svg"
   xmlns="http://www.w3.org/2000/svg"
   xmlns:sodipodi="http://sodipodi.sourceforge.net/DTD/sodipodi-0.dtd"
   xmlns:inkscape="http://www.inkscape.org/namespaces/inkscape"
   width="12mm"
   height="6mm"
   viewBox="0 0 12 6"
   version="1.1"
   id="svg9425"
   inkscape:version="0.92.2 (5c3e80d, 2017-08-06)"
   sodipodi:docname="nissan.svg">
  <defs
     id="defs9419" />
  <sodipodi:namedview
     id="base"
     pagecolor="#ffffff"
     bordercolor="#666666"
     borderopacity="1.0"
     inkscape:pageopacity="0.0"
     inkscape:pageshadow="2"
     inkscape:zoom="12.087093"
     inkscape:cx="30.628893"
     inkscape:cy="4.8003514"
     inkscape:document-units="mm"
     inkscape:current-layer="g2791"
     showgrid="false"
     inkscape:window-width="1280"
     inkscape:window-height="961"
     inkscape:window-x="-8"
     inkscape:window-y="44"
     inkscape:window-maximized="1" />
  <metadata
     id="metadata9422">
    <rdf:RDF>
      <cc:Work
         rdf:about="">
        <dc:format>image/svg+xml</dc:format>
        <dc:type
           rdf:resource="http://purl.org/dc/dcmitype/StillImage" />
        <dc:title></dc:title>
      </cc:Work>
    </rdf:RDF>
  </metadata>
  <g
     inkscape:label="Layer 1"
     inkscape:groupmode="layer"
     id="layer1"
     transform="translate(0,-291)">
    <g
       transform="matrix(0.25691619,0,0,0.26801702,-60.975538,207.77202)"
       style="opacity:0.8"
       id="g2791">
      <g
         transform="matrix(0.8818534,0,0,0.85150373,-218.20027,133.16026)"
         style="opacity:0.8"
         id="g2391">
        <path
           d="m 560.5,215.9 h -4.4 c -0.6,0 -1.1,-0.5 -1.4,-0.9 -2.4,-3.8 -6.8,-6.2 -11.7,-6.2 -5.1,0 -9.6,2.5 -11.9,6.5 v 0 c 0,0.2 -0.2,0.5 -0.8,0.5 h -4.8 c -0.6,0 -1.2,0.5 -1.2,1.2 v 7.9 c 0,0.7 0.5,1.2 1.2,1.2 h 4 c 0.3,0 0.6,0.2 0.8,0.5 0.1,0.1 0.1,0.2 0.3,0.3 0.2,0.2 0.4,0.6 0.6,0.8 2.4,4 7,6.4 11.9,6.4 4.8,0 9.1,-2.1 11.5,-5.5 0.1,-0.1 0.1,-0.2 0.2,-0.4 0.3,-0.4 0.7,-1.1 1.1,-1.7 0.2,-0.4 0.4,-0.5 0.7,-0.5 h 4 c 0.7,0 1.2,-0.5 1.2,-1.2 V 217 c -0.1,-0.6 -0.6,-1.1 -1.3,-1.1 z m -30,0.3 v 0 c 0.4,-0.1 0.7,-0.4 0.8,-0.8 2.2,-3.9 6.7,-6.3 11.6,-6.3 4.8,0 9.2,2.3 11.5,6 0.3,0.5 0.9,1.1 1.6,1.1 h 4.4 c 0.2,0 0.4,0.1 0.5,0.2 l -1.1,1 c -0.1,-0.1 -0.2,-0.1 -0.4,-0.1 h -33.1 c -0.1,0 -0.3,0 -0.4,0.1 l -0.9,-1.1 c 0.1,0 0.2,-0.1 0.3,-0.1 z m 3.2,14.2 c -0.3,-0.3 -0.8,-0.7 -1.2,-1.2 -0.3,-0.4 -0.6,-0.7 -0.9,-1.1 -0.3,-0.4 -0.5,-0.8 -0.7,-1.1 -0.2,-0.4 -0.4,-0.6 -0.4,-0.7 -0.1,-0.3 -0.3,-0.6 0,-1 0.2,-0.3 0.8,-0.7 1.2,-0.8 l 2.3,1.4 -0.1,0.2 -2,-1.1 c 1.5,4.4 5.9,7.5 11.1,7.5 5.1,0 9.1,-3.1 10.7,-7.3 L 552,226 v 0 c 0,0 0,-0.1 0,-0.1 0,0 0,0 0,0 l 2.4,-1.4 1.5,1.2 c -0.5,1.2 -1.9,3.4 -3.7,3.1 -2.5,2.7 -5.3,4 -9.1,4 -3.8,0 -7.2,-1.5 -9.5,-3.9 l -1.1,-0.4 c 0.3,0.8 0.8,1.5 1.2,1.9 0,0 0,0 0,0 z m 18,-4.1 c -1.3,3.7 -5.3,5 -8.7,5.1 -3.3,-0.1 -7.4,-1.4 -8.7,-5.1 0,-0.1 0,-0.2 0,-0.2 0,0 0,0 0,0 h 17.3 c 0,0 0,0 0,0 0.1,0 0.1,0.1 0.1,0.2 z m 8.2,-8.3 v 5.4 c 0,0.2 -0.2,0.4 -0.4,0.4 h -33.1 c -0.2,0 -0.4,-0.2 -0.4,-0.4 V 218 c 0,-0.2 0.2,-0.4 0.4,-0.4 h 33.1 c 0.2,0 0.4,0.2 0.4,0.4 z"
           id="path2375"
           inkscape:connector-curvature="0" />
        <path
           d="m 534.4,217 h 17.5 c 0.6,0 0.4,-0.5 0.2,-0.8 0.7,0.1 1.2,0.4 1.7,0.8 -1.5,-4.7 -5.8,-7 -10.8,-7 -5.1,0 -9.2,2.8 -10.8,7.1 0.4,-0.3 1.1,-0.7 1.6,-0.8 0.1,0.4 0.2,0.7 0.6,0.7 z m 0.1,-0.9 c 1.5,-3.8 4.8,-5.1 8.5,-5.1 3.8,0 7.7,1.3 8.9,5.1 0,0 0,0.1 0,0.1 0,0 0,0 0,-0.1 0,0.2 0,0.3 -0.2,0.3 h -16.9 c -0.2,0 -0.4,0 -0.3,-0.3 z"
           id="path2377"
           inkscape:connector-curvature="0" />
        <polygon
           points="530.1,219.2 531.6,222.9 533.6,222.9 533.6,218.2 532.3,218.2 532.3,221.8 530.9,218.2 528.8,218.2 528.8,222.9 530.1,222.9 "
           id="polygon2379" />
        <rect
           x="534.70001"
           y="218.2"
           width="1.3"
           height="4.5999999"
           id="rect2381" />
        <polygon
           points="549.9,222 549.6,221 548.3,221 549,219.3 550.2,222.9 551.6,222.9 549.9,218.2 548,218.2 546.4,222.9 547.7,222.9 548,222 "
           id="polygon2383" />
        <path
           d="m 539.6,220 h -1.4 v -0.8 h 2.6 v -1 h -2.7 c -0.7,0 -1.3,0.3 -1.3,1.3 0,0.5 0.1,1.5 1.6,1.5 h 1.4 v 0.8 H 537 v 1.1 h 2.9 c 0.7,0 1.3,-0.5 1.3,-1.4 0,-1 -0.5,-1.5 -1.6,-1.5 z"
           id="path2385"
           inkscape:connector-curvature="0" />
        <polygon
           points="553.3,219.2 554.8,222.9 556.9,222.9 556.9,218.2 555.6,218.2 555.6,221.8 554.2,218.2 552,218.2 552,222.9 553.3,222.9 "
           id="polygon2387" />
        <path
           d="m 544.5,220 h -1.4 v -0.8 h 2.6 v -1 H 543 c -0.7,0 -1.3,0.3 -1.3,1.3 0,0.5 0.1,1.5 1.6,1.5 h 1.4 v 0.8 h -2.9 v 1.1 h 2.9 c 0.7,0 1.3,-0.5 1.3,-1.4 0.1,-1 -0.4,-1.5 -1.5,-1.5 z"
           id="path2389"
           inkscape:connector-curvature="0" />
      </g>
    </g>
  </g>
</svg>
