<?xml version="1.0" encoding="UTF-8" standalone="no"?>
<!-- Created with Inkscape (http://www.inkscape.org/) -->

<svg
   xmlns:dc="http://purl.org/dc/elements/1.1/"
   xmlns:cc="http://creativecommons.org/ns#"
   xmlns:rdf="http://www.w3.org/1999/02/22-rdf-syntax-ns#"
   xmlns:svg="http://www.w3.org/2000/svg"
   xmlns="http://www.w3.org/2000/svg"
   xmlns:sodipodi="http://sodipodi.sourceforge.net/DTD/sodipodi-0.dtd"
   xmlns:inkscape="http://www.inkscape.org/namespaces/inkscape"
   width="12mm"
   height="6mm"
   viewBox="0 0 12 6"
   version="1.1"
   id="svg9425"
   inkscape:version="0.92.2 (5c3e80d, 2017-08-06)"
   sodipodi:docname="pejo.svg">
  <defs
     id="defs9419" />
  <sodipodi:namedview
     id="base"
     pagecolor="#ffffff"
     bordercolor="#666666"
     borderopacity="1.0"
     inkscape:pageopacity="0.0"
     inkscape:pageshadow="2"
     inkscape:zoom="12.087093"
     inkscape:cx="39.057317"
     inkscape:cy="1.4910362"
     inkscape:document-units="mm"
     inkscape:current-layer="g4833"
     showgrid="false"
     inkscape:window-width="1920"
     inkscape:window-height="1017"
     inkscape:window-x="-8"
     inkscape:window-y="-8"
     inkscape:window-maximized="1" />
  <metadata
     id="metadata9422">
    <rdf:RDF>
      <cc:Work
         rdf:about="">
        <dc:format>image/svg+xml</dc:format>
        <dc:type
           rdf:resource="http://purl.org/dc/dcmitype/StillImage" />
        <dc:title></dc:title>
      </cc:Work>
    </rdf:RDF>
  </metadata>
  <g
     inkscape:label="Layer 1"
     inkscape:groupmode="layer"
     id="layer1"
     transform="translate(0,-291)">
    <g
       transform="matrix(0.25691619,0,0,0.26801702,-60.975538,207.77202)"
       style="opacity:0.8"
       id="g2791">
      <g
         transform="translate(-428.30763,-0.14631344)"
         style="opacity:0.8"
         id="g4833">
        <path
           inkscape:connector-curvature="0"
           d="m 692.27697,316.60319 0.37477,0.16594 c 0.0937,-0.24892 0.28106,-0.58082 0.37475,-0.99569 -0.0937,-0.16595 -0.18737,-0.41488 -0.28107,-0.6638 -0.0937,0.16594 -0.18738,0.41487 -0.18738,0.58082 -0.0937,0.24893 -0.18738,0.49785 -0.18738,0.58082 0,0.083 -0.0937,0.16596 -0.28107,0.16596 -0.0937,0 -0.0937,0 -0.28106,-0.083 -0.0937,0.24892 -0.0937,0.3319 -0.18738,0.49784 0,0.16595 -0.0937,0.24893 -0.18738,0.41488 0.28106,0.3319 0.65582,0.91272 0.93689,1.24462 0,0 0,0 0,0 -0.18737,-0.3319 -0.46845,-0.58082 -0.56213,-0.74677 0.28106,-0.49785 0.37476,-0.6638 0.46844,-1.16165 z"
           id="path1233"
           style="stroke-width:0.88169521" />
        <path
           inkscape:connector-curvature="0"
           d="m 683.47016,323.90496 c 0.18737,0 0.28107,0.083 0.46845,0.16595 -0.18738,-0.16595 -0.46845,-0.3319 -0.65583,-0.41487 0.0937,0.16595 0.18738,0.24892 0.18738,0.24892 z"
           id="path1235"
           style="stroke-width:0.88169521" />
        <path
           inkscape:connector-curvature="0"
           d="m 691.05901,321.74762 c 0,0 0,0.083 0,0 0,0.083 0,0.083 0,0 z"
           id="path1237"
           style="stroke-width:0.88169521" />
        <path
           inkscape:connector-curvature="0"
           d="m 685.34395,318.01376 h 1.49903 l -0.28107,-0.33191 h -1.49903 c -0.0937,0.24893 -0.37476,0.49785 -1.03059,0.58083 0,0 0.0937,0 0.0937,0 0.0937,0.0829 0.28106,0.3319 0.28106,0.3319 0.37476,0.083 0.84321,-0.24893 0.9369,-0.58082 z"
           id="path1239"
           style="stroke-width:0.88169521" />
        <path
           inkscape:connector-curvature="0"
           d="m 683.75123,317.93078 c -0.18738,0 -0.28107,0.083 -0.37476,0.16595 l -0.0937,0.16595 v 0 c 0.0937,0.0829 0.18738,0.16595 0.28107,0.24892 0.0937,-0.083 0.18738,-0.24892 0.46844,-0.24892 0,0 0,0 -0.0937,0 h -0.18738 v -0.16595 z"
           id="path1241"
           style="stroke-width:0.88169521" />
        <path
           inkscape:connector-curvature="0"
           d="m 694.15077,315.02667 c -0.0937,-0.083 -0.0937,-0.16596 -0.0937,-0.24893 -0.0937,-0.3319 0,-0.91273 0.28107,-1.3276 0,0 0,0 0,0 -0.0937,0 -0.0937,0 -0.0937,0 -0.18739,0 -0.28107,0.083 -0.37477,0.24893 -0.18738,0.24892 -0.18738,0.49785 0,1.16164 0.0937,0.41487 0.46845,1.16165 0.65583,1.57653 v 0.0829 c 0.28108,0.49785 0.37476,0.74678 0.46845,1.3276 0.0937,0.49784 -0.0937,0.9957 -0.37475,1.24462 -0.46845,0.41488 -1.12428,0.58082 -1.49904,0.66379 0.18738,0.41488 0.37476,0.6638 0.37476,0.82975 0.0937,0.16595 0.18737,0.24893 0.28107,0.3319 -0.0937,-0.24892 -0.28107,-0.58082 -0.37476,-0.74677 0,0 0.93689,-0.083 1.49903,-0.74677 0.18738,-0.24893 0.46845,-0.58082 0.46845,-1.07868 0,-0.99569 -0.93689,-2.48923 -1.12427,-3.07006 0,0 0,-0.16595 -0.0937,-0.24892 z"
           id="path1243"
           style="stroke-width:0.88169521" />
        <path
           inkscape:connector-curvature="0"
           d="m 684.59443,315.44154 c -0.0937,-0.083 -0.18738,-0.24892 -0.28107,-0.3319 -0.0937,0 -0.28107,0 -0.46845,0 -0.18738,0 -0.37475,0 -0.56213,-0.083 l 0.18738,0.24892 c 0.37475,0.24893 0.65583,0.24893 1.12427,0.16595 z"
           id="path1245"
           style="stroke-width:0.88169521" />
        <path
           inkscape:connector-curvature="0"
           d="m 687.96725,313.20122 c 0.0937,0 0.0937,0 0.18738,0 0.0937,0 0.18738,0 0.28107,0 -0.0937,-0.083 -0.28107,-0.083 -0.37475,-0.083 -0.18738,0 -0.28108,0.083 -0.37476,0.16595 v 0 c 0.18738,-0.083 0.28106,-0.083 0.28106,-0.083 z"
           id="path1247"
           style="stroke-width:0.88169521" />
        <path
           inkscape:connector-curvature="0"
           d="m 695.18135,324.90065 c 0.0937,0 0.18738,-0.16595 0.18738,-0.33189 -0.0937,-0.24893 -0.28107,-0.58083 -0.28107,-0.74677 v -2.07437 c -0.18738,-0.16595 -0.37476,-0.41488 -0.37476,-0.41488 v 2.07437 0 0 c 0,0.16595 0.0937,0.41488 0.0937,0.49785 0.0937,0.16595 0.0937,0.3319 0,0.41487 -0.0937,0.083 -0.18738,0.16595 -0.28108,0.16595 v 0 0 c -0.0937,0 -0.28106,0 -0.37475,-0.083 -0.37476,-0.0829 -0.65583,-0.0829 -0.84321,-0.0829 -0.28107,0 -0.65582,0.0829 -1.12427,0.24892 h -0.0937 l -0.0937,-0.083 v 0 c -0.18738,-0.0829 -0.56214,-0.3319 -1.03059,-0.41487 0.18738,0.16595 0.28107,0.3319 0.28107,0.3319 0.65582,0 1.12427,0.33189 1.40535,0.41487 1.03057,-0.24892 1.49903,-0.083 2.52961,0.083 z"
           id="path1249"
           style="stroke-width:0.88169521" />
        <path
           inkscape:connector-curvature="0"
           d="m 682.72064,314.69476 v 0 l 0.18738,-0.16594 c -0.18738,-0.16595 -0.28107,-0.16595 -0.37476,-0.16595 0,0 0,0 -0.0937,0 0,0 0,0 0,0 0,0 0.18738,0.24892 0.28107,0.33189 0,0 0,0 0,0 z"
           id="path1251"
           style="stroke-width:0.88169521" />
        <path
           inkscape:connector-curvature="0"
           d="m 687.49881,314.61179 c 0,0 0,0 0,0 0,0 0.0937,0 0,0 0.0937,0 0.0937,0 0,0 z"
           id="path1253"
           style="stroke-width:0.88169521" />
        <path
           inkscape:connector-curvature="0"
           d="m 696.21194,316.43724 c 0.18738,-0.083 -0.28107,-0.74678 -0.28107,-0.91273 0,-0.083 0,-0.24893 0.0937,-0.33189 0.0937,-0.16595 0.0937,-0.33191 0.18738,-0.58083 0.0937,-0.41487 -0.0937,-0.91272 -0.46845,-1.24462 0.0937,0.24893 0.0937,0.49784 0.0937,0.74677 0,0.16595 -0.0937,0.3319 -0.18738,0.49785 0,0 0,0.083 0,0.083 0,0.083 -0.0937,0.24892 -0.0937,0.3319 0,0.083 0.0937,0.16595 0.0937,0.24892 0.18738,0.3319 0.28108,0.58083 0.0937,0.74677 0,0 -0.0937,0.083 -0.18738,0.083 0,0 -0.0937,0 -0.18738,0 0.0937,0.083 0.28106,0.16595 0.37476,0.24893 0,-0.083 0.37476,0.083 0.46845,0.083 z"
           id="path1255"
           style="stroke-width:0.88169521" />
        <path
           inkscape:connector-curvature="0"
           d="m 692.65174,313.28419 c -0.0937,-0.16595 -0.18738,-0.24891 -0.28108,-0.33189 0.0937,0.16594 0.18738,0.24892 0.28108,0.33189 0,0.083 0,0.083 0,0 z"
           id="path1257"
           style="stroke-width:0.88169521" />
        <path
           inkscape:connector-curvature="0"
           d="m 690.12211,321.24977 c 0,0 0.65583,0.41487 0.9369,0.58082 0.46845,0.3319 0.74952,0.41488 1.21796,0.6638 0.0937,0 0.0937,0 0.18739,-0.083 0,-0.083 0,-0.16595 -0.0937,-0.24892 -0.0937,-0.083 -0.18737,-0.083 -0.28107,-0.083 -0.0937,0 -0.0937,0 -0.18738,0 v 0 0 h -0.18738 -0.0937 -0.0937 c 0,0 -0.8432,-0.41487 -1.40535,-0.82975 -0.0937,-0.083 -0.28106,-0.16595 -0.37476,-0.24892 -0.0937,-0.083 -0.18737,-0.083 -0.18737,-0.16595 -1.12428,0.91272 -2.52962,2.15734 -2.62331,2.40627 -0.0937,0.24892 -0.0937,0.41487 0,0.49784 0.0937,0.16596 0.0937,0.3319 0,0.49785 -0.0937,0.083 -0.18738,0.083 -0.28107,0.083 0,0 -0.0937,0 -0.0937,0 -0.0937,0 -0.8432,-0.24893 -1.49903,-0.24893 -0.37476,0 -0.56214,0.083 -0.74952,0.16595 v 0 c 0.18738,0.083 0.28107,0.24893 0.37476,0.33191 0.65583,-0.33191 1.96748,0 2.52962,0.083 0.18738,0.083 0.28107,0 0.28107,-0.24893 0,-0.16595 -0.18738,-0.49785 -0.0937,-0.82975 0.18737,-0.41487 1.87379,-1.57652 2.71699,-2.32329 z"
           id="path1259"
           style="stroke-width:0.88169521" />
        <path
           inkscape:connector-curvature="0"
           d="m 682.25219,314.27989 c 0.0937,0 0.18738,0 0.28107,0 0,0 0,0 0,0 0.18738,0 0.46844,0.083 0.65583,0.41487 l -0.0937,0.083 -0.18738,0.16595 c 0.0937,0 0.18738,0.083 0.37476,0.083 0.18738,0 0.37475,0 0.46845,0 0.18738,0 0.37476,0 0.56213,-0.083 0,0 0.18738,0.24893 0.46845,0.58082 0.37476,0.41488 0.74952,0.82975 0.74952,0.82975 0.0937,0 -0.46845,0.083 -1.03059,0.083 -0.46845,0 -0.93689,0 -1.31165,0 -0.37476,0 -0.56214,0.24893 -0.65583,0.41487 -0.0937,0.16595 -0.18738,0.58083 -0.0937,0.74677 l 0.18738,-0.083 c 0,0.083 0.0937,0.083 0.0937,0.16595 0.18738,0.24892 0.18738,0.24892 0.46845,0.3319 0.18738,-0.3319 0.56214,-0.3319 0.74952,-0.3319 0,0 0.0937,0 0.0937,0 v 0.3319 c 0.9369,0 0.9369,-0.58082 0.9369,-0.58082 h 1.7801 l 0.46845,0.49784 0.65583,0.6638 c -0.9369,0.82975 -1.49904,1.82544 -2.24856,2.98709 0.28108,0.24892 0.18738,0.82975 -0.28106,0.82975 0,0 0,0 -0.0937,0 -0.28107,0 -0.65583,-0.16595 -1.03059,-0.16595 -0.0937,0 -0.0937,0 -0.18738,0 -0.56213,0.083 -0.46844,0.58082 -0.93689,1.07867 0.0937,0 0.18738,0.0829 0.28107,0.0829 0.37476,0.16596 0.74952,0.33191 0.93689,0.58083 0.18738,-0.16595 0.56214,-0.16595 0.9369,-0.16595 0.56213,0 1.21796,0.16595 1.59272,0.24892 0,0 0,0 0,0 0.0937,0 0.0937,-0.16594 0.0937,-0.33189 -0.0937,-0.16595 -0.18738,-0.33191 0,-0.6638 0.0937,-0.24893 1.68641,-1.6595 2.81068,-2.57222 v 0 c 0,0 0,0 0,0 0.0937,0.083 0.37476,0.24893 0.74952,0.49785 0.56214,0.41487 1.40534,0.82974 1.40534,0.82974 h 0.18738 c 0.0937,0 0.18738,0 0.18738,0 0,0 0.0937,0 0.0937,0 0,0 0,0 0.0937,0 0,0 0.0937,0 0.0937,0 0,0 0,0 0.0937,0 0,0 0,0 0,0 0.0937,0.083 0.18738,0.24893 0.18738,0.41488 0,0.083 0,0.083 0,0.16595 0,0.083 -0.0937,0.083 -0.0937,0.083 0,0 0,0 0,0 0,0 -0.0937,0.083 -0.0937,0.083 0,0 0,0 0,0 0,0 -0.0937,0 -0.0937,0 0,0 0,0 0,0 -0.0937,0 -0.0937,0 -0.18738,0 -0.28107,0 -0.56213,-0.16594 -1.03058,0.083 -0.37476,0.16595 -0.18738,0.82975 -0.46844,1.07868 0.18737,0 0.28106,0 0.46844,0.083 0.46845,0.083 0.74951,0.24892 1.03058,0.41487 1.03059,-0.41487 1.40535,-0.24892 2.43594,-0.083 0.0937,0 0.0937,-0.16596 0,-0.3319 -0.0937,-0.083 -0.18738,-0.3319 -0.18738,-0.58082 v -0.58083 -1.41057 -0.083 c 0,0 0,0 0,0 v 0 c -0.18738,0 -0.37476,0 -0.56215,0 -0.18738,0 -0.28106,-0.083 -0.37476,-0.16594 0,0 0,0 0,0 0,0 -0.0937,-0.083 -0.0937,-0.083 0,0 0,0 0,0 -0.0937,-0.083 -0.0937,-0.16595 -0.0937,-0.24893 -0.0937,-0.24892 -0.37476,-0.74677 -0.46845,-1.07866 0,0 0.74952,0 1.31165,-0.33191 0.0937,-0.083 0.28108,-0.16595 0.37476,-0.24892 0.0937,-0.083 0.0937,-0.16595 0.18738,-0.24892 0.0937,-0.24893 0.18738,-0.49786 0.0937,-0.82975 -0.0937,-0.58082 -0.28107,-0.9957 -0.46845,-1.32759 -0.18738,-0.41488 -0.56213,-1.16166 -0.74951,-1.6595 -0.0937,-0.3319 -0.18738,-0.58082 -0.18738,-0.74677 0,-0.083 0,-0.083 0,-0.16596 0,0 0,0 0,0 0,-0.16595 0.0937,-0.24891 0.18738,-0.41487 0.0937,-0.16595 0.28106,-0.3319 0.56213,-0.3319 0.0937,0 0.0937,0 0.18738,0.083 0.18738,0.083 0.18738,0.16595 0.18738,0.16595 -0.0937,0.083 -0.0937,0.24893 -0.18738,0.3319 -0.0937,0.3319 -0.18738,0.6638 -0.0937,0.91272 0.0937,0.3319 0.37476,0.58082 0.56213,0.74677 0.0937,0.083 0.28107,0.24893 0.37476,0.24893 0,0 0.37476,0.24892 0.46844,0.16595 0.18739,-0.083 -0.28106,-0.74677 -0.28106,-0.91272 0,-0.083 0.0937,-0.24893 0.0937,-0.33191 0.0937,-0.16594 0.18738,-0.33189 0.18738,-0.58082 0.0937,-0.41487 -0.0937,-0.82975 -0.37475,-1.07866 -0.18738,-0.16596 -0.46845,-0.24893 -0.74952,-0.33191 -0.18738,0 -0.93689,-0.16595 -1.49903,0.58082 -0.0937,0.083 -0.0937,0.16596 -0.18738,0.33191 -0.0937,0.16595 -0.0937,0.33189 -0.0937,0.49784 -0.28106,-0.58082 -0.56214,-1.24462 -0.93689,-1.65949 0,-0.083 -0.18738,-0.16595 -0.28108,-0.3319 -0.0937,-0.083 -0.18737,-0.16595 -0.28106,-0.24892 -0.46845,-0.083 -1.31166,-0.3319 -1.59272,-0.3319 0,0 0,0 0,0 0,0 0,0 0,0 -0.18738,0 -1.68642,0.49785 -1.68642,0.58082 0,0 -0.18738,0.16595 -0.18738,0.16595 -0.37476,0.083 -1.03058,0.16595 -1.12427,0.24892 -0.18738,0.16595 0,0.3319 0,0.41488 0,0 0.0937,0.41487 0.37476,0.41487 h 0.0937 0.46844 c 0.0937,-0.16595 0.37476,-0.33189 0.65583,-0.33189 0.28107,0 0.56214,0.16594 0.65583,0.41487 0,0 -0.0937,0 -0.0937,0 -0.0937,0.083 -0.28107,0.083 -0.46845,0.083 -0.0937,0 -0.0937,0 -0.18738,0 0,0 0,0 0,0 -0.0937,0 -0.18738,0 -0.28106,0 -0.28108,0 -0.46846,0.0829 -0.65583,0.0829 -0.0937,0 -0.0937,0.083 -0.0937,0.083 0,0.083 0.56214,0.16595 0.74952,0.16595 0.18737,0 0.37475,0 0.65582,0 0.0937,0 0.18738,0 0.37476,0 0,0 -0.0937,0.083 -0.0937,0.083 -0.18738,0.16596 -0.46845,0.16596 -0.65583,0.16596 h -0.46844 -0.37476 c 0,0.16595 0.0937,0.3319 0.18738,0.41487 h 0.37476 c 0.18737,0 0.18737,0.083 0.18737,0.083 0,0 0,0.083 0,0.083 0,0.083 -0.0937,0.083 -0.0937,0.16595 -0.0937,0.24893 -0.28106,0.49785 -0.46844,0.6638 -0.9369,-0.6638 -2.15486,-1.57652 -2.99807,-2.15734 -0.18738,-0.083 -0.65583,-0.16595 -1.12427,-0.16595 -0.28107,0 -0.46845,0 -0.65583,0.083 -0.18738,0.0829 -0.28107,0.16595 -0.28107,0.24892 l 0.28107,0.083 c -0.93689,0.16595 -0.65583,0.6638 -0.65583,0.6638 z m 6.83934,-2.07436 c 0,0 0,0 0,0 0,0 0,0 0,0 z m 3.37283,6.63798 c -0.0937,0 -0.0937,0 0,0 v 0 c -0.37477,-0.41488 -0.84321,-1.07868 -1.12428,-1.41057 0.18738,-0.58083 0.28107,-0.74678 0.37475,-1.32761 0,0 0.28108,0.16595 0.37476,0.16595 0,0 0,0 0,0 0,0 0,0 0,0 v 0 c 0,0 0,0 0,0 0.0937,-0.24892 0.56215,-1.41057 0.56215,-1.82544 0,0 0.0937,0.16595 0.18738,0.41487 0.0937,0.24893 0.18737,0.41487 0.28106,0.58083 0.0937,0.3319 0.28107,0.58082 0.37476,0.82974 0.28107,0.6638 0.37475,0.91273 0.46845,1.3276 0.0937,0.3319 0,0.6638 -0.0937,0.82975 -0.0937,0.083 -0.18738,0.16595 -0.37475,0.24892 0,0 0,0 0,0 -0.0937,0 -0.0937,0 -0.18738,0.083 0,0 0,0 0,0 0,0 -0.0937,0 -0.0937,0 0,0 0,0 -0.0937,0 -0.0937,0 -0.0937,0 -0.18738,0 0,0 -0.0937,0 -0.0937,0 0,0 -0.0937,0 -0.0937,0 -0.0937,0 -0.0937,0 -0.18738,0 v 0 c 0,0 -0.0937,0 -0.0937,0 0,0.083 0,0.083 0,0.083 z m -4.21604,-6.47203 c 0,-0.083 0,-0.16595 0,-0.3319 0.18738,0 0.56214,-0.083 0.74952,-0.083 0,0 0.0937,0 0.0937,0 0.0937,0 0.0937,0.16595 0,0.16595 -0.28107,0.16595 -0.56214,0.24892 -0.84321,0.24892 0,0.083 0,0.083 0,0 z"
           id="path1261"
           style="stroke-width:0.88169521" />
        <path
           inkscape:connector-curvature="0"
           d="m 698.08573,328.13667 c -1.40535,0 -2.34224,0.82975 -2.24856,2.07437 0,1.24462 0.93691,1.99139 2.34225,1.90841 1.40534,0 2.24854,-0.82974 2.24854,-2.15734 0,-1.07867 -0.93689,-1.90841 -2.34223,-1.82544 z m 0.0937,3.56791 c -0.74952,0 -1.12428,-0.49784 -1.21797,-1.41057 0,-0.9957 0.37476,-1.65949 1.12428,-1.65949 0.74951,0 1.12427,0.66379 1.12427,1.57652 0.0937,0.49784 -0.0937,1.49354 -1.03058,1.49354 z"
           id="path1263"
           style="stroke-width:0.88169521" />
        <path
           inkscape:connector-curvature="0"
           d="m 690.12211,331.53863 c 0,0 -0.0937,0.083 0,0 -0.18738,0.083 -0.46844,0.083 -0.74951,0.083 -0.74952,-0.083 -1.21797,-0.6638 -1.21797,-1.49354 0,-0.91273 0.9369,-1.49355 1.59272,-1.49355 0.65583,0 1.03059,0.083 1.21797,0.16595 l 0.18738,-0.41488 c -0.46844,-0.16594 -1.03059,-0.24892 -1.49903,-0.24892 -2.06118,0 -2.717,1.24462 -2.717,1.9914 0,1.07867 0.74952,1.99139 2.52962,1.99139 1.12427,0 1.87379,-0.3319 1.87379,-0.3319 v -1.57652 h -1.12427 v 1.3276 z"
           id="path1265"
           style="stroke-width:0.88169521" />
        <path
           inkscape:connector-curvature="0"
           d="m 690.87164,328.80047 c 0,0 0,0 0,0 0,0 0,0 0,0 z"
           id="path1267"
           style="stroke-width:0.88169521" />
        <path
           inkscape:connector-curvature="0"
           d="m 690.87164,328.80047 c -0.0937,0 0,0 0,0 z"
           id="path1269"
           style="stroke-width:0.88169521" />
        <polygon
           transform="matrix(0.93689555,0,0,0.82974713,224.76611,248.14904)"
           points="509.3,97.2 509.3,101 510.5,101 510.5,97.2 512,97.2 512,96.6 507.9,96.6 507.9,97.2 "
           id="polygon1271" />
        <path
           inkscape:connector-curvature="0"
           d="m 677.09926,328.38559 c -0.28106,-0.083 -0.46844,-0.16594 -1.31165,-0.16594 h -2.24855 v 3.73385 h 1.21797 v -1.32759 h 1.12427 c 1.03058,0 1.87379,-0.16594 1.87379,-1.24462 0,-0.41487 -0.28107,-0.82975 -0.65583,-0.9957 z m -1.49903,1.82545 h -0.8432 v -1.49355 h 0.93689 c 0.56214,0 0.9369,0.3319 0.9369,0.74678 -0.0937,0.41487 -0.46845,0.74677 -1.03059,0.74677 z"
           id="path1273"
           style="stroke-width:0.88169521" />
        <path
           inkscape:connector-curvature="0"
           d="m 685.15657,330.79186 c 0,0.49785 -0.37476,0.82975 -0.9369,0.82975 v 0 c -0.46844,0 -0.93689,-0.3319 -0.93689,-0.82975 0,-0.58082 0,-2.48924 0,-2.48924 h -1.12427 v 2.24031 c 0,0.66381 0.18737,0.91273 0.37475,1.16165 0.37476,0.3319 0.84321,0.49785 1.59273,0.49785 v 0 c 0.74951,0 1.21796,-0.16595 1.59272,-0.49785 0.28106,-0.24892 0.37476,-0.49784 0.37476,-1.07867 v -2.24032 h -1.12428 c 0.18738,-0.083 0.18738,1.82545 0.18738,2.40627 z"
           id="path1275"
           style="stroke-width:0.88169521" />
        <polygon
           transform="matrix(0.93689555,0,0,0.82974713,224.76611,248.14904)"
           points="487.5,97.2 487.5,96.6 484,96.6 484,101 487.5,101 487.5,100.3 485.2,100.3 485.2,98.8 487,98.8 487,98.3 485.2,98.3 485.2,97.2 "
           id="polygon1277" />
        <polygon
           transform="matrix(0.93689555,0,0,0.82974713,224.76611,248.14904)"
           points="502.3,97.2 502.3,96.6 498.9,96.6 498.9,101 502.3,101 502.3,100.3 500.1,100.3 500.1,98.9 501.9,98.9 501.9,98.3 500.1,98.3 500.1,97.2 "
           id="polygon1279" />
      </g>
    </g>
  </g>
</svg>
