<?xml version="1.0" encoding="UTF-8" standalone="no"?>
<!-- Created with Inkscape (http://www.inkscape.org/) -->

<svg
   xmlns:dc="http://purl.org/dc/elements/1.1/"
   xmlns:cc="http://creativecommons.org/ns#"
   xmlns:rdf="http://www.w3.org/1999/02/22-rdf-syntax-ns#"
   xmlns:svg="http://www.w3.org/2000/svg"
   xmlns="http://www.w3.org/2000/svg"
   xmlns:sodipodi="http://sodipodi.sourceforge.net/DTD/sodipodi-0.dtd"
   xmlns:inkscape="http://www.inkscape.org/namespaces/inkscape"
   width="12mm"
   height="6mm"
   viewBox="0 0 12 6"
   version="1.1"
   id="svg9425"
   inkscape:version="0.92.2 (5c3e80d, 2017-08-06)"
   sodipodi:docname="skoda.svg">
  <defs
     id="defs9419" />
  <sodipodi:namedview
     id="base"
     pagecolor="#ffffff"
     bordercolor="#666666"
     borderopacity="1.0"
     inkscape:pageopacity="0.0"
     inkscape:pageshadow="2"
     inkscape:zoom="12.087093"
     inkscape:cx="30.628893"
     inkscape:cy="11.418982"
     inkscape:document-units="mm"
     inkscape:current-layer="g3031"
     showgrid="false"
     inkscape:window-width="1280"
     inkscape:window-height="961"
     inkscape:window-x="-8"
     inkscape:window-y="44"
     inkscape:window-maximized="1" />
  <metadata
     id="metadata9422">
    <rdf:RDF>
      <cc:Work
         rdf:about="">
        <dc:format>image/svg+xml</dc:format>
        <dc:type
           rdf:resource="http://purl.org/dc/dcmitype/StillImage" />
        <dc:title></dc:title>
      </cc:Work>
    </rdf:RDF>
  </metadata>
  <g
     inkscape:label="Layer 1"
     inkscape:groupmode="layer"
     id="layer1"
     transform="translate(0,-291)">
    <g
       transform="matrix(0.25691619,0,0,0.26801702,-60.975538,207.77202)"
       style="opacity:0.8"
       id="g2791">
      <g
         transform="translate(-428.30763,-0.14631344)"
         style="opacity:0.8"
         id="g4833">
        <g
           transform="matrix(1.1939555,0,0,1.1939555,437.49933,-142.72369)"
           style="opacity:0.8"
           id="g3031">
          <g
             transform="matrix(0.77842243,0,0,0.74618144,-362.66499,355.91811)"
             id="g4465">
            <path
               inkscape:connector-curvature="0"
               id="path4445"
               d="m 736.5,32.2 v 0 0 c -3.4,0 -6.4,1.4 -8.7,3.6 -2.2,2.2 -3.6,5.3 -3.6,8.7 v 0 0 c 0,3.4 1.4,6.4 3.6,8.7 2.2,2.2 5.3,3.6 8.7,3.6 v 0 0 c 3.4,0 6.4,-1.4 8.7,-3.6 2.2,-2.2 3.6,-5.3 3.6,-8.7 v 0 0 c 0,-3.4 -1.4,-6.4 -3.6,-8.7 -2.3,-2.3 -5.3,-3.6 -8.7,-3.6 z m 12,12.2 v 0 c 0,3.3 -1.3,6.3 -3.5,8.5 -2.2,2.2 -5.2,3.5 -8.5,3.5 v 0 0 c -3.3,0 -6.3,-1.3 -8.4,-3.5 -2.2,-2.2 -3.5,-5.2 -3.5,-8.4 v 0 0 c 0,-3.3 1.3,-6.3 3.5,-8.4 2.2,-2.2 5.2,-3.5 8.4,-3.5 v 0 0 c 3.3,0 6.3,1.3 8.5,3.5 2.1,2 3.5,5 3.5,8.3 z" />
            <path
               inkscape:connector-curvature="0"
               id="path4447"
               d="m 739.7,36.4 c 0.3,0.1 0.5,0.2 0.6,0.2 0.1,0 0.3,0 0.4,0 0.2,0 0.3,-0.1 0.5,-0.2 0.1,-0.1 0.2,-0.3 0.3,-0.5 0.1,-0.2 0.1,-0.4 0.1,-0.5 0,-0.2 -0.1,-0.3 -0.2,-0.5 -0.1,-0.1 -0.2,-0.2 -0.3,-0.3 -0.1,-0.1 -0.3,-0.2 -0.7,-0.3 l -0.4,-0.2 -0.9,2.1 z m 0.8,-1.7 v 0 c 0.3,0.1 0.5,0.3 0.5,0.4 0.1,0.1 0.1,0.3 0,0.5 -0.1,0.2 -0.2,0.3 -0.3,0.4 -0.1,0.1 -0.3,0 -0.6,-0.1 H 740 Z" />
            <path
               inkscape:connector-curvature="0"
               id="path4449"
               d="m 735.4,35.5 c 0.1,0.1 0.2,0.2 0.4,0.3 0.2,0.1 0.3,0.1 0.5,0.1 0.2,0 0.3,0 0.5,-0.1 0.2,-0.1 0.3,-0.1 0.4,-0.3 0.1,-0.1 0.2,-0.2 0.3,-0.4 0.1,-0.1 0.1,-0.3 0.1,-0.5 0,-0.2 0,-0.3 -0.1,-0.5 -0.1,-0.1 -0.1,-0.3 -0.3,-0.4 -0.1,-0.1 -0.2,-0.2 -0.4,-0.3 -0.2,-0.1 -0.3,-0.1 -0.5,-0.1 -0.2,0 -0.3,0 -0.5,0.1 -0.1,0.1 -0.3,0.1 -0.4,0.3 -0.1,0.1 -0.2,0.2 -0.3,0.4 -0.1,0.1 -0.1,0.3 -0.1,0.5 0,0.2 0,0.3 0.1,0.5 0.1,0.2 0.2,0.3 0.3,0.4 z m 0.4,-1.3 c 0.1,-0.1 0.3,-0.2 0.4,-0.2 0.2,0 0.3,0.1 0.4,0.2 0.1,0.1 0.2,0.3 0.2,0.5 0,0.2 -0.1,0.4 -0.2,0.5 -0.1,0.1 -0.3,0.2 -0.4,0.2 -0.2,0 -0.3,-0.1 -0.4,-0.2 -0.1,-0.1 -0.2,-0.3 -0.2,-0.5 0.1,-0.3 0.1,-0.4 0.2,-0.5 z" />
            <path
               inkscape:connector-curvature="0"
               id="path4451"
               d="m 742.2,37.7 0.4,0.5 0.4,-0.2 0.6,0.7 -0.2,0.4 0.4,0.5 1.3,-2.1 -0.5,-0.6 z m 2.2,-0.1 c -0.1,0 -0.1,0 0,0 l -0.5,0.8 -0.4,-0.5 0.7,-0.3 c 0,-0.1 0.1,-0.1 0.2,0 0,-0.1 0.1,-0.1 0.1,-0.2 -0.1,0.1 -0.1,0.1 -0.1,0.2 z" />
            <polygon
               id="polygon4453"
               points="727.8,36.6 727.9,37 727.5,37 727.3,37.2 727.9,37.3 728.2,37 728,36.4 " />
            <path
               inkscape:connector-curvature="0"
               id="path4455"
               d="m 728.3,38.3 c 0.1,0.1 0.3,0.2 0.4,0.2 0.1,0 0.3,-0.1 0.5,-0.2 0.1,-0.1 0.2,-0.1 0.3,-0.2 0.1,0 0.1,0 0.2,0.1 0.1,0 0.1,0.1 0.1,0.2 0,0.1 0,0.1 -0.1,0.2 -0.1,0.1 -0.1,0.1 -0.2,0.2 -0.1,0 -0.2,0.1 -0.4,0.1 l 0.2,0.5 c 0.2,0 0.3,-0.1 0.4,-0.1 0.1,-0.1 0.2,-0.2 0.3,-0.3 0.2,-0.2 0.3,-0.4 0.3,-0.6 0,-0.2 -0.1,-0.4 -0.3,-0.6 -0.1,-0.1 -0.1,-0.1 -0.2,-0.1 -0.1,0 -0.2,0 -0.2,0 -0.1,0 -0.3,0.1 -0.5,0.2 v 0 c -0.1,0.1 -0.2,0.1 -0.2,0.1 -0.1,0 -0.1,0 -0.1,0 0,0 -0.1,-0.1 -0.1,-0.1 0,-0.1 0,-0.1 0.1,-0.2 0,-0.1 0.1,-0.1 0.2,-0.1 0.1,0 0.2,-0.1 0.2,-0.1 L 729,37.1 c -0.1,0 -0.2,0.1 -0.3,0.1 -0.1,0.1 -0.2,0.1 -0.3,0.2 -0.2,0.2 -0.2,0.4 -0.2,0.6 -0.2,0 -0.1,0.2 0.1,0.3 z" />
            <polygon
               id="polygon4457"
               points="732.7,34.1 732,34.5 731.8,35.7 731.4,34.8 730.8,35.1 731.8,37.1 732.4,36.9 731.9,35.9 733.1,36.5 733.8,36.2 732.4,35.5 " />
            <path
               inkscape:connector-curvature="0"
               id="path4459"
               d="m 744.9,48.2 c -0.1,-0.1 -0.2,-0.2 -0.2,-0.2 -0.4,0.7 -0.5,1.5 -0.4,2.3 -0.2,0.2 -0.3,0.4 -0.5,0.6 0,-0.2 -0.1,-0.5 -0.1,-0.7 0,-0.1 0.1,-0.1 0.1,-0.2 -0.1,-0.5 -0.5,-0.5 -0.5,-0.1 0,0.1 -0.1,0.2 0.1,0.4 0,0.3 0.1,0.6 0.1,0.8 -0.5,0.4 -1,1 -1.6,1.4 0,0 0,-0.2 0,-0.2 0.2,-0.4 0.5,-0.8 1,-1.1 0.1,-0.3 0.2,-0.6 0.1,-0.9 -0.6,0.4 -1.2,1 -1.5,1.6 -0.1,0.3 -0.1,0.6 -0.2,0.8 -0.2,0.1 -0.4,0.3 -0.6,0.4 0,-0.2 0.1,-0.3 0.1,-0.5 0.5,-0.6 -0.2,-0.8 -0.4,-0.3 0.1,0.4 0.1,0.6 -0.1,0.9 -0.7,0.3 -1.3,0.5 -2,0.8 0,-0.1 0.1,-0.2 0.1,-0.3 0.4,-0.4 0.8,-0.5 1.4,-0.6 0.3,-0.2 0.4,-0.4 0.3,-0.7 -0.6,0.1 -1.1,0.3 -1.6,0.6 -0.4,0.3 -0.7,0.6 -0.8,1.1 -0.3,0 -0.5,0 -0.8,0.1 0.2,-0.2 0.3,-0.4 0.5,-0.6 0.1,0 0.2,-0.1 0.3,-0.1 0.1,-0.5 -0.1,-0.5 -0.4,-0.4 -0.1,0.1 -0.1,0.2 -0.1,0.4 -0.2,0.2 -0.4,0.4 -0.6,0.5 -0.3,-0.3 -0.5,-0.5 -0.6,-0.7 0,-0.1 0,-0.3 -0.1,-0.4 -0.3,-0.1 -0.5,-0.1 -0.4,0.4 0.1,0.1 0.2,0.2 0.3,0.1 0.2,0.2 0.3,0.4 0.5,0.6 -0.3,0 -0.5,0 -0.8,-0.1 -0.1,-0.5 -0.4,-0.8 -0.8,-1.1 -0.5,-0.3 -1,-0.5 -1.6,-0.6 0,0.3 0.1,0.5 0.3,0.7 0.6,0.1 1,0.2 1.4,0.6 0,0.1 0.1,0.2 0.1,0.3 -0.7,-0.3 -1.3,-0.6 -2,-0.8 -0.1,-0.3 -0.1,-0.6 -0.1,-0.9 -0.2,-0.5 -0.9,-0.3 -0.4,0.3 0,0.2 0.1,0.3 0.1,0.5 -0.2,-0.1 -0.4,-0.3 -0.6,-0.4 0,-0.3 -0.1,-0.6 -0.2,-0.8 -0.4,-0.6 -0.9,-1.1 -1.5,-1.6 -0.1,0.3 0,0.6 0.1,0.9 0.5,0.3 0.7,0.7 1,1.1 0,0 0,0.2 0,0.2 -0.5,-0.4 -1,-1 -1.6,-1.4 0,-0.3 0.1,-0.6 0.1,-0.8 0.2,-0.2 0.2,-0.3 0.1,-0.4 -0.1,-0.3 -0.5,-0.3 -0.5,0.1 0,0.1 0.1,0.1 0.1,0.2 0,0.2 -0.1,0.5 -0.1,0.7 -0.2,-0.2 -0.3,-0.4 -0.5,-0.6 0.1,-0.8 0,-1.6 -0.4,-2.3 -0.1,0.1 -0.2,0.2 -0.2,0.2 -0.2,-0.1 -0.2,-0.2 -0.2,-0.5 -0.2,-0.2 -0.4,-0.1 -0.4,0.2 0.1,0.1 0.3,0.3 0.2,0.5 -0.1,-0.1 -0.3,-0.2 -0.4,-0.2 0,0.2 0,0.4 0,0.5 -0.1,0 -0.1,-0.1 -0.3,-0.2 -0.1,-0.1 -0.1,-0.3 -0.2,-0.4 -0.3,-0.1 -0.5,0 -0.4,0.4 0.1,0 0.2,0.1 0.3,0.2 0.1,0.1 0.2,0.2 0.3,0.3 -0.2,0 -0.3,0.1 -0.5,0.1 0.5,0.6 1.1,1.2 1.9,1.4 0.2,0.2 0.4,0.4 0.6,0.6 -0.1,0 -0.4,0 -0.5,0 -0.1,-0.1 -0.1,-0.2 -0.2,-0.2 -0.3,0 -0.6,0 -0.3,0.5 0.1,0.1 0.3,0.1 0.5,0 0.2,0 0.5,-0.1 0.7,-0.1 0.5,0.5 1.2,1 1.7,1.4 -0.5,-0.1 -1.1,-0.3 -1.6,-0.8 -0.3,-0.2 -0.6,-0.3 -1,-0.2 0.4,0.5 0.8,0.9 1.3,1.2 0.7,0.4 1.3,0.4 1.9,0.2 0.2,0.1 0.4,0.2 0.5,0.2 -0.2,0.1 -0.4,0.1 -0.6,0.2 -0.1,-0.1 -0.3,-0.1 -0.4,0 -0.1,0.2 -0.1,0.4 0.1,0.5 0.1,0.1 0.3,0 0.4,-0.1 0.3,-0.1 0.6,-0.2 0.9,-0.3 0.2,0.1 0.5,0.1 0.7,0.2 0.5,0.1 0.9,0.3 1.4,0.4 -0.3,0.1 -0.7,0.1 -1.3,-0.1 -0.5,-0.3 -0.9,-0.2 -1.3,0 0.4,0.4 1.1,0.7 1.9,0.8 0.6,-0.1 1.1,-0.3 1.5,-0.6 0.2,0 0.4,0 0.5,0 -0.5,0.4 -0.9,0.8 -0.9,1.5 0.4,-0.6 0.8,-1.1 1.5,-1.2 0.7,0.3 1.1,0.8 1.5,1.4 0,-0.7 -0.4,-1.1 -0.9,-1.5 0.2,0 0.4,0 0.5,0 0.4,0.3 0.9,0.5 1.5,0.6 0.8,-0.1 1.4,-0.4 1.9,-0.8 -0.4,-0.2 -0.8,-0.3 -1.3,0 -0.5,0.2 -1,0.2 -1.3,0.1 0.5,-0.1 0.9,-0.3 1.4,-0.4 0.2,-0.1 0.5,-0.1 0.7,-0.2 0.3,0.1 0.6,0.2 0.9,0.3 0.2,0.2 0.3,0.2 0.5,0.1 0.2,-0.1 0.2,-0.2 0.1,-0.5 -0.1,-0.1 -0.3,-0.1 -0.4,0 -0.2,-0.1 -0.4,-0.1 -0.6,-0.2 0.2,-0.1 0.4,-0.2 0.5,-0.2 0.7,0.2 1.3,0.1 1.9,-0.2 0.5,-0.3 0.9,-0.7 1.3,-1.2 -0.4,-0.1 -0.7,0 -1,0.2 -0.5,0.5 -1.1,0.7 -1.5,0.8 0.5,-0.5 1.2,-1 1.7,-1.4 0.2,0 0.5,0.1 0.7,0.1 0.2,0 0.3,0 0.5,0 0.3,-0.5 0,-0.5 -0.3,-0.5 -0.1,0.1 -0.1,0.2 -0.2,0.2 -0.1,0 -0.4,0 -0.5,0 0.2,-0.2 0.4,-0.4 0.6,-0.6 0.8,-0.2 1.4,-0.7 1.9,-1.4 -0.2,0 -0.3,-0.1 -0.5,-0.1 0,-0.1 0.1,-0.2 0.3,-0.3 0.1,0 0.2,-0.1 0.3,-0.2 0.1,-0.3 -0.1,-0.5 -0.4,-0.4 -0.1,0.1 -0.1,0.3 -0.2,0.4 -0.1,0.1 -0.2,0.2 -0.3,0.2 0,-0.2 0,-0.4 0,-0.5 -0.1,0.1 -0.3,0.2 -0.4,0.2 -0.1,-0.3 0.1,-0.4 0.2,-0.5 0,-0.4 -0.2,-0.4 -0.4,-0.2 -0.2,0.3 -0.2,0.5 -0.4,0.5 z" />
            <path
               inkscape:connector-curvature="0"
               id="path4461"
               d="m 735.1,39 c 0.7,0.5 1.1,0.8 1.4,1.6 l -0.3,0.2 c -0.6,-0.8 -1.3,-1.5 -2,-2 -0.8,-0.4 -2.8,1.8 -2.6,1.9 0.8,0.4 1.8,0.8 2.4,1.3 l -0.3,0.4 c -0.8,-0.5 -2.1,-1.1 -2.7,-1.1 -0.3,0 -1,2.3 -0.7,2.4 0.7,0.1 2.1,0.8 2.8,1.1 0.4,0.4 1.8,2.6 1.3,3 -0.2,0.1 -0.7,0 -1.3,-0.3 -2.6,-1 -2.7,0.1 -2.3,0.5 0.4,0.2 0.3,0.7 0.3,0.8 0,0.6 0.7,1.1 2,0.2 2.7,0 4.3,0.1 7,0.1 0.2,0.8 2,0 2.5,-0.7 -0.2,-0.6 -2.2,-2 -2.5,-0.5 l -0.7,-0.1 c 1.5,-3.3 1.1,-9.5 -2.5,-10.1 -0.6,0 -2.8,0.5 -1.8,1.3 z m 2.2,6.4 c 0.3,-0.3 0.8,-0.3 1.1,0 0.3,0.3 0.3,0.8 0,1.1 -0.3,0.3 -0.8,0.3 -1.1,0 -0.3,-0.3 -0.3,-0.8 0,-1.1 z" />
            <path
               inkscape:connector-curvature="0"
               id="path4463"
               d="m 736.6,36.4 v 0 c -2.2,0 -4.3,0.9 -5.7,2.4 -1.5,1.5 -2.4,3.5 -2.4,5.7 v 0 0 c 0,2.2 0.9,4.3 2.4,5.7 1.5,1.5 3.5,2.4 5.7,2.4 v 0 0 c 2.2,0 4.3,-0.9 5.7,-2.4 1.5,-1.5 2.4,-3.5 2.4,-5.7 v 0 0 c 0,-2.2 -0.9,-4.3 -2.4,-5.7 -1.5,-1.5 -3.5,-2.4 -5.7,-2.4 z m 7.8,8.1 v 0 0 c 0,2.2 -0.9,4.1 -2.3,5.5 -1.4,1.4 -3.4,2.3 -5.5,2.3 v 0 0 c -2.2,0 -4.1,-0.9 -5.5,-2.3 -1.4,-1.4 -2.3,-3.4 -2.3,-5.5 v 0 0 c 0,-2.2 0.9,-4.1 2.3,-5.5 1.4,-1.4 3.4,-2.3 5.5,-2.3 v 0 0 c 2.2,0 4.1,0.9 5.5,2.3 1.4,1.4 2.3,3.3 2.3,5.5 z" />
          </g>
        </g>
      </g>
    </g>
  </g>
</svg>
