<?xml version="1.0" encoding="UTF-8" standalone="no"?>
<!-- Created with Inkscape (http://www.inkscape.org/) -->

<svg
   xmlns:dc="http://purl.org/dc/elements/1.1/"
   xmlns:cc="http://creativecommons.org/ns#"
   xmlns:rdf="http://www.w3.org/1999/02/22-rdf-syntax-ns#"
   xmlns:svg="http://www.w3.org/2000/svg"
   xmlns="http://www.w3.org/2000/svg"
   xmlns:sodipodi="http://sodipodi.sourceforge.net/DTD/sodipodi-0.dtd"
   xmlns:inkscape="http://www.inkscape.org/namespaces/inkscape"
   width="12mm"
   height="6mm"
   viewBox="0 0 12 6"
   version="1.1"
   id="svg9425"
   inkscape:version="0.92.2 (5c3e80d, 2017-08-06)"
   sodipodi:docname="subaru.svg">
  <defs
     id="defs9419" />
  <sodipodi:namedview
     id="base"
     pagecolor="#ffffff"
     bordercolor="#666666"
     borderopacity="1.0"
     inkscape:pageopacity="0.0"
     inkscape:pageshadow="2"
     inkscape:zoom="12.087093"
     inkscape:cx="30.628893"
     inkscape:cy="11.418982"
     inkscape:document-units="mm"
     inkscape:current-layer="g3031"
     showgrid="false"
     inkscape:window-width="1280"
     inkscape:window-height="961"
     inkscape:window-x="-8"
     inkscape:window-y="44"
     inkscape:window-maximized="1" />
  <metadata
     id="metadata9422">
    <rdf:RDF>
      <cc:Work
         rdf:about="">
        <dc:format>image/svg+xml</dc:format>
        <dc:type
           rdf:resource="http://purl.org/dc/dcmitype/StillImage" />
        <dc:title></dc:title>
      </cc:Work>
    </rdf:RDF>
  </metadata>
  <g
     inkscape:label="Layer 1"
     inkscape:groupmode="layer"
     id="layer1"
     transform="translate(0,-291)">
    <g
       transform="matrix(0.25691619,0,0,0.26801702,-60.975538,207.77202)"
       style="opacity:0.8"
       id="g2791">
      <g
         transform="translate(-428.30763,-0.14631344)"
         style="opacity:0.8"
         id="g4833">
        <g
           transform="matrix(1.1939555,0,0,1.1939555,437.49933,-142.72369)"
           style="opacity:0.8"
           id="g3031">
          <g
             transform="matrix(0.80895697,0,0,0.77545129,-193.91625,35.948106)"
             id="g4337">
            <path
               inkscape:connector-curvature="0"
               id="path4311"
               d="m 498.8,461.2 c 0,0 0.8,-0.4 0.8,-1.3 0,-0.3 -0.2,-1.5 -1.7,-1.5 -1.7,0 -5.3,0 -5.3,0 v 5.7 c 0,0 3.3,0 5.3,0 1.8,0 1.8,-1.1 1.8,-1.6 0,-1 -0.9,-1.3 -0.9,-1.3 z m -4.5,-1.7 c 0,0 2,0 3.1,0 0.3,0 0.6,0.2 0.6,0.6 0,0.4 -0.3,0.6 -0.6,0.6 -1.2,0 -3.1,0 -3.2,0 v -1.2 z m 3.2,3.4 c -1.4,0 -3.2,0 -3.2,0 v -1.2 c 0,0 2.1,0 3.2,0 0.4,0 0.7,0.2 0.7,0.6 -0.1,0.4 -0.4,0.6 -0.7,0.6 z" />
            <path
               inkscape:connector-curvature="0"
               id="path4313"
               d="m 514.6,461.8 c 0,0 0.9,-0.6 0.9,-1.5 0,-1.1 -0.4,-2 -2,-2 -1.7,0 -5.1,0 -5.1,0 v 5.7 h 1.7 v -1.8 c 0,0 2.1,0 3.1,0 0.4,0 0.8,0.5 0.8,0.9 0,0.6 0,0.9 0,0.9 h 1.5 c 0,0 0,-0.4 0,-0.9 0,-0.8 -0.9,-1.3 -0.9,-1.3 z m -1.4,-0.6 c -1.2,0 -3.1,0 -3.1,0 v -1.7 c 0,0 2,0 3.1,0 0.4,0 0.7,0.5 0.7,0.9 0,0.4 -0.3,0.8 -0.7,0.8 z" />
            <path
               inkscape:connector-curvature="0"
               id="path4315"
               d="m 502.7,458.3 -3.1,5.7 h 1.7 l 0.6,-1.1 h 3.6 l 0.6,1.1 h 1.7 l -3.1,-5.7 z m -0.1,3.3 1.1,-2.1 1.2,2.1 z" />
            <path
               inkscape:connector-curvature="0"
               id="path4317"
               d="m 521.7,458.3 c 0,0 0,2.5 0,4.1 0,0.2 -0.1,0.5 -0.4,0.5 -1.3,0 -1.8,0 -3,0 -0.3,0 -0.5,-0.2 -0.5,-0.5 0,-1.8 -0.1,-4.1 0,-4.1 h -1.7 c 0,0 0,2.8 0,4.5 0,0.9 0.9,1.2 2,1.2 1.5,0 2.3,0 3.9,0 0.9,0 1.4,-0.5 1.4,-1.2 0,-1.6 0,-4.5 0,-4.5 z" />
            <path
               inkscape:connector-curvature="0"
               id="path4319"
               d="m 482.8,460.5 c -1.4,-0.1 -3,-0.1 -4,-0.1 -0.6,0 -0.6,-1.1 0.1,-1.1 1,0 2.2,0 3.1,0 0.4,0 0.4,0.5 0.4,0.5 h 1.5 c 0,-0.1 0.2,-1.7 -1.3,-1.7 0,0 -4.5,0 -4.5,0 -0.7,0 -1.3,0.5 -1.3,1 0,0.5 0,0.8 0,1.2 0,0.8 0.7,1.2 1.7,1.2 1.4,0 2.3,0.1 3.4,0.1 0.9,0.1 0.8,1.2 0,1.2 -1.1,0 -1.7,0 -2.9,0 -0.7,0 -0.6,-0.7 -0.6,-0.7 h -1.5 c 0,0.2 0,0.3 0,0.5 0.1,0.7 0.7,1.3 1.5,1.3 1.5,0 2.6,0 4.5,0 0.7,0 1.4,-0.4 1.4,-1.2 0,0 0,-1.2 0,-1.2 -0.2,-0.6 -0.8,-1 -1.5,-1 z" />
            <path
               inkscape:connector-curvature="0"
               id="path4321"
               d="m 490.2,458.3 c 0,0 0,2.5 0,4.1 0,0.2 -0.1,0.5 -0.4,0.5 -1.3,0 -1.8,0 -3,0 -0.3,0 -0.5,-0.2 -0.5,-0.5 0,-1.8 0,-4.1 0,-4.1 h -1.7 c 0,0 0,2.8 0,4.5 0,0.9 0.9,1.2 2,1.2 1.5,0 2.3,0 3.9,0 0.9,0 1.5,-0.5 1.4,-1.2 0,-1.6 0,-4.5 0,-4.5 z" />
            <path
               inkscape:connector-curvature="0"
               id="path4323"
               d="m 494.8,448.2 c -1.6,0.9 -2.6,2.2 -2.6,3.5 0,1.3 1,2.5 2.5,3.4 1.5,0.9 3.5,1.5 5.7,1.5 2.2,0 4.2,-0.6 5.7,-1.4 1.6,-0.9 2.6,-2.2 2.6,-3.4 0,-1.2 -1,-2.5 -2.6,-3.5 -1.5,-0.9 -3.5,-1.5 -5.7,-1.5 -2.1,-0.1 -4.1,0.5 -5.6,1.4 z m 13.7,3.5 c 0,1.2 -0.9,2.4 -2.4,3.2 -1.5,0.9 -3.5,1.4 -5.6,1.4 -2.1,0 -4.1,-0.6 -5.6,-1.4 -1.5,-0.9 -2.4,-2 -2.4,-3.2 0,-1.2 0.9,-2.4 2.4,-3.3 1.5,-0.9 3.4,-1.4 5.6,-1.4 2.2,0 4.1,0.6 5.6,1.4 1.5,0.9 2.4,2.1 2.4,3.3 z" />
            <polygon
               id="polygon4325"
               points="497.4,448 496.7,450 493.3,450.7 496.7,451.4 497.5,453.5 498.3,451.5 502,450.7 498.2,449.9 " />
            <polygon
               id="polygon4327"
               points="501.6,451.8 500.2,452.1 501.6,452.4 502,453.3 502.3,452.5 503.9,452.1 502.3,451.8 502,451 " />
            <polygon
               id="polygon4329"
               points="505.8,451 505.5,451.8 504.1,452.1 505.5,452.4 505.8,453.3 506.2,452.5 507.7,452.1 506.2,451.8 " />
            <polygon
               id="polygon4331"
               points="504.8,450.9 505.2,450 506.7,449.7 505.2,449.4 504.8,448.6 504.5,449.4 503,449.7 504.5,450 " />
            <polygon
               id="polygon4333"
               points="503.3,452.9 503,453.7 501.6,454 503,454.4 503.3,455.2 503.7,454.4 505.3,454 503.7,453.7 " />
            <polygon
               id="polygon4335"
               points="499.1,453.1 498.8,454 497.4,454.3 498.8,454.6 499.2,455.5 499.5,454.6 501.1,454.3 499.5,454 " />
          </g>
        </g>
      </g>
    </g>
  </g>
</svg>
