<?xml version="1.0" encoding="UTF-8" standalone="no"?>
<!-- Created with Inkscape (http://www.inkscape.org/) -->

<svg
   xmlns:dc="http://purl.org/dc/elements/1.1/"
   xmlns:cc="http://creativecommons.org/ns#"
   xmlns:rdf="http://www.w3.org/1999/02/22-rdf-syntax-ns#"
   xmlns:svg="http://www.w3.org/2000/svg"
   xmlns="http://www.w3.org/2000/svg"
   xmlns:sodipodi="http://sodipodi.sourceforge.net/DTD/sodipodi-0.dtd"
   xmlns:inkscape="http://www.inkscape.org/namespaces/inkscape"
   width="12mm"
   height="6mm"
   viewBox="0 0 12 6"
   version="1.1"
   id="svg9425"
   inkscape:version="0.92.2 (5c3e80d, 2017-08-06)"
   sodipodi:docname="toyota.svg">
  <defs
     id="defs9419" />
  <sodipodi:namedview
     id="base"
     pagecolor="#ffffff"
     bordercolor="#666666"
     borderopacity="1.0"
     inkscape:pageopacity="0.0"
     inkscape:pageshadow="2"
     inkscape:zoom="12.087093"
     inkscape:cx="30.628893"
     inkscape:cy="4.8003514"
     inkscape:document-units="mm"
     inkscape:current-layer="g4833"
     showgrid="false"
     inkscape:window-width="1280"
     inkscape:window-height="961"
     inkscape:window-x="-8"
     inkscape:window-y="44"
     inkscape:window-maximized="1" />
  <metadata
     id="metadata9422">
    <rdf:RDF>
      <cc:Work
         rdf:about="">
        <dc:format>image/svg+xml</dc:format>
        <dc:type
           rdf:resource="http://purl.org/dc/dcmitype/StillImage" />
        <dc:title></dc:title>
      </cc:Work>
    </rdf:RDF>
  </metadata>
  <g
     inkscape:label="Layer 1"
     inkscape:groupmode="layer"
     id="layer1"
     transform="translate(0,-291)">
    <g
       transform="matrix(0.25691619,0,0,0.26801702,-60.975538,207.77202)"
       style="opacity:0.8"
       id="g2791">
      <g
         transform="translate(-428.30763,-0.14631344)"
         style="opacity:0.8"
         id="g4833">
        <g
           transform="matrix(1.1182393,0,0,1.0643728,509.46453,117.77859)"
           style="opacity:0.8"
           id="g345">
          <path
             inkscape:connector-curvature="0"
             id="path319"
             d="m 164.9,199.7 c 0,-1.2 -1,-2.2 -2.2,-2.2 -1.2,0 -2.2,1 -2.2,2.2 0,1.2 1,2.2 2.2,2.2 1.2,-0.1 2.2,-1 2.2,-2.2 z m -3.4,0 c 0,-0.8 0.5,-1.4 1.2,-1.4 0.7,0 1.2,0.6 1.2,1.4 0,0.8 -0.5,1.4 -1.2,1.4 -0.7,0 -1.2,-0.7 -1.2,-1.4 z" />
          <polygon
             id="polygon321"
             points="168.6,197.7 165.1,197.7 165.1,198.4 166.5,198.4 166.5,201.7 167.4,201.7 167.4,198.4 168.6,198.4 " />
          <path
             inkscape:connector-curvature="0"
             id="path323"
             d="m 169.7,200.8 h 1.7 l 0.3,0.9 h 1.1 l -1.7,-4.1 H 170 l -1.7,4.1 h 1.1 z m 0.9,-2.2 0.6,1.5 h -0.6 -0.6 z" />
          <polygon
             id="polygon325"
             points="150.5,198.4 151.8,198.4 151.8,197.7 148.3,197.7 148.3,198.4 149.6,198.4 149.6,201.7 150.5,201.7 " />
          <path
             inkscape:connector-curvature="0"
             id="path327"
             d="m 156.4,199.7 c 0,-1.2 -1,-2.2 -2.2,-2.2 -1.2,0 -2.2,1 -2.2,2.2 0,1.2 1,2.2 2.2,2.2 1.2,-0.1 2.1,-1 2.2,-2.2 z m -3.4,0 c 0,-0.8 0.5,-1.4 1.2,-1.4 0.7,0 1.2,0.6 1.2,1.4 0,0.8 -0.5,1.4 -1.2,1.4 -0.7,0 -1.3,-0.7 -1.2,-1.4 z" />
          <polygon
             id="polygon329"
             points="158,200.2 158,201.7 158.4,201.7 158.9,201.7 158.9,200.2 160.5,197.7 159.5,197.7 158.4,199.4 157.4,197.7 156.4,197.7 " />
          <path
             inkscape:connector-curvature="0"
             id="path331"
             d="m 160.3,195.8 c 6.2,0 11.3,-3.2 11.3,-7.1 0,-3.9 -5.1,-7.1 -11.3,-7.1 -6.2,0 -11.3,3.2 -11.3,7.1 0,3.9 5.1,7.1 11.3,7.1 z m 0,-13.8 c 6,0 10.9,3 10.9,6.7 0,3.7 -4.9,6.7 -10.9,6.7 -6,0 -10.9,-3 -10.9,-6.7 0,-3.7 4.9,-6.7 10.9,-6.7 z" />
          <path
             inkscape:connector-curvature="0"
             id="path333"
             d="m 157.6,186.9 h 0.2 v -0.2 c 0.3,-1.6 0.8,-2.9 1.6,-3.5 l 0.4,-0.3 h -0.5 c -2.6,0.2 -4.6,0.9 -4.9,1.8 0,0.1 -0.1,0.2 -0.1,0.3 0,0.2 0,0.3 0.1,0.5 0.4,0.6 1.6,1.1 3.2,1.4 z m -2.9,-2.1 c 0.3,-0.7 1.9,-1.3 4.1,-1.5 -0.6,0.7 -1.1,1.8 -1.3,3.2 -1.4,-0.3 -2.4,-0.7 -2.7,-1.2 -0.1,-0.1 -0.1,-0.2 -0.1,-0.3 0,-0.1 0,-0.1 0,-0.2 z" />
          <path
             inkscape:connector-curvature="0"
             id="path335"
             d="m 158.8,186.8 v 0.2 h 0.2 c 0.5,0 0.9,0.1 1.4,0.1 0.5,0 0.9,0 1.4,-0.1 h 0.2 v -0.2 c -0.3,-1.5 -0.8,-2.3 -1.5,-2.3 -0.9,0 -1.5,0.9 -1.7,2.3 z m 1.5,-2 c 0.5,0 0.9,0.7 1.2,1.9 -0.4,0 -0.8,0 -1.2,0 -0.4,0 -0.8,0 -1.2,0 0.3,-1.1 0.7,-1.9 1.2,-1.9 z" />
          <path
             inkscape:connector-curvature="0"
             id="path337"
             d="m 162.9,186.7 v 0.2 h 0.2 c 1.6,-0.3 2.8,-0.8 3.1,-1.4 0.1,-0.2 0.2,-0.5 0.1,-0.7 -0.3,-0.9 -2.2,-1.6 -4.9,-1.8 h -0.5 l 0.4,0.3 c 0.7,0.5 1.3,1.8 1.6,3.4 z m 3.1,-1.9 c 0,0.1 0,0.1 0,0.2 0,0.1 0,0.2 -0.1,0.3 -0.3,0.5 -1.3,1 -2.7,1.2 -0.2,-1.4 -0.7,-2.5 -1.3,-3.2 2.1,0.2 3.8,0.8 4.1,1.5 z" />
          <path
             inkscape:connector-curvature="0"
             id="path339"
             d="m 159.2,194.5 h 0.5 l -0.4,-0.3 c -1,-0.9 -1.7,-3 -1.7,-5.5 v -0.6 h -0.1 c -2.5,-0.4 -4.2,-1.5 -4.5,-2.7 l -0.1,-0.3 -0.2,0.2 c -1.2,1 -1.8,2.2 -1.8,3.4 0,3 3.6,5.5 8.3,5.8 z m -6.5,-8.7 c 0.5,1.2 2.1,2.2 4.5,2.6 0,0.1 0,0.3 0,0.3 0,2.3 0.5,4.3 1.5,5.4 -4.3,-0.5 -7.5,-2.7 -7.5,-5.3 0,-1.1 0.6,-2.1 1.5,-3 z" />
          <path
             inkscape:connector-curvature="0"
             id="path341"
             d="m 162,188.5 v -0.3 h -0.2 c -0.5,0 -1,0.1 -1.5,0.1 -0.5,0 -1,0 -1.5,-0.1 h -0.2 v 0.2 0.1 c 0,2.3 0.7,4.1 1.7,4.1 1,0 1.7,-1.7 1.7,-4.1 z m -1.7,3.8 c -0.6,0 -1.3,-1.4 -1.3,-3.6 0.4,0 0.9,0.1 1.3,0.1 0.5,0 0.9,0 1.3,-0.1 0,2.1 -0.6,3.6 -1.3,3.6 z" />
          <path
             inkscape:connector-curvature="0"
             id="path343"
             d="m 163,188.2 v 0.6 c 0,2.5 -0.6,4.6 -1.7,5.5 l -0.4,0.3 h 0.5 c 4.7,-0.4 8.3,-2.8 8.3,-5.7 0,-1.2 -0.6,-2.4 -1.8,-3.4 l -0.2,-0.2 -0.1,0.3 c -0.3,1.2 -2,2.2 -4.5,2.7 z m 4.9,-2.4 c 1,0.9 1.5,1.9 1.5,3 0,2.6 -3.2,4.9 -7.5,5.3 0.9,-1.1 1.5,-3.1 1.5,-5.4 0,0 0,-0.2 0,-0.3 2.4,-0.4 4.1,-1.4 4.5,-2.6 z" />
        </g>
      </g>
    </g>
  </g>
</svg>
