<?xml version="1.0" encoding="UTF-8" standalone="no"?>
<!-- Created with Inkscape (http://www.inkscape.org/) -->

<svg
   xmlns:dc="http://purl.org/dc/elements/1.1/"
   xmlns:cc="http://creativecommons.org/ns#"
   xmlns:rdf="http://www.w3.org/1999/02/22-rdf-syntax-ns#"
   xmlns:svg="http://www.w3.org/2000/svg"
   xmlns="http://www.w3.org/2000/svg"
   xmlns:sodipodi="http://sodipodi.sourceforge.net/DTD/sodipodi-0.dtd"
   xmlns:inkscape="http://www.inkscape.org/namespaces/inkscape"
   width="12mm"
   height="6mm"
   viewBox="0 0 12 6"
   version="1.1"
   id="svg9425"
   inkscape:version="0.92.2 (5c3e80d, 2017-08-06)"
   sodipodi:docname="uaz.svg">
  <defs
     id="defs9419" />
  <sodipodi:namedview
     id="base"
     pagecolor="#ffffff"
     bordercolor="#666666"
     borderopacity="1.0"
     inkscape:pageopacity="0.0"
     inkscape:pageshadow="2"
     inkscape:zoom="12.087093"
     inkscape:cx="21.500436"
     inkscape:cy="7.0095907"
     inkscape:document-units="mm"
     inkscape:current-layer="g3031"
     showgrid="false"
     inkscape:window-width="1280"
     inkscape:window-height="961"
     inkscape:window-x="-8"
     inkscape:window-y="44"
     inkscape:window-maximized="1" />
  <metadata
     id="metadata9422">
    <rdf:RDF>
      <cc:Work
         rdf:about="">
        <dc:format>image/svg+xml</dc:format>
        <dc:type
           rdf:resource="http://purl.org/dc/dcmitype/StillImage" />
        <dc:title></dc:title>
      </cc:Work>
    </rdf:RDF>
  </metadata>
  <g
     inkscape:label="Layer 1"
     inkscape:groupmode="layer"
     id="layer1"
     transform="translate(0,-291)">
    <g
       transform="matrix(0.25691619,0,0,0.26801702,-60.975538,207.77202)"
       style="opacity:0.8"
       id="g2791">
      <g
         transform="translate(-428.30763,-0.14631344)"
         style="opacity:0.8"
         id="g4833">
        <g
           transform="matrix(1.1939555,0,0,1.1939555,437.49933,-142.72369)"
           style="opacity:0.8"
           id="g3031">
          <g
             transform="matrix(0.17732567,0,0,0.16998112,139.81925,355.05897)"
             id="g18">
            <polygon
               style="clip-rule:evenodd;fill:#ffffff;fill-rule:evenodd"
               points="303,296.8 303,104 495.8,104 495.8,296.8 "
               id="polygon2" />
            <path
               style="clip-rule:evenodd;fill:#dcdfe6;fill-rule:evenodd"
               inkscape:connector-curvature="0"
               d="m 304.4,170.6 c 0,0 0.5,-1.7 2.3,-1.2 v 0 l 92.1,27.8 92.7,-27.9 v 0 c 0,0 1.7,-0.6 2.3,1.3 -3.1,1 -95.1,32.7 -95.1,32.7 v 0 z"
               id="path4" />
            <path
               style="clip-rule:evenodd;fill:#8c92a2;fill-rule:evenodd"
               inkscape:connector-curvature="0"
               d="m 421.8,190.3 c -4.7,-9.5 -14.6,-16 -25.9,-16 -10.7,0 -20.1,5.8 -25,14.6 v 0 l 1.8,2.6 v 0 c 4.3,-8.5 13,-14.3 23.2,-14.3 10.9,0 20.3,6.6 24.2,16.1 v 0 z"
               id="path6" />
            <path
               style="clip-rule:evenodd;fill:#dcdfe6;fill-rule:evenodd"
               inkscape:connector-curvature="0"
               d="m 418.7,204.3 c -0.7,12 -10.7,21.4 -22.8,21.4 -12.6,0 -22.8,-10.2 -22.8,-22.8 0,-0.4 0,-0.8 0,-1.2 v 0 l -2.7,-3.3 v 0 c -0.3,1.5 -0.4,3 -0.4,4.5 0,14.3 11.6,26 26,26 14.3,0 26,-11.6 26,-26 0,-0.9 0,-1.8 -0.1,-2.7 v 0 z"
               id="path8" />
            <path
               style="clip-rule:evenodd;fill:#dcdfe6;fill-rule:evenodd"
               inkscape:connector-curvature="0"
               d="m 378.4,210.2 c 0,0 -0.6,-1.9 1.4,-2.7 2.1,-0.9 3.1,-1.3 3.1,-1.3 v 0 l 15.8,-3 z"
               id="path10" />
            <path
               style="clip-rule:evenodd;fill-rule:evenodd"
               inkscape:connector-curvature="0"
               d="m 421.8,200.5 v 0 0 c 0,0.9 0,1.7 0,2.5 0,14.3 -11.6,25.9 -25.9,25.9 -14.3,0 -25.9,-11.6 -25.9,-25.9 0,-1.4 0.1,-2.8 0.3,-4.2 v 0 l -3,0.9 v 0 c -0.1,1.1 -0.2,2.2 -0.2,3.4 0,15.9 12.9,28.8 28.8,28.8 15.9,0 28.8,-12.9 28.8,-28.8 0,-0.4 0,-0.8 0,-1.2 v 0 z"
               id="path12" />
            <path
               style="clip-rule:evenodd;fill-rule:evenodd"
               inkscape:connector-curvature="0"
               d="m 493.9,170.5 -95.1,32.7 -94.4,-32.6 v 0 c 0,0 -0.2,0.5 -0.2,0.9 0,0.3 0,1.2 1.2,1.7 1.2,0.5 62,26.5 62,26.5 v 0 l 3,-0.9 2.8,3.3 9.9,4.2 15.7,-3 -20.3,7 v 0 c 0,0 0.3,1.2 1.9,1.3 1.6,0.1 18.6,1.4 18.6,1.4 v 0 l 19.6,-8.4 3.1,-4.1 2.9,1.5 v 0 c 0,0 67,-28.3 68.5,-28.9 1.5,-0.6 0.8,-2.6 0.8,-2.6 z"
               id="path14" />
            <path
               style="clip-rule:evenodd;fill-rule:evenodd"
               inkscape:connector-curvature="0"
               d="m 376.6,190.4 c 4.1,-6.3 11.2,-10.5 19.3,-10.5 8.7,0 16.3,4.8 20.1,12 v 0 l 4.1,1.3 v 0 C 416.2,183.7 406.9,177 396,177 c -10.2,0 -19,5.9 -23.3,14.4 v 0 z"
               id="path16" />
          </g>
        </g>
      </g>
    </g>
  </g>
</svg>
