<?xml version="1.0" encoding="UTF-8" standalone="no"?>
<!-- Created with Inkscape (http://www.inkscape.org/) -->

<svg
   xmlns:dc="http://purl.org/dc/elements/1.1/"
   xmlns:cc="http://creativecommons.org/ns#"
   xmlns:rdf="http://www.w3.org/1999/02/22-rdf-syntax-ns#"
   xmlns:svg="http://www.w3.org/2000/svg"
   xmlns="http://www.w3.org/2000/svg"
   xmlns:sodipodi="http://sodipodi.sourceforge.net/DTD/sodipodi-0.dtd"
   xmlns:inkscape="http://www.inkscape.org/namespaces/inkscape"
   width="12mm"
   height="6mm"
   viewBox="0 0 12 6"
   version="1.1"
   id="svg9425"
   inkscape:version="0.92.2 (5c3e80d, 2017-08-06)"
   sodipodi:docname="vw.svg">
  <defs
     id="defs9419" />
  <sodipodi:namedview
     id="base"
     pagecolor="#ffffff"
     bordercolor="#666666"
     borderopacity="1.0"
     inkscape:pageopacity="0.0"
     inkscape:pageshadow="2"
     inkscape:zoom="12.087093"
     inkscape:cx="30.628893"
     inkscape:cy="11.418982"
     inkscape:document-units="mm"
     inkscape:current-layer="g3031"
     showgrid="false"
     inkscape:window-width="1280"
     inkscape:window-height="961"
     inkscape:window-x="-8"
     inkscape:window-y="44"
     inkscape:window-maximized="1" />
  <metadata
     id="metadata9422">
    <rdf:RDF>
      <cc:Work
         rdf:about="">
        <dc:format>image/svg+xml</dc:format>
        <dc:type
           rdf:resource="http://purl.org/dc/dcmitype/StillImage" />
        <dc:title></dc:title>
      </cc:Work>
    </rdf:RDF>
  </metadata>
  <g
     inkscape:label="Layer 1"
     inkscape:groupmode="layer"
     id="layer1"
     transform="translate(0,-291)">
    <g
       transform="matrix(0.25691619,0,0,0.26801702,-60.975538,207.77202)"
       style="opacity:0.8"
       id="g2791">
      <g
         transform="translate(-428.30763,-0.14631344)"
         style="opacity:0.8"
         id="g4833">
        <g
           transform="matrix(1.1939555,0,0,1.1939555,437.49933,-142.72369)"
           style="opacity:0.8"
           id="g3031">
          <g
             transform="matrix(0.74071133,0,0,0.71003227,-81.197137,182.85881)"
             id="g1823">
            <path
               inkscape:connector-curvature="0"
               id="path1791"
               d="m 378.1,302.7 h 0.1 0.1 0.1 0.1 0.1 0.1 0.1 0.1 0.1 0.1 0.1 0.1 0.1 0.1 0.1 l 0.1,-0.1 h 0.1 l 0.1,-0.1 0.1,-0.1 0.1,-0.1 0.1,-0.1 0.1,-0.1 0.1,-0.1 0.1,-0.1 0.1,-0.1 0.1,-0.1 0.1,-0.1 v -0.1 -0.1 -0.1 -0.1 -0.1 -0.1 -0.1 -0.2 -0.1 -0.2 -0.1 -0.1 -0.1 -0.1 -0.1 -0.1 -0.1 -0.1 -0.1 -0.1 l -0.1,-0.1 -0.1,-0.1 -0.1,-0.1 -0.1,-0.1 -0.1,-0.1 -0.1,-0.1 -0.1,-0.1 -0.1,-0.1 -0.1,-0.1 -0.1,-0.1 -0.1,-0.1 -0.1,-0.1 -0.1,-0.1 h -0.1 -0.1 -0.1 -0.1 -0.1 -0.1 -0.1 -0.1 -0.1 -0.1 -0.1 -0.1 -0.1 -0.1 -0.1 -0.1 -0.1 l -0.1,0.1 -0.1,0.1 -0.1,0.1 -0.1,0.1 -0.1,0.1 -0.1,0.1 -0.1,0.1 -0.1,0.1 v 0.1 l -0.1,0.1 -0.1,0.1 v 0.1 0.1 0.1 0.1 0.1 0.1 0.1 0.2 0.1 0.1 0.2 0.1 0.1 0.1 0.1 0.1 0.1 0.1 0.1 l 0.1,0.1 0.1,0.1 0.1,0.1 0.1,0.1 0.1,0.1 0.1,0.1 0.1,0.1 0.1,0.1 0.1,0.1 0.1,0.1 0.1,0.1 0.1,0.1 h 0.1 z m -0.2,-1.4 -0.1,-0.2 -0.1,-0.2 v -0.1 -0.1 -0.2 -0.2 -0.2 -0.1 -0.1 -0.1 -0.1 l 0.1,-0.2 0.1,-0.1 0.1,-0.1 0.1,-0.1 0.1,-0.1 0.1,-0.1 0.1,-0.1 h 0.1 0.2 0.2 0.2 0.2 l 0.1,0.1 0.1,0.1 0.1,0.1 0.1,0.1 0.1,0.1 0.1,0.1 0.1,0.2 v 0.2 0.2 0.2 0.2 0.1 0.1 0.1 0.1 0.1 0.1 0.1 l -0.1,0.1 -0.1,0.1 -0.1,0.1 -0.1,0.1 -0.1,0.1 -0.1,0.1 h -0.2 -0.2 -0.1 -0.1 -0.2 -0.2 l -0.1,-0.1 -0.1,-0.1 -0.1,-0.1 -0.1,-0.1 z" />
            <polygon
               id="polygon1793"
               points="412.3,298.2 412.2,298.2 412.1,298.1 412,298.1 411.9,298.2 411.8,298.2 411.7,298.3 411.6,298.4 411.5,298.5 411.5,298.6 411.5,298.7 411.5,302.2 411.5,302.3 411.5,302.4 411.6,302.5 411.7,302.6 411.8,302.7 411.9,302.7 412,302.7 412.1,302.7 412.2,302.7 412.3,302.7 412.4,302.6 412.5,302.5 412.5,302.4 412.5,302.3 412.6,302.2 412.6,300 414.6,302.6 414.7,302.6 414.8,302.7 414.9,302.7 415,302.7 415.1,302.7 415.2,302.7 415.3,302.6 415.4,302.6 415.5,302.5 415.5,302.4 415.6,302.3 415.6,302.2 415.6,298.7 415.6,298.6 415.5,298.5 415.5,298.4 415.4,298.3 415.3,298.2 415.2,298.2 415.1,298.1 415,298.1 414.9,298.2 414.8,298.2 414.7,298.3 414.6,298.4 414.5,298.5 414.5,298.6 414.5,298.7 414.5,300.9 412.5,298.3 412.4,298.3 " />
            <polygon
               id="polygon1795"
               points="410.5,300.5 410.5,300.4 410.5,300.3 410.5,300.2 410.4,300.2 410.4,300.1 410.3,300 410.2,300 410.1,300 410,300 409,300 409,299.1 410.1,299.1 410.2,299.1 410.3,299.1 410.4,299.1 410.4,299 410.5,298.9 410.5,298.8 410.6,298.7 410.6,298.6 410.6,298.5 410.5,298.4 410.5,298.4 410.4,298.3 410.3,298.2 410.2,298.2 410.1,298.2 410.1,298.2 408.5,298.2 408.5,298.2 408.4,298.2 408.3,298.2 408.2,298.3 408.1,298.3 408,298.4 408,298.5 408,298.6 408,298.7 408,302.2 408,302.3 408,302.4 408.1,302.5 408.1,302.6 408.2,302.6 408.3,302.7 408.4,302.7 408.5,302.7 410.1,302.7 410.2,302.7 410.3,302.7 410.4,302.7 410.5,302.6 410.6,302.5 410.6,302.4 410.7,302.4 410.7,302.3 410.7,302.1 410.6,302 410.6,301.9 410.5,301.9 410.4,301.8 410.2,301.7 410.1,301.7 409,301.7 409,300.9 410,300.9 410.1,300.9 410.2,300.9 410.3,300.9 410.3,300.8 410.4,300.7 410.5,300.6 " />
            <polygon
               id="polygon1797"
               points="385.1,302.3 385.1,302.4 385.1,302.5 385.2,302.6 385.3,302.7 385.4,302.7 385.5,302.8 385.7,302.8 385.8,302.7 385.9,302.7 386,302.6 386.1,302.5 386.1,302.4 386.1,302.3 386.1,300.7 387.8,302.6 387.8,302.6 387.9,302.7 388.1,302.7 388.2,302.7 388.3,302.7 388.4,302.7 388.5,302.6 388.6,302.6 388.7,302.5 388.7,302.3 388.7,302.2 388.7,302.1 388.7,302 388.6,301.9 387.1,300.3 388.4,298.9 388.4,298.9 388.5,298.8 388.5,298.7 388.5,298.6 388.5,298.4 388.4,298.3 388.4,298.2 388.3,298.2 388.2,298.1 388,298.1 387.9,298.1 387.8,298.1 387.7,298.2 387.6,298.3 386.1,300 386.1,298.6 386.1,298.5 386,298.4 385.9,298.3 385.9,298.2 385.8,298.2 385.6,298.1 385.5,298.1 385.4,298.2 385.3,298.2 385.2,298.3 385.1,298.4 385.1,298.5 385.1,298.6 385.1,302.2 " />
            <polygon
               id="polygon1799"
               points="389.6,301.6 389.5,301.7 389.4,301.7 389.4,301.8 389.3,301.9 389.3,302 389.3,302.1 389.3,302.2 389.4,302.3 389.4,302.4 389.6,302.5 389.7,302.6 389.8,302.6 389.9,302.6 390,302.7 390.1,302.7 390.3,302.7 390.4,302.8 390.5,302.8 390.6,302.8 390.7,302.8 390.8,302.8 391,302.8 391.1,302.8 391.2,302.8 391.3,302.7 391.4,302.7 391.5,302.7 391.7,302.6 391.7,302.6 391.8,302.6 391.9,302.5 392,302.5 392,302.4 392.1,302.3 392.2,302.3 392.2,302.2 392.3,302.1 392.3,302 392.4,302 392.4,301.9 392.4,301.8 392.5,301.7 392.5,301.5 392.5,301.3 392.5,301.1 392.5,301 392.4,300.8 392.4,300.7 392.3,300.6 392.3,300.5 392.2,300.5 392.1,300.4 392.1,300.3 392,300.2 391.9,300.2 391.8,300.1 391.7,300.1 391.6,300 391.5,300 391.3,300 391.2,299.9 391.1,299.9 390.9,299.8 390.8,299.8 390.7,299.8 390.6,299.7 390.5,299.7 390.5,299.6 390.4,299.5 390.4,299.5 390.4,299.4 390.4,299.3 390.5,299.3 390.5,299.2 390.6,299.1 390.7,299.1 390.8,299.1 390.9,299.1 391,299.1 391.1,299.1 391.3,299.1 391.5,299.2 391.6,299.2 391.7,299.2 391.8,299.2 391.9,299.2 392,299.2 392.1,299.1 392.2,299 392.2,298.9 392.2,298.9 392.2,298.8 392.2,298.7 392.2,298.6 392.1,298.5 392,298.4 391.9,298.3 391.8,298.3 391.7,298.2 391.6,298.2 391.5,298.2 391.5,298.1 391.4,298.1 391.3,298.1 391.1,298.1 391,298.1 390.9,298.1 390.8,298.1 390.7,298.1 390.6,298.1 390.5,298.1 390.4,298.2 390.3,298.2 390.2,298.2 390.1,298.3 390,298.3 389.9,298.4 389.8,298.5 389.7,298.5 389.7,298.6 389.6,298.6 389.6,298.7 389.5,298.8 389.5,298.9 389.4,299 389.4,299.1 389.3,299.2 389.3,299.4 389.3,299.5 389.3,299.7 389.4,299.8 389.4,300 389.5,300.1 389.5,300.2 389.6,300.3 389.7,300.4 389.8,300.5 389.9,300.6 390,300.6 390.2,300.7 390.3,300.7 390.4,300.8 390.6,300.8 390.8,300.9 390.9,300.9 391,300.9 391.1,301 391.2,301 391.3,301.1 391.4,301.1 391.4,301.2 391.4,301.3 391.4,301.4 391.4,301.5 391.4,301.6 391.3,301.7 391.2,301.7 391.1,301.8 391,301.8 390.8,301.8 390.7,301.8 390.5,301.8 390.4,301.7 390.3,301.7 390.1,301.7 390,301.6 389.8,301.6 389.7,301.6 " />
            <polygon
               id="polygon1801"
               points="396.2,298.4 396.2,298.4 396.1,298.3 396,298.2 395.9,298.1 395.8,298.1 395.6,298.1 395.5,298.2 395.4,298.3 395.3,298.4 395.3,298.4 395.3,298.5 394.4,301 393.8,298.5 393.8,298.4 393.8,298.3 393.7,298.3 393.6,298.2 393.5,298.2 393.4,298.1 393.3,298.1 393.2,298.1 393.2,298.2 393.1,298.2 393,298.3 392.9,298.4 392.9,298.5 392.9,298.6 392.9,298.7 393.7,302.3 393.7,302.4 393.8,302.5 393.9,302.6 394,302.6 394.1,302.7 394.2,302.7 394.3,302.8 394.5,302.8 394.6,302.7 394.7,302.7 394.8,302.6 394.9,302.5 395,302.4 395.1,302.3 395.8,300.1 396.5,302.2 396.5,302.3 396.6,302.4 396.7,302.6 396.8,302.6 396.9,302.7 397.1,302.7 397.2,302.7 397.4,302.7 397.5,302.7 397.6,302.6 397.7,302.5 397.8,302.3 397.8,302.2 398.6,298.7 398.7,298.7 398.7,298.6 398.6,298.4 398.6,298.3 398.5,298.2 398.4,298.2 398.3,298.1 398.2,298.1 398.1,298.1 398,298.1 397.9,298.2 397.8,298.3 397.7,298.4 397.7,298.5 397.1,301 396.3,298.5 " />
            <polygon
               id="polygon1803"
               points="403,301.5 403.1,301.6 403.1,301.7 403.2,301.8 403.3,301.9 403.4,302 403.4,302.1 403.6,302.2 403.6,302.3 403.7,302.4 403.8,302.4 403.9,302.5 404,302.6 404.2,302.6 404.3,302.7 404.4,302.7 404.5,302.7 404.6,302.7 404.7,302.8 404.9,302.8 405,302.8 405.1,302.8 405.2,302.8 405.3,302.8 405.5,302.8 405.6,302.8 405.7,302.7 405.8,302.7 405.9,302.7 406,302.6 406.1,302.6 406.2,302.5 406.3,302.5 406.4,302.4 406.4,302.3 406.5,302.3 406.6,302.2 406.7,302.1 406.8,302 406.8,301.9 406.9,301.8 406.9,301.7 407,301.6 407,301.5 407,301.4 407.1,301.3 407.1,301.2 407.1,301.1 407.1,301 407.2,300.9 407.2,300.8 407.2,300.6 407.1,300.5 407.1,300.4 407.1,300.3 407,300.2 407,300.1 406.9,300.1 406.8,300 406.7,300 406.6,300 405.4,300 405.4,300 405.2,300.1 405.1,300.1 405.1,300.2 405,300.3 405,300.4 405,300.5 405,300.6 405,300.7 405.1,300.8 405.1,300.9 405.2,300.9 405.3,301 405.4,301 406.1,301 406.1,301 406.1,301.2 406,301.3 406,301.4 405.9,301.5 405.8,301.6 405.7,301.7 405.6,301.8 405.4,301.8 405.3,301.9 405.1,301.9 405,301.9 404.8,301.8 404.7,301.8 404.5,301.7 404.4,301.7 404.4,301.6 404.3,301.5 404.2,301.4 404.1,301.2 404.1,301.1 404,300.9 404,300.7 404,300.6 404,300.4 404,300.2 404,300.1 404,299.9 404.1,299.8 404.1,299.6 404.2,299.5 404.3,299.4 404.4,299.3 404.5,299.2 404.6,299.1 404.7,299.1 404.9,299 405,299 405.2,299 405.3,299 405.5,299.1 405.6,299.1 405.8,299.2 405.9,299.3 406.1,299.4 406.1,299.4 406.2,299.5 406.3,299.5 406.4,299.5 406.5,299.4 406.6,299.4 406.7,299.3 406.8,299.3 406.8,299.2 406.8,299.1 406.8,299 406.8,298.9 406.8,298.8 406.7,298.7 406.6,298.6 406.5,298.5 406.4,298.4 406.3,298.4 406.2,298.3 406.1,298.3 406,298.2 405.8,298.2 405.7,298.2 405.6,298.1 405.5,298.1 405.4,298.1 405.3,298.1 405.1,298.1 405,298.1 404.9,298.1 404.8,298.1 404.6,298.1 404.5,298.2 404.4,298.2 404.3,298.2 404.2,298.3 404.1,298.3 404,298.3 403.9,298.4 403.8,298.5 403.7,298.5 403.6,298.6 403.6,298.7 403.5,298.7 403.4,298.8 403.3,298.9 403.3,299 403.2,299.1 403.2,299.2 403.1,299.3 403.1,299.4 403,299.5 403,299.6 403,299.7 402.9,299.9 402.9,300 402.9,300.2 402.9,300.3 402.9,300.5 402.9,300.6 402.9,300.8 402.9,300.9 402.9,301 402.9,301.1 403,301.2 403,301.4 " />
            <path
               inkscape:connector-curvature="0"
               id="path1805"
               d="m 398.6,302.5 v 0 l 0.2,0.2 0.1,0.1 h 0.1 0.1 0.1 0.1 l 0.1,-0.1 0.1,-0.1 0.1,-0.1 v -0.1 l 0.2,-0.5 h 1.7 l 0.2,0.5 v 0.1 l 0.1,0.1 0.1,0.1 0.1,0.1 h 0.1 0.1 0.1 0.1 l 0.1,-0.1 0.1,-0.1 0.1,-0.1 v -0.1 -0.1 -0.1 0 l -1.3,-3.4 v -0.1 -0.1 -0.1 l -0.1,-0.1 -0.1,-0.1 -0.1,-0.1 h -0.1 -0.1 -0.1 -0.1 -0.1 -0.1 -0.1 -0.1 l -0.1,0.1 -0.1,0.1 v 0.1 0.1 0.1 l -1.3,3.4 v 0.1 0.1 0.1 z m 2,-3.3 0.5,1.7 H 400 Z" />
            <polygon
               id="polygon1807"
               points="373.3,298.2 373.2,298.1 373.1,298.1 372.9,298.1 372.8,298.1 372.7,298.2 372.6,298.2 372.5,298.3 372.4,298.4 372.4,298.5 372.4,298.7 372.4,298.8 372.5,298.8 373.9,302.4 373.9,302.4 373.9,302.5 374,302.6 374.1,302.7 374.2,302.7 374.3,302.7 374.4,302.7 374.6,302.7 374.7,302.7 374.8,302.6 374.8,302.5 374.9,302.4 374.9,302.4 376.3,298.8 376.3,298.8 376.4,298.6 376.3,298.5 376.3,298.4 376.2,298.3 376.2,298.2 376.1,298.2 375.9,298.1 375.8,298.1 375.7,298.1 375.6,298.1 375.5,298.2 375.4,298.3 375.4,298.4 375.3,298.4 374.4,300.9 373.4,298.5 373.4,298.4 373.3,298.3 " />
            <polygon
               id="polygon1809"
               points="384.5,302.1 384.5,302 384.4,302 384.4,301.9 384.3,301.8 384.2,301.8 384.1,301.8 384,301.7 382.9,301.7 382.9,298.6 382.9,298.6 382.9,298.5 382.8,298.4 382.7,298.3 382.6,298.2 382.5,298.1 382.4,298.1 382.3,298.1 382.2,298.2 382.1,298.2 382,298.3 381.9,298.4 381.9,298.4 381.9,298.6 381.8,298.7 381.8,302.2 381.8,302.3 381.9,302.4 381.9,302.5 382,302.6 382.1,302.6 382.2,302.7 382.3,302.7 384,302.7 384.1,302.7 384.2,302.7 384.3,302.6 384.4,302.6 384.4,302.5 384.5,302.4 384.5,302.3 384.5,302.2 " />
            <path
               inkscape:connector-curvature="0"
               id="path1811"
               d="m 392.6,287.7 h 0.8 1.1 0.8 l 1,2.7 2.9,-7.5 c -0.5,-0.6 -1.1,-1.1 -1.8,-1.5 l -2,5.5 h -0.9 -1 -0.9 l -2,-5.5 c -0.7,0.4 -1.4,1 -1.9,1.7 l 2.9,7.4 z" />
            <path
               inkscape:connector-curvature="0"
               id="path1813"
               d="m 390.7,293.2 -3.2,-8.3 c -0.3,0.7 -0.4,1.5 -0.4,2.3 0,2.6 1.5,4.9 3.6,6 z" />
            <path
               inkscape:connector-curvature="0"
               id="path1815"
               d="m 400.8,287.2 c 0,-0.9 -0.1,-1.7 -0.4,-2.4 l -3.3,8.5 c 2.2,-1.1 3.7,-3.4 3.7,-6.1 z" />
            <path
               inkscape:connector-curvature="0"
               id="path1817"
               d="m 393.9,289.1 -1.8,4.6 v 0.1 c 0.6,0.2 1.2,0.2 1.8,0.2 0.6,0 1.2,-0.1 1.7,-0.2 v -0.2 z" />
            <path
               inkscape:connector-curvature="0"
               id="path1819"
               d="m 395.7,280.6 c -0.6,-0.1 -1.2,-0.2 -1.7,-0.2 -0.6,0 -1.2,0.1 -1.7,0.2 l 1.7,4.8 z" />
            <path
               inkscape:connector-curvature="0"
               id="path1821"
               d="m 394,296.4 c 5,0 9.1,-4.1 9.1,-9.1 0,-5 -4.1,-9.1 -9.1,-9.1 -5,0 -9.1,4.1 -9.1,9.1 -0.1,5 4.1,9.1 9.1,9.1 z m 0,-17.1 c 4.4,0 8,3.6 8,8 0,4.4 -3.6,8 -8,8 -4.4,0 -8,-3.6 -8,-8 0,-4.5 3.6,-8 8,-8 z" />
          </g>
        </g>
      </g>
    </g>
  </g>
</svg>
